Cantarell-Bold.ufo
<glyph name="exclam" format="2">
  <advance width="261.0"/>
  <unicode hex="0021"/>
  <outline>
    <contour>
      <point x="63.0" y="267.0" type="line"/>
      <point x="197.0" y="267.0" type="line"/>
      <point x="215.0" y="694.0" type="line"/>
      <point x="45.0" y="694.0" type="line"/>
    </contour>
    <contour>
      <point x="128.0" y="-10.0" type="curve" smooth="yes"/>
      <point x="192.0" y="-10.0"/>
      <point x="234.0" y="36.0"/>
      <point x="234.0" y="96.0" type="curve" smooth="yes"/>
      <point x="234.0" y="160.0"/>
      <point x="192.0" y="206.0"/>
      <point x="128.0" y="206.0" type="curve" smooth="yes"/>
      <point x="64.0" y="206.0"/>
      <point x="22.0" y="160.0"/>
      <point x="22.0" y="96.0" type="curve" smooth="yes"/>
      <point x="22.0" y="36.0"/>
      <point x="64.0" y="-10.0"/>
    </contour>
  </outline>
</glyph>
<glyph name="numbersign" format="2">
  <advance width="689.0"/>
  <unicode hex="0023"/>
  <outline>
    <contour>
      <point x="414.0" y="0.0" type="line"/>
      <point x="574.0" y="0.0" type="line"/>
      <point x="574.0" y="694.0" type="line"/>
      <point x="414.0" y="694.0" type="line"/>
    </contour>
    <contour>
      <point x="22.0" y="151.0" type="line"/>
      <point x="667.0" y="151.0" type="line"/>
      <point x="667.0" y="276.0" type="line"/>
      <point x="22.0" y="276.0" type="line"/>
    </contour>
    <contour>
      <point x="120.0" y="0.0" type="line"/>
      <point x="281.0" y="0.0" type="line"/>
      <point x="281.0" y="694.0" type="line"/>
      <point x="120.0" y="694.0" type="line"/>
    </contour>
    <contour>
      <point x="22.0" y="421.0" type="line"/>
      <point x="667.0" y="421.0" type="line"/>
      <point x="667.0" y="546.0" type="line"/>
      <point x="22.0" y="546.0" type="line"/>
    </contour>
  </outline>
</glyph>
<glyph name="percent" format="2">
	<unicode hex="0025"/>
	<advance width="1022"/>
	<outline>
		<contour>
			<point x="241" y="0" type="line"/>
			<point x="394" y="0" type="line"/>
			<point x="791" y="694" type="line"/>
			<point x="621" y="694" type="line"/>
		</contour>
		<contour>
			<point x="226" y="259" type="curve" smooth="yes"/>
			<point x="348" y="259"/>
			<point x="426" y="346"/>
			<point x="426" y="486" type="curve" smooth="yes"/>
			<point x="426" y="621"/>
			<point x="350" y="704"/>
			<point x="231" y="704" type="curve" smooth="yes"/>
			<point x="109" y="704"/>
			<point x="31" y="618"/>
			<point x="31" y="479" type="curve" smooth="yes"/>
			<point x="31" y="343"/>
			<point x="107" y="259"/>
		</contour>
		<contour>
			<point x="230" y="377" type="curve" smooth="yes"/>
			<point x="193" y="377"/>
			<point x="173" y="418"/>
			<point x="173" y="486" type="curve" smooth="yes"/>
			<point x="173" y="549"/>
			<point x="193" y="585"/>
			<point x="227" y="585" type="curve" smooth="yes"/>
			<point x="262" y="585"/>
			<point x="284" y="546"/>
			<point x="284" y="479" type="curve" smooth="yes"/>
			<point x="284" y="414"/>
			<point x="264" y="377"/>
		</contour>
		<contour>
			<point x="791" y="-6" type="curve" smooth="yes"/>
			<point x="913" y="-6"/>
			<point x="991" y="81"/>
			<point x="991" y="221" type="curve" smooth="yes"/>
			<point x="991" y="356"/>
			<point x="915" y="439"/>
			<point x="796" y="439" type="curve" smooth="yes"/>
			<point x="674" y="439"/>
			<point x="596" y="353"/>
			<point x="596" y="214" type="curve" smooth="yes"/>
			<point x="596" y="78"/>
			<point x="672" y="-6"/>
		</contour>
		<contour>
			<point x="795" y="112" type="curve" smooth="yes"/>
			<point x="758" y="112"/>
			<point x="738" y="153"/>
			<point x="738" y="221" type="curve" smooth="yes"/>
			<point x="738" y="284"/>
			<point x="758" y="320"/>
			<point x="792" y="320" type="curve" smooth="yes"/>
			<point x="827" y="320"/>
			<point x="849" y="281"/>
			<point x="849" y="214" type="curve" smooth="yes"/>
			<point x="849" y="149"/>
			<point x="829" y="112"/>
		</contour>
	</outline>
</glyph>
<glyph name="ampersand" format="2">
  <advance width="691.0"/>
  <unicode hex="0026"/>
  <outline>
    <contour>
      <point x="582.0" y="-10.0" type="curve"/>
      <point x="671.0" y="92.0" type="line"/>
      <point x="376.0" y="314.0"/>
      <point x="275.0" y="416.0"/>
      <point x="275.0" y="511.0" type="curve" smooth="yes"/>
      <point x="275.0" y="551.0"/>
      <point x="295.0" y="572.0"/>
      <point x="331.0" y="572.0" type="curve" smooth="yes"/>
      <point x="364.0" y="572.0"/>
      <point x="387.0" y="554.0"/>
      <point x="387.0" y="528.0" type="curve" smooth="yes"/>
      <point x="387.0" y="419.0"/>
      <point x="27.0" y="443.0"/>
      <point x="27.0" y="200.0" type="curve" smooth="yes"/>
      <point x="27.0" y="75.0"/>
      <point x="125.0" y="-10.0"/>
      <point x="271.0" y="-10.0" type="curve" smooth="yes"/>
      <point x="431.0" y="-10.0"/>
      <point x="567.0" y="94.0"/>
      <point x="657.0" y="290.0" type="curve"/>
      <point x="542.0" y="358.0" type="line"/>
      <point x="476.0" y="209.0"/>
      <point x="393.0" y="126.0"/>
      <point x="294.0" y="126.0" type="curve" smooth="yes"/>
      <point x="234.0" y="126.0"/>
      <point x="193.0" y="158.0"/>
      <point x="193.0" y="208.0" type="curve" smooth="yes"/>
      <point x="193.0" y="355.0"/>
      <point x="541.0" y="327.0"/>
      <point x="541.0" y="533.0" type="curve" smooth="yes"/>
      <point x="541.0" y="634.0"/>
      <point x="457.0" y="704.0"/>
      <point x="333.0" y="704.0" type="curve" smooth="yes"/>
      <point x="207.0" y="704.0"/>
      <point x="120.0" y="629.0"/>
      <point x="120.0" y="517.0" type="curve" smooth="yes"/>
      <point x="120.0" y="397.0"/>
      <point x="218.0" y="284.0"/>
    </contour>
  </outline>
</glyph>
<glyph name="quotesingle" format="2">
  <advance width="269.0"/>
  <unicode hex="0027"/>
  <outline>
    <contour>
      <point x="64.0" y="406.0" type="line"/>
      <point x="205.0" y="406.0" type="line"/>
      <point x="226.0" y="704.0" type="line"/>
      <point x="43.0" y="704.0" type="line"/>
    </contour>
  </outline>
</glyph>
<glyph name="parenleft" format="2">
  <advance width="310"/>
  <unicode hex="0028"/>
  <outline>
    <contour>
      <point x="178" y="-199" type="curve"/>
      <point x="299" y="-131" type="line"/>
      <point x="234" y="-42"/>
      <point x="191" y="117"/>
      <point x="191" y="270" type="curve" smooth="yes"/>
      <point x="191" y="412"/>
      <point x="229" y="562"/>
      <point x="298" y="688" type="curve"/>
      <point x="174" y="749" type="line"/>
      <point x="85" y="628"/>
      <point x="25" y="435"/>
      <point x="25" y="265" type="curve" smooth="yes"/>
      <point x="25" y="89"/>
      <point x="85" y="-93"/>
    </contour>
  </outline>
</glyph>
<glyph name="asterisk" format="2">
  <advance width="466.0"/>
  <unicode hex="002A"/>
  <outline>
    <contour>
      <point x="243.0" y="467.0" type="line"/>
      <point x="456.0" y="526.0" type="line"/>
      <point x="391.0" y="643.0" type="line"/>
      <point x="219.0" y="511.0" type="line"/>
    </contour>
    <contour>
      <point x="77.0" y="323.0" type="line"/>
      <point x="245.0" y="464.0" type="line"/>
      <point x="220.0" y="507.0" type="line"/>
      <point x="13.0" y="441.0" type="line"/>
    </contour>
    <contour>
      <point x="157.0" y="272.0" type="line"/>
      <point x="306.0" y="272.0" type="line"/>
      <point x="258.0" y="488.0" type="line"/>
      <point x="208.0" y="488.0" type="line"/>
    </contour>
    <contour>
      <point x="221.0" y="467.0" type="line"/>
      <point x="246.0" y="510.0" type="line"/>
      <point x="79.0" y="651.0" type="line"/>
      <point x="14.0" y="535.0" type="line"/>
    </contour>
    <contour>
      <point x="385.0" y="320.0" type="line"/>
      <point x="451.0" y="437.0" type="line"/>
      <point x="246.0" y="507.0" type="line"/>
      <point x="219.0" y="463.0" type="line"/>
    </contour>
    <contour>
      <point x="208.0" y="488.0" type="line"/>
      <point x="258.0" y="488.0" type="line"/>
      <point x="306.0" y="704.0" type="line"/>
      <point x="157.0" y="704.0" type="line"/>
    </contour>
  </outline>
</glyph>
<glyph name="plus" format="2">
  <advance width="606.0"/>
  <unicode hex="002B"/>
  <outline>
    <contour>
      <point x="224.0" y="59.0" type="line"/>
      <point x="384.0" y="59.0" type="line"/>
      <point x="384.0" y="593.0" type="line"/>
      <point x="224.0" y="593.0" type="line"/>
    </contour>
    <contour>
      <point x="36.0" y="251.0" type="line"/>
      <point x="570.0" y="251.0" type="line"/>
      <point x="570.0" y="406.0" type="line"/>
      <point x="36.0" y="406.0" type="line"/>
    </contour>
  </outline>
</glyph>
<glyph name="comma" format="2">
  <advance width="286"/>
  <unicode hex="002C"/>
  <outline>
    <contour>
      <point x="31" y="-179" type="curve"/>
      <point x="183" y="-179" type="line"/>
      <point x="226" y="-83"/>
      <point x="253" y="46"/>
      <point x="253" y="144" type="curve"/>
      <point x="75" y="144" type="line"/>
      <point x="75" y="39"/>
      <point x="56" y="-90"/>
    </contour>
  </outline>
</glyph>
<glyph name="hyphen" format="2">
  <advance width="386"/>
  <unicode hex="002D"/>
  <unicode hex="00AD"/>
  <unicode hex="2010"/>
  <unicode hex="2011"/>
  <outline>
    <contour>
      <point x="43" y="191" type="line"/>
      <point x="343" y="191" type="line"/>
      <point x="343" y="331" type="line"/>
      <point x="43" y="331" type="line"/>
    </contour>
  </outline>
</glyph>
<glyph name="period" format="2">
  <advance width="270"/>
  <unicode hex="002E"/>
  <outline>
    <contour>
      <point x="135" y="-10" type="curve" smooth="yes"/>
      <point x="199" y="-10"/>
      <point x="241" y="36"/>
      <point x="241" y="96" type="curve" smooth="yes"/>
      <point x="241" y="160"/>
      <point x="199" y="206"/>
      <point x="135" y="206" type="curve" smooth="yes"/>
      <point x="71" y="206"/>
      <point x="29" y="160"/>
      <point x="29" y="96" type="curve" smooth="yes"/>
      <point x="29" y="36"/>
      <point x="71" y="-10"/>
    </contour>
  </outline>
</glyph>
<glyph name="slash" format="2">
  <advance width="364.0"/>
  <unicode hex="002F"/>
  <outline>
    <contour>
      <point x="-10.0" y="-115.0" type="line"/>
      <point x="148.0" y="-115.0" type="line"/>
      <point x="375.0" y="739.0" type="line"/>
      <point x="206.0" y="739.0" type="line"/>
    </contour>
  </outline>
</glyph>
<glyph name="zero" format="2">
  <advance width="628"/>
  <unicode hex="0030"/>
  <anchor x="316" y="345" name="slash"/>
  <outline>
    <contour>
      <point x="312" y="-10" type="curve" smooth="yes"/>
      <point x="488" y="-10"/>
      <point x="607" y="134"/>
      <point x="607" y="351" type="curve" smooth="yes"/>
      <point x="607" y="563"/>
      <point x="490" y="704"/>
      <point x="317" y="704" type="curve" smooth="yes"/>
      <point x="140" y="704"/>
      <point x="21" y="560"/>
      <point x="21" y="344" type="curve" smooth="yes"/>
      <point x="21" y="132"/>
      <point x="138" y="-10"/>
    </contour>
    <contour>
      <point x="316" y="138" type="curve" smooth="yes"/>
      <point x="245" y="138"/>
      <point x="199" y="223"/>
      <point x="199" y="350" type="curve" smooth="yes"/>
      <point x="199" y="474"/>
      <point x="245" y="556"/>
      <point x="313" y="556" type="curve" smooth="yes"/>
      <point x="382" y="556"/>
      <point x="429" y="471"/>
      <point x="429" y="343" type="curve" smooth="yes"/>
      <point x="429" y="220"/>
      <point x="383" y="138"/>
    </contour>
  </outline>
</glyph>
<glyph name="one" format="2">
  <advance width="410"/>
  <unicode hex="0031"/>
  <outline>
    <contour>
      <point x="170" y="0" type="line"/>
      <point x="343" y="0" type="line"/>
      <point x="343" y="694" type="line"/>
      <point x="240" y="694" type="line"/>
      <point x="1" y="556" type="line"/>
      <point x="66" y="432" type="line"/>
      <point x="224" y="514" type="line"/>
      <point x="170" y="569" type="line"/>
    </contour>
  </outline>
</glyph>
<glyph name="two" format="2">
  <advance width="563"/>
  <unicode hex="0032"/>
  <outline>
    <contour>
      <point x="40" y="0" type="line"/>
      <point x="534" y="0" type="line"/>
      <point x="534" y="154" type="line"/>
      <point x="234" y="154" type="line"/>
      <point x="230" y="111" type="line"/>
      <point x="419" y="248"/>
      <point x="511" y="373"/>
      <point x="511" y="493" type="curve" smooth="yes"/>
      <point x="511" y="620"/>
      <point x="411" y="704"/>
      <point x="255" y="704" type="curve" smooth="yes"/>
      <point x="165" y="704"/>
      <point x="81" y="676"/>
      <point x="14" y="623" type="curve"/>
      <point x="58" y="501" type="line"/>
      <point x="111" y="532"/>
      <point x="168" y="552"/>
      <point x="222" y="552" type="curve" smooth="yes"/>
      <point x="292" y="552"/>
      <point x="335" y="518"/>
      <point x="335" y="463" type="curve" smooth="yes"/>
      <point x="335" y="388"/>
      <point x="254" y="294"/>
      <point x="40" y="119" type="curve"/>
    </contour>
  </outline>
</glyph>
<glyph name="three" format="2">
  <advance width="575"/>
  <unicode hex="0033"/>
  <outline>
    <contour>
      <point x="253" y="-10" type="curve" smooth="yes"/>
      <point x="429" y="-10"/>
      <point x="554" y="75"/>
      <point x="554" y="195" type="curve" smooth="yes"/>
      <point x="554" y="281"/>
      <point x="487" y="360"/>
      <point x="374" y="370" type="curve"/>
      <point x="348" y="360" type="line"/>
      <point x="449" y="359"/>
      <point x="521" y="424"/>
      <point x="521" y="518" type="curve" smooth="yes"/>
      <point x="521" y="630"/>
      <point x="419" y="704"/>
      <point x="267" y="704" type="curve" smooth="yes"/>
      <point x="187" y="704"/>
      <point x="101" y="684"/>
      <point x="24" y="643" type="curve"/>
      <point x="64" y="513" type="line"/>
      <point x="126" y="540"/>
      <point x="181" y="554"/>
      <point x="229" y="554" type="curve" smooth="yes"/>
      <point x="295" y="554"/>
      <point x="342" y="528"/>
      <point x="342" y="486" type="curve" smooth="yes"/>
      <point x="342" y="443"/>
      <point x="298" y="419"/>
      <point x="224" y="419" type="curve" smooth="yes"/>
      <point x="157" y="419" type="line"/>
      <point x="157" y="281" type="line"/>
      <point x="236" y="281" type="line" smooth="yes"/>
      <point x="329" y="281"/>
      <point x="375" y="255"/>
      <point x="375" y="209" type="curve" smooth="yes"/>
      <point x="375" y="163"/>
      <point x="329" y="140"/>
      <point x="249" y="140" type="curve" smooth="yes"/>
      <point x="190" y="140"/>
      <point x="117" y="153"/>
      <point x="58" y="176" type="curve"/>
      <point x="19" y="40" type="line"/>
      <point x="93" y="7"/>
      <point x="172" y="-10"/>
    </contour>
  </outline>
</glyph>
<glyph name="four" format="2">
  <advance width="609"/>
  <unicode hex="0034"/>
  <outline>
    <contour>
      <point x="316" y="-5" type="line"/>
      <point x="485" y="-5" type="line"/>
      <point x="485" y="694" type="line"/>
      <point x="321" y="694" type="line"/>
      <point x="-2" y="215" type="line"/>
      <point x="-2" y="124" type="line"/>
      <point x="607" y="124" type="line"/>
      <point x="607" y="270" type="line"/>
      <point x="86" y="272" type="line"/>
      <point x="136" y="217" type="line"/>
      <point x="337" y="534" type="line"/>
      <point x="316" y="583" type="line"/>
    </contour>
  </outline>
</glyph>
<glyph name="five" format="2">
  <advance width="572"/>
  <unicode hex="0035"/>
  <outline>
    <contour>
      <point x="246" y="-10" type="curve" smooth="yes"/>
      <point x="428" y="-10"/>
      <point x="546" y="81"/>
      <point x="546" y="228" type="curve" smooth="yes"/>
      <point x="546" y="362"/>
      <point x="447" y="447"/>
      <point x="294" y="447" type="curve" smooth="yes"/>
      <point x="243" y="447"/>
      <point x="218" y="443"/>
      <point x="174" y="429" type="curve"/>
      <point x="222" y="366" type="line"/>
      <point x="230" y="543" type="line"/>
      <point x="508" y="543" type="line"/>
      <point x="508" y="694" type="line"/>
      <point x="80" y="694" type="line"/>
      <point x="62" y="294" type="line"/>
      <point x="114" y="306"/>
      <point x="174" y="313"/>
      <point x="220" y="313" type="curve" smooth="yes"/>
      <point x="319" y="313"/>
      <point x="373" y="280"/>
      <point x="373" y="221" type="curve" smooth="yes"/>
      <point x="373" y="168"/>
      <point x="327" y="138"/>
      <point x="244" y="138" type="curve" smooth="yes"/>
      <point x="185" y="138"/>
      <point x="118" y="154"/>
      <point x="68" y="178" type="curve"/>
      <point x="21" y="42" type="line"/>
      <point x="88" y="8"/>
      <point x="165" y="-10"/>
    </contour>
  </outline>
</glyph>
<glyph name="six" format="2">
  <advance width="596"/>
  <unicode hex="0036"/>
  <outline>
    <contour>
      <point x="305" y="-10" type="curve" smooth="yes"/>
      <point x="465" y="-10"/>
      <point x="571" y="87"/>
      <point x="571" y="232" type="curve" smooth="yes"/>
      <point x="571" y="362"/>
      <point x="488" y="446"/>
      <point x="364" y="446" type="curve" smooth="yes"/>
      <point x="272" y="446"/>
      <point x="199" y="402"/>
      <point x="156" y="315" type="curve"/>
      <point x="199" y="255" type="line"/>
      <point x="228" y="289"/>
      <point x="269" y="309"/>
      <point x="310" y="309" type="curve" smooth="yes"/>
      <point x="366" y="309"/>
      <point x="403" y="273"/>
      <point x="403" y="219" type="curve" smooth="yes"/>
      <point x="403" y="167"/>
      <point x="369" y="133"/>
      <point x="317" y="133" type="curve" smooth="yes"/>
      <point x="241" y="133"/>
      <point x="198" y="211"/>
      <point x="198" y="344" type="curve" smooth="yes"/>
      <point x="198" y="487"/>
      <point x="259" y="564"/>
      <point x="373" y="564" type="curve" smooth="yes"/>
      <point x="418" y="564"/>
      <point x="475" y="552"/>
      <point x="516" y="534" type="curve"/>
      <point x="560" y="663" type="line"/>
      <point x="507" y="689"/>
      <point x="441" y="704"/>
      <point x="366" y="704" type="curve" smooth="yes"/>
      <point x="145" y="704"/>
      <point x="28" y="569"/>
      <point x="28" y="330" type="curve" smooth="yes"/>
      <point x="28" y="107"/>
      <point x="129" y="-10"/>
    </contour>
  </outline>
</glyph>
<glyph name="seven" format="2">
  <advance width="517"/>
  <unicode hex="0037"/>
  <outline>
    <contour>
      <point x="56" y="0" type="line"/>
      <point x="239" y="0" type="line"/>
      <point x="518" y="612" type="line"/>
      <point x="518" y="694" type="line"/>
      <point x="3" y="694" type="line"/>
      <point x="3" y="544" type="line"/>
      <point x="365" y="544" type="line"/>
      <point x="329" y="589" type="line"/>
    </contour>
  </outline>
</glyph>
<glyph name="eight" format="2">
  <advance width="592"/>
  <unicode hex="0038"/>
  <outline>
    <contour>
      <point x="292" y="-10" type="curve" smooth="yes"/>
      <point x="460" y="-10"/>
      <point x="572" y="74"/>
      <point x="572" y="201" type="curve" smooth="yes"/>
      <point x="572" y="429"/>
      <point x="215" y="378"/>
      <point x="215" y="504" type="curve" smooth="yes"/>
      <point x="215" y="543"/>
      <point x="240" y="564"/>
      <point x="294" y="564" type="curve" smooth="yes"/>
      <point x="351" y="564"/>
      <point x="383" y="541"/>
      <point x="383" y="499" type="curve" smooth="yes"/>
      <point x="383" y="457"/>
      <point x="350" y="424"/>
      <point x="303" y="411" type="curve"/>
      <point x="403" y="371" type="line"/>
      <point x="492" y="391"/>
      <point x="548" y="453"/>
      <point x="548" y="531" type="curve" smooth="yes"/>
      <point x="548" y="634"/>
      <point x="450" y="704"/>
      <point x="303" y="704" type="curve" smooth="yes"/>
      <point x="145" y="704"/>
      <point x="43" y="620"/>
      <point x="43" y="495" type="curve" smooth="yes"/>
      <point x="43" y="262"/>
      <point x="402" y="313"/>
      <point x="402" y="191" type="curve" smooth="yes"/>
      <point x="402" y="152"/>
      <point x="367" y="132"/>
      <point x="303" y="132" type="curve" smooth="yes"/>
      <point x="232" y="132"/>
      <point x="192" y="159"/>
      <point x="192" y="213" type="curve" smooth="yes"/>
      <point x="192" y="260"/>
      <point x="221" y="293"/>
      <point x="278" y="305" type="curve"/>
      <point x="200" y="357" type="line"/>
      <point x="90" y="338"/>
      <point x="22" y="273"/>
      <point x="22" y="182" type="curve" smooth="yes"/>
      <point x="22" y="67"/>
      <point x="129" y="-10"/>
    </contour>
  </outline>
</glyph>
<glyph name="equal" format="2">
  <advance width="666.0"/>
  <unicode hex="003D"/>
  <outline>
    <contour>
      <point x="80.0" y="371.0" type="line"/>
      <point x="586.0" y="371.0" type="line"/>
      <point x="586.0" y="521.0" type="line"/>
      <point x="80.0" y="521.0" type="line"/>
    </contour>
    <contour>
      <point x="80.0" y="131.0" type="line"/>
      <point x="586.0" y="131.0" type="line"/>
      <point x="586.0" y="281.0" type="line"/>
      <point x="80.0" y="281.0" type="line"/>
    </contour>
  </outline>
</glyph>
<glyph name="greater" format="2">
  <advance width="569"/>
  <unicode hex="003E"/>
  <outline>
    <contour>
      <point x="61" y="71" type="line"/>
      <point x="537" y="266" type="line"/>
      <point x="537" y="400" type="line"/>
      <point x="61" y="620" type="line"/>
      <point x="61" y="445" type="line"/>
      <point x="382" y="317" type="line"/>
      <point x="382" y="345" type="line"/>
      <point x="61" y="237" type="line"/>
    </contour>
  </outline>
</glyph>
<glyph name="question" format="2">
  <advance width="470"/>
  <unicode hex="003F"/>
  <outline>
    <contour>
      <point x="153" y="267" type="line"/>
      <point x="328" y="267" type="line"/>
      <point x="328" y="294" type="line" smooth="yes"/>
      <point x="328" y="350"/>
      <point x="457" y="382"/>
      <point x="457" y="523" type="curve" smooth="yes"/>
      <point x="457" y="639"/>
      <point x="371" y="704"/>
      <point x="219" y="704" type="curve" smooth="yes"/>
      <point x="145" y="704"/>
      <point x="70" y="687"/>
      <point x="6" y="659" type="curve"/>
      <point x="46" y="528" type="line"/>
      <point x="88" y="546"/>
      <point x="131" y="554"/>
      <point x="175" y="554" type="curve" smooth="yes"/>
      <point x="241" y="554"/>
      <point x="277" y="535"/>
      <point x="277" y="499" type="curve" smooth="yes"/>
      <point x="277" y="432"/>
      <point x="153" y="388"/>
      <point x="153" y="294" type="curve" smooth="yes"/>
    </contour>
    <contour>
      <point x="239" y="-10" type="curve" smooth="yes"/>
      <point x="301" y="-10"/>
      <point x="345" y="34"/>
      <point x="345" y="96" type="curve" smooth="yes"/>
      <point x="345" y="161"/>
      <point x="302" y="206"/>
      <point x="239" y="206" type="curve" smooth="yes"/>
      <point x="176" y="206"/>
      <point x="133" y="161"/>
      <point x="133" y="96" type="curve" smooth="yes"/>
      <point x="133" y="34"/>
      <point x="177" y="-10"/>
    </contour>
  </outline>
</glyph>
<glyph name="at" format="2">
  <advance width="964.0"/>
  <unicode hex="0040"/>
  <outline>
    <contour>
      <point x="458.0" y="-175.0" type="curve" smooth="yes"/>
      <point x="535.0" y="-175.0"/>
      <point x="608.0" y="-159.0"/>
      <point x="677.0" y="-125.0" type="curve"/>
      <point x="641.0" y="-18.0" type="line"/>
      <point x="592.0" y="-43.0"/>
      <point x="533.0" y="-56.0"/>
      <point x="474.0" y="-56.0" type="curve" smooth="yes"/>
      <point x="293.0" y="-56.0"/>
      <point x="172.0" y="68.0"/>
      <point x="172.0" y="255.0" type="curve" smooth="yes"/>
      <point x="172.0" y="446.0"/>
      <point x="299.0" y="580.0"/>
      <point x="491.0" y="580.0" type="curve" smooth="yes"/>
      <point x="674.0" y="580.0"/>
      <point x="795.0" y="459.0"/>
      <point x="795.0" y="272.0" type="curve" smooth="yes"/>
      <point x="795.0" y="189.0"/>
      <point x="771.0" y="132.0"/>
      <point x="736.0" y="132.0" type="curve" smooth="yes"/>
      <point x="713.0" y="132.0"/>
      <point x="695.0" y="157.0"/>
      <point x="695.0" y="191.0" type="curve"/>
      <point x="548.0" y="191.0" type="line"/>
      <point x="548.0" y="91.0"/>
      <point x="623.0" y="22.0"/>
      <point x="723.0" y="22.0" type="curve" smooth="yes"/>
      <point x="849.0" y="22.0"/>
      <point x="932.0" y="132.0"/>
      <point x="932.0" y="300.0" type="curve" smooth="yes"/>
      <point x="932.0" y="541.0"/>
      <point x="759.0" y="704.0"/>
      <point x="500.0" y="704.0" type="curve" smooth="yes"/>
      <point x="223.0" y="704.0"/>
      <point x="35.0" y="522.0"/>
      <point x="35.0" y="251.0" type="curve" smooth="yes"/>
      <point x="35.0" y="-8.0"/>
      <point x="208.0" y="-175.0"/>
    </contour>
    <contour>
      <point x="435.0" y="37.0" type="curve" smooth="yes"/>
      <point x="495.0" y="37.0"/>
      <point x="552.0" y="61.0"/>
      <point x="595.0" y="107.0" type="curve"/>
      <point x="553.0" y="205.0" type="line"/>
      <point x="534.0" y="173.0"/>
      <point x="504.0" y="157.0"/>
      <point x="479.0" y="157.0" type="curve" smooth="yes"/>
      <point x="437.0" y="157.0"/>
      <point x="413.0" y="196.0"/>
      <point x="413.0" y="256.0" type="curve" smooth="yes"/>
      <point x="413.0" y="320.0"/>
      <point x="441.0" y="366.0"/>
      <point x="482.0" y="366.0" type="curve" smooth="yes"/>
      <point x="516.0" y="366.0"/>
      <point x="546.0" y="337.0"/>
      <point x="553.0" y="296.0" type="curve"/>
      <point x="613.0" y="359.0" type="line"/>
      <point x="609.0" y="440.0"/>
      <point x="557.0" y="486.0"/>
      <point x="471.0" y="486.0" type="curve" smooth="yes"/>
      <point x="342.0" y="486.0"/>
      <point x="245.0" y="382.0"/>
      <point x="245.0" y="242.0" type="curve" smooth="yes"/>
      <point x="245.0" y="119.0"/>
      <point x="321.0" y="37.0"/>
    </contour>
    <contour>
      <point x="545.0" y="172.0" type="line"/>
      <point x="693.0" y="172.0" type="line"/>
      <point x="715.0" y="474.0" type="line"/>
      <point x="592.0" y="474.0" type="line"/>
      <point x="559.0" y="383.0" type="line"/>
    </contour>
  </outline>
</glyph>
<glyph name="A" format="2">
  <advance width="708"/>
  <unicode hex="0041"/>
  <note>
A
</note>
  <anchor x="353" y="0" name="bottom"/>
  <anchor x="659" y="10" name="ogonek"/>
  <anchor x="353" y="694" name="top"/>
  <outline>
    <contour>
      <point x="1" y="0" type="line"/>
      <point x="186" y="0" type="line"/>
      <point x="370" y="620" type="line"/>
      <point x="322" y="620" type="line"/>
      <point x="515" y="0" type="line"/>
      <point x="706" y="0" type="line"/>
      <point x="469" y="694" type="line"/>
      <point x="248" y="694" type="line"/>
    </contour>
    <contour>
      <point x="194" y="143" type="line"/>
      <point x="512" y="143" type="line"/>
      <point x="476" y="299" type="line"/>
      <point x="229" y="299" type="line"/>
    </contour>
  </outline>
</glyph>
<glyph name="B" format="2">
  <advance width="640"/>
  <unicode hex="0042"/>
  <note>
B
</note>
  <anchor x="306" y="0" name="bottom"/>
  <anchor x="306" y="694" name="top"/>
  <outline>
    <contour>
      <point x="55" y="0" type="line"/>
      <point x="331" y="0" type="line" smooth="yes"/>
      <point x="506" y="0"/>
      <point x="622" y="91"/>
      <point x="622" y="227" type="curve" smooth="yes"/>
      <point x="622" y="350"/>
      <point x="533" y="424"/>
      <point x="382" y="424" type="curve" smooth="yes"/>
      <point x="168" y="424" type="line"/>
      <point x="168" y="292" type="line"/>
      <point x="344" y="292" type="line" smooth="yes"/>
      <point x="406" y="292"/>
      <point x="442" y="260"/>
      <point x="442" y="210" type="curve" smooth="yes"/>
      <point x="442" y="161"/>
      <point x="412" y="136"/>
      <point x="354" y="136" type="curve" smooth="yes"/>
      <point x="225" y="136" type="line"/>
      <point x="225" y="558" type="line"/>
      <point x="293" y="558" type="line" smooth="yes"/>
      <point x="351" y="558"/>
      <point x="389" y="530"/>
      <point x="389" y="488" type="curve" smooth="yes"/>
      <point x="389" y="450"/>
      <point x="358" y="418"/>
      <point x="302" y="401" type="curve"/>
      <point x="436" y="374" type="line"/>
      <point x="513" y="394"/>
      <point x="563" y="457"/>
      <point x="563" y="531" type="curve" smooth="yes"/>
      <point x="563" y="638"/>
      <point x="474" y="694"/>
      <point x="303" y="694" type="curve" smooth="yes"/>
      <point x="55" y="694" type="line"/>
    </contour>
  </outline>
</glyph>
<glyph name="C" format="2">
  <advance width="624.0"/>
  <unicode hex="0043"/>
  <note>
C
</note>
  <anchor x="349.0" y="0.0" name="bottom"/>
  <anchor x="349.0" y="694.0" name="top"/>
  <outline>
    <contour>
      <point x="383.0" y="-10.0" type="curve" smooth="yes"/>
      <point x="459.0" y="-10.0"/>
      <point x="545.0" y="10.0"/>
      <point x="598.0" y="39.0" type="curve"/>
      <point x="560.0" y="164.0" type="line"/>
      <point x="520.0" y="150.0"/>
      <point x="469.0" y="142.0"/>
      <point x="425.0" y="142.0" type="curve" smooth="yes"/>
      <point x="285.0" y="142.0"/>
      <point x="205.0" y="224.0"/>
      <point x="205.0" y="359.0" type="curve" smooth="yes"/>
      <point x="205.0" y="486.0"/>
      <point x="276.0" y="551.0"/>
      <point x="403.0" y="551.0" type="curve" smooth="yes"/>
      <point x="458.0" y="551.0"/>
      <point x="521.0" y="541.0"/>
      <point x="559.0" y="525.0" type="curve"/>
      <point x="607.0" y="661.0" type="line"/>
      <point x="540.0" y="690.0"/>
      <point x="475.0" y="704.0"/>
      <point x="405.0" y="704.0" type="curve" smooth="yes"/>
      <point x="181.0" y="704.0"/>
      <point x="25.0" y="560.0"/>
      <point x="25.0" y="342.0" type="curve" smooth="yes"/>
      <point x="25.0" y="131.0"/>
      <point x="171.0" y="-10.0"/>
    </contour>
  </outline>
</glyph>
<glyph name="D" format="2">
  <advance width="721"/>
  <unicode hex="0044"/>
  <note>
D
</note>
  <anchor x="346" y="0" name="bottom"/>
  <anchor x="164" y="344" name="center"/>
  <anchor x="323" y="694" name="top"/>
  <outline>
    <contour>
      <point x="55" y="0" type="line"/>
      <point x="302" y="0" type="line" smooth="yes"/>
      <point x="540" y="0"/>
      <point x="697" y="143"/>
      <point x="697" y="361" type="curve" smooth="yes"/>
      <point x="697" y="570"/>
      <point x="555" y="694"/>
      <point x="315" y="694" type="curve" smooth="yes"/>
      <point x="55" y="694" type="line"/>
    </contour>
    <contour>
      <point x="225" y="149" type="line"/>
      <point x="225" y="545" type="line"/>
      <point x="305" y="545" type="line" smooth="yes"/>
      <point x="438" y="545"/>
      <point x="517" y="469"/>
      <point x="517" y="341" type="curve" smooth="yes"/>
      <point x="517" y="217"/>
      <point x="448" y="149"/>
      <point x="322" y="149" type="curve" smooth="yes"/>
    </contour>
  </outline>
</glyph>
<glyph name="E" format="2">
  <advance width="610"/>
  <unicode hex="0045"/>
  <note>
E
</note>
  <anchor x="320" y="0" name="bottom"/>
  <anchor x="518" y="10" name="ogonek"/>
  <anchor x="313" y="694" name="top"/>
  <anchor x="15" y="694" name="topleft"/>
  <outline>
    <contour>
      <point x="67" y="0" type="line"/>
      <point x="240" y="0" type="line"/>
      <point x="240" y="694" type="line"/>
      <point x="67" y="694" type="line"/>
    </contour>
    <contour>
      <point x="147" y="0" type="line"/>
      <point x="565" y="0" type="line"/>
      <point x="565" y="152" type="line"/>
      <point x="147" y="152" type="line"/>
    </contour>
    <contour>
      <point x="147" y="276" type="line"/>
      <point x="537" y="276" type="line"/>
      <point x="537" y="428" type="line"/>
      <point x="147" y="428" type="line"/>
    </contour>
    <contour>
      <point x="147" y="542" type="line"/>
      <point x="565" y="542" type="line"/>
      <point x="565" y="694" type="line"/>
      <point x="147" y="694" type="line"/>
    </contour>
  </outline>
</glyph>
<glyph name="F" format="2">
  <advance width="583.0"/>
  <unicode hex="0046"/>
  <note>
F
</note>
  <anchor x="171.0" y="0.0" name="bottom"/>
  <anchor x="278.0" y="694.0" name="top"/>
  <outline>
    <contour>
      <point x="67.0" y="0.0" type="line"/>
      <point x="243.0" y="0.0" type="line"/>
      <point x="243.0" y="694.0" type="line"/>
      <point x="67.0" y="694.0" type="line"/>
    </contour>
    <contour>
      <point x="147.0" y="257.0" type="line"/>
      <point x="526.0" y="257.0" type="line"/>
      <point x="526.0" y="409.0" type="line"/>
      <point x="147.0" y="409.0" type="line"/>
    </contour>
    <contour>
      <point x="147.0" y="542.0" type="line"/>
      <point x="562.0" y="542.0" type="line"/>
      <point x="562.0" y="694.0" type="line"/>
      <point x="147.0" y="694.0" type="line"/>
    </contour>
  </outline>
</glyph>
<glyph name="G" format="2">
  <advance width="711"/>
  <unicode hex="0047"/>
  <note>
G
</note>
  <anchor x="350" y="0" name="bottom"/>
  <anchor x="370" y="694" name="top"/>
  <outline>
    <contour>
      <point x="388" y="-10" type="curve" smooth="yes"/>
      <point x="498" y="-10"/>
      <point x="592" y="23"/>
      <point x="670" y="89" type="curve"/>
      <point x="670" y="411" type="line"/>
      <point x="358" y="411" type="line"/>
      <point x="358" y="265" type="line"/>
      <point x="505" y="265" type="line"/>
      <point x="505" y="79" type="line"/>
      <point x="531" y="180" type="line"/>
      <point x="508" y="155"/>
      <point x="464" y="140"/>
      <point x="409" y="140" type="curve" smooth="yes"/>
      <point x="284" y="140"/>
      <point x="206" y="221"/>
      <point x="206" y="353" type="curve" smooth="yes"/>
      <point x="206" y="482"/>
      <point x="281" y="551"/>
      <point x="422" y="551" type="curve" smooth="yes"/>
      <point x="481" y="551"/>
      <point x="550" y="540"/>
      <point x="596" y="524" type="curve"/>
      <point x="644" y="660" type="line"/>
      <point x="585" y="688"/>
      <point x="506" y="704"/>
      <point x="427" y="704" type="curve" smooth="yes"/>
      <point x="181" y="704"/>
      <point x="24" y="556"/>
      <point x="24" y="339" type="curve" smooth="yes"/>
      <point x="24" y="130"/>
      <point x="170" y="-10"/>
    </contour>
  </outline>
</glyph>
<glyph name="H" format="2">
  <advance width="731"/>
  <unicode hex="0048"/>
  <note>
H
</note>
  <anchor x="365" y="0" name="bottom"/>
  <anchor x="365" y="566" name="center"/>
  <anchor x="365" y="694" name="top"/>
  <anchor x="-5" y="694" name="topleft"/>
  <outline>
    <contour>
      <point x="500" y="0" type="line"/>
      <point x="676" y="0" type="line"/>
      <point x="676" y="694" type="line"/>
      <point x="500" y="694" type="line"/>
    </contour>
    <contour>
      <point x="55" y="0" type="line"/>
      <point x="231" y="0" type="line"/>
      <point x="231" y="694" type="line"/>
      <point x="55" y="694" type="line"/>
    </contour>
    <contour>
      <point x="210" y="274" type="line"/>
      <point x="520" y="274" type="line"/>
      <point x="520" y="430" type="line"/>
      <point x="210" y="430" type="line"/>
    </contour>
  </outline>
</glyph>
<glyph name="I" format="2">
  <advance width="310"/>
  <unicode hex="0049"/>
  <note>
I
</note>
  <anchor x="155" y="0" name="bottom"/>
  <anchor x="196" y="10" name="ogonek"/>
  <anchor x="155" y="694" name="top"/>
  <anchor x="24" y="694" name="topleft"/>
  <outline>
    <contour>
      <point x="67" y="0" type="line"/>
      <point x="243" y="0" type="line"/>
      <point x="243" y="694" type="line"/>
      <point x="67" y="694" type="line"/>
    </contour>
  </outline>
</glyph>
<glyph name="J" format="2">
  <advance width="455.0"/>
  <unicode hex="004A"/>
  <note>
J
</note>
  <anchor x="234.0" y="0.0" name="bottom"/>
  <anchor x="310.0" y="694.0" name="top"/>
  <outline>
    <contour>
      <point x="158.0" y="-10.0" type="curve" smooth="yes"/>
      <point x="311.0" y="-10.0"/>
      <point x="399.0" y="83.0"/>
      <point x="399.0" y="243.0" type="curve" smooth="yes"/>
      <point x="399.0" y="694.0" type="line"/>
      <point x="225.0" y="694.0" type="line"/>
      <point x="225.0" y="233.0" type="line" smooth="yes"/>
      <point x="225.0" y="173.0"/>
      <point x="197.0" y="143.0"/>
      <point x="142.0" y="143.0" type="curve" smooth="yes"/>
      <point x="114.0" y="143.0"/>
      <point x="79.0" y="151.0"/>
      <point x="53.0" y="162.0" type="curve"/>
      <point x="4.0" y="26.0" type="line"/>
      <point x="48.0" y="2.0"/>
      <point x="101.0" y="-10.0"/>
    </contour>
  </outline>
</glyph>
<glyph name="K" format="2">
  <advance width="686.0"/>
  <unicode hex="004B"/>
  <note>
K
</note>
  <anchor x="338.0" y="0.0" name="bottom"/>
  <anchor x="338.0" y="694.0" name="top"/>
  <outline>
    <contour>
      <point x="466.0" y="0.0" type="line"/>
      <point x="698.0" y="0.0" type="line"/>
      <point x="431.0" y="394.0" type="line"/>
      <point x="434.0" y="360.0" type="line"/>
      <point x="682.0" y="694.0" type="line"/>
      <point x="473.0" y="694.0" type="line"/>
      <point x="233.0" y="363.0" type="line"/>
    </contour>
    <contour>
      <point x="68.0" y="0.0" type="line"/>
      <point x="246.0" y="0.0" type="line"/>
      <point x="246.0" y="694.0" type="line"/>
      <point x="68.0" y="694.0" type="line"/>
    </contour>
  </outline>
</glyph>
<glyph name="L" format="2">
  <advance width="537.0"/>
  <unicode hex="004C"/>
  <note>
L
</note>
  <anchor x="268.0" y="0.0" name="bottom"/>
  <anchor x="166.0" y="377.0" name="center"/>
  <anchor x="537.0" y="352.0" name="periodcentered"/>
  <anchor x="152.0" y="694.0" name="top"/>
  <anchor x="367.0" y="490.0" name="topright"/>
  <outline>
    <contour>
      <point x="67.0" y="0.0" type="line"/>
      <point x="527.0" y="0.0" type="line"/>
      <point x="527.0" y="153.0" type="line"/>
      <point x="240.0" y="153.0" type="line"/>
      <point x="240.0" y="694.0" type="line"/>
      <point x="67.0" y="694.0" type="line"/>
    </contour>
  </outline>
</glyph>
<glyph name="M" format="2">
  <advance width="892"/>
  <unicode hex="004D"/>
  <note>
M
</note>
  <anchor x="447" y="0" name="bottom"/>
  <anchor x="447" y="694" name="top"/>
  <outline>
    <contour>
      <point x="67" y="0" type="line"/>
      <point x="235" y="0" type="line"/>
      <point x="235" y="458" type="line"/>
      <point x="214" y="431" type="line"/>
      <point x="379" y="107" type="line"/>
      <point x="510" y="107" type="line"/>
      <point x="668" y="431" type="line"/>
      <point x="657" y="453" type="line"/>
      <point x="657" y="0" type="line"/>
      <point x="825" y="0" type="line"/>
      <point x="825" y="694" type="line"/>
      <point x="660" y="694" type="line"/>
      <point x="419" y="222" type="line"/>
      <point x="490" y="222" type="line"/>
      <point x="234" y="694" type="line"/>
      <point x="67" y="694" type="line"/>
    </contour>
  </outline>
</glyph>
<glyph name="N" format="2">
  <advance width="780"/>
  <unicode hex="004E"/>
  <note>
N
</note>
  <anchor x="389" y="0" name="bottom"/>
  <anchor x="389" y="694" name="top"/>
  <outline>
    <contour>
      <point x="67" y="0" type="line"/>
      <point x="231" y="0" type="line"/>
      <point x="231" y="480" type="line"/>
      <point x="222" y="470" type="line"/>
      <point x="519" y="0" type="line"/>
      <point x="713" y="0" type="line"/>
      <point x="713" y="694" type="line"/>
      <point x="547" y="694" type="line"/>
      <point x="545" y="206" type="line"/>
      <point x="561" y="216" type="line"/>
      <point x="265" y="694" type="line"/>
      <point x="67" y="694" type="line"/>
    </contour>
  </outline>
</glyph>
<glyph name="O" format="2">
  <advance width="756"/>
  <unicode hex="004F"/>
  <note>
O
</note>
  <anchor x="562" y="141" name="Qtail"/>
  <anchor x="378" y="0" name="bottom"/>
  <anchor x="401" y="347" name="center"/>
  <anchor x="463" y="10" name="ogonek"/>
  <anchor x="378" y="694" name="top"/>
  <anchor x="81" y="694" name="topleft"/>
  <anchor x="624" y="694" name="topright"/>
  <outline>
    <contour>
      <point x="371" y="-10" type="curve" smooth="yes"/>
      <point x="588" y="-10"/>
      <point x="732" y="134"/>
      <point x="732" y="351" type="curve" smooth="yes"/>
      <point x="732" y="563"/>
      <point x="592" y="704"/>
      <point x="382" y="704" type="curve" smooth="yes"/>
      <point x="167" y="704"/>
      <point x="24" y="559"/>
      <point x="24" y="341" type="curve" smooth="yes"/>
      <point x="24" y="130"/>
      <point x="163" y="-10"/>
    </contour>
    <contour>
      <point x="382" y="140" type="curve" smooth="yes"/>
      <point x="275" y="140"/>
      <point x="204" y="224"/>
      <point x="204" y="351" type="curve" smooth="yes"/>
      <point x="204" y="473"/>
      <point x="271" y="554"/>
      <point x="371" y="554" type="curve" smooth="yes"/>
      <point x="480" y="554"/>
      <point x="552" y="469"/>
      <point x="552" y="341" type="curve" smooth="yes"/>
      <point x="552" y="220"/>
      <point x="484" y="140"/>
    </contour>
  </outline>
</glyph>
<glyph name="P" format="2">
  <advance width="626.0"/>
  <unicode hex="0050"/>
  <note>
P
</note>
  <anchor x="325.0" y="0.0" name="bottom"/>
  <anchor x="325.0" y="694.0" name="top"/>
  <outline>
    <contour>
      <point x="67.0" y="0.0" type="line"/>
      <point x="240.0" y="0.0" type="line"/>
      <point x="240.0" y="694.0" type="line"/>
      <point x="67.0" y="694.0" type="line"/>
    </contour>
    <contour>
      <point x="176.0" y="204.0" type="line"/>
      <point x="297.0" y="204.0" type="line" smooth="yes"/>
      <point x="485.0" y="204.0"/>
      <point x="609.0" y="307.0"/>
      <point x="609.0" y="463.0" type="curve" smooth="yes"/>
      <point x="609.0" y="608.0"/>
      <point x="503.0" y="694.0"/>
      <point x="326.0" y="694.0" type="curve" smooth="yes"/>
      <point x="176.0" y="694.0" type="line"/>
      <point x="176.0" y="542.0" type="line"/>
      <point x="312.0" y="542.0" type="line" smooth="yes"/>
      <point x="382.0" y="542.0"/>
      <point x="429.0" y="504.0"/>
      <point x="429.0" y="446.0" type="curve" smooth="yes"/>
      <point x="429.0" y="390.0"/>
      <point x="390.0" y="356.0"/>
      <point x="328.0" y="356.0" type="curve" smooth="yes"/>
      <point x="176.0" y="356.0" type="line"/>
    </contour>
  </outline>
</glyph>
<glyph name="Q" format="2">
  <advance width="760.0"/>
  <unicode hex="0051"/>
  <note>
Q
</note>
  <anchor x="380.0" y="0.0" name="bottom"/>
  <anchor x="380.0" y="694.0" name="top"/>
  <outline>
    <contour>
      <point x="373.0" y="-10.0" type="curve" smooth="yes"/>
      <point x="590.0" y="-10.0"/>
      <point x="734.0" y="134.0"/>
      <point x="734.0" y="351.0" type="curve" smooth="yes"/>
      <point x="734.0" y="563.0"/>
      <point x="594.0" y="704.0"/>
      <point x="384.0" y="704.0" type="curve" smooth="yes"/>
      <point x="169.0" y="704.0"/>
      <point x="26.0" y="559.0"/>
      <point x="26.0" y="341.0" type="curve" smooth="yes"/>
      <point x="26.0" y="130.0"/>
      <point x="165.0" y="-10.0"/>
    </contour>
    <contour>
      <point x="384.0" y="140.0" type="curve" smooth="yes"/>
      <point x="271.0" y="140.0"/>
      <point x="204.0" y="218.0"/>
      <point x="204.0" y="351.0" type="curve" smooth="yes"/>
      <point x="204.0" y="479.0"/>
      <point x="267.0" y="554.0"/>
      <point x="373.0" y="554.0" type="curve" smooth="yes"/>
      <point x="488.0" y="554.0"/>
      <point x="556.0" y="475.0"/>
      <point x="556.0" y="341.0" type="curve" smooth="yes"/>
      <point x="556.0" y="215.0"/>
      <point x="492.0" y="140.0"/>
    </contour>
    <contour>
      <point x="644.0" y="-63.0" type="line"/>
      <point x="752.0" y="38.0" type="line"/>
      <point x="427.0" y="348.0" type="line"/>
      <point x="323.0" y="245.0" type="line"/>
    </contour>
  </outline>
</glyph>
<glyph name="R" format="2">
  <advance width="663.0"/>
  <unicode hex="0052"/>
  <note>
R
</note>
  <anchor x="324.0" y="0.0" name="bottom"/>
  <anchor x="324.0" y="694.0" name="top"/>
  <outline>
    <contour>
      <point x="67.0" y="0.0" type="line"/>
      <point x="240.0" y="0.0" type="line"/>
      <point x="240.0" y="694.0" type="line"/>
      <point x="67.0" y="694.0" type="line"/>
    </contour>
    <contour>
      <point x="188.0" y="237.0" type="line"/>
      <point x="329.0" y="237.0" type="line" smooth="yes"/>
      <point x="499.0" y="237.0"/>
      <point x="612.0" y="338.0"/>
      <point x="612.0" y="484.0" type="curve" smooth="yes"/>
      <point x="612.0" y="618.0"/>
      <point x="516.0" y="694.0"/>
      <point x="353.0" y="694.0" type="curve" smooth="yes"/>
      <point x="188.0" y="694.0" type="line"/>
      <point x="188.0" y="543.0" type="line"/>
      <point x="329.0" y="543.0" type="line" smooth="yes"/>
      <point x="394.0" y="543.0"/>
      <point x="432.0" y="512.0"/>
      <point x="432.0" y="460.0" type="curve" smooth="yes"/>
      <point x="432.0" y="413.0"/>
      <point x="404.0" y="384.0"/>
      <point x="353.0" y="384.0" type="curve" smooth="yes"/>
      <point x="188.0" y="384.0" type="line"/>
    </contour>
    <contour>
      <point x="452.0" y="0.0" type="line"/>
      <point x="660.0" y="0.0" type="line"/>
      <point x="472.0" y="297.0" type="line"/>
      <point x="283.0" y="297.0" type="line"/>
    </contour>
  </outline>
</glyph>
<glyph name="S" format="2">
  <advance width="559"/>
  <unicode hex="0053"/>
  <note>
S
</note>
  <anchor x="278" y="0" name="bottom"/>
  <anchor x="271" y="694" name="top"/>
  <outline>
    <contour>
      <point x="261" y="-10" type="curve" smooth="yes"/>
      <point x="445" y="-10"/>
      <point x="547" y="78"/>
      <point x="547" y="217" type="curve" smooth="yes"/>
      <point x="547" y="472"/>
      <point x="204" y="395"/>
      <point x="204" y="498" type="curve" smooth="yes"/>
      <point x="204" y="533"/>
      <point x="243" y="552"/>
      <point x="311" y="552" type="curve" smooth="yes"/>
      <point x="367" y="552"/>
      <point x="429" y="542"/>
      <point x="478" y="525" type="curve"/>
      <point x="526" y="663" type="line"/>
      <point x="468" y="689"/>
      <point x="391" y="704"/>
      <point x="320" y="704" type="curve" smooth="yes"/>
      <point x="144" y="704"/>
      <point x="24" y="612"/>
      <point x="24" y="472" type="curve" smooth="yes"/>
      <point x="24" y="236"/>
      <point x="365" y="303"/>
      <point x="365" y="196" type="curve" smooth="yes"/>
      <point x="365" y="164"/>
      <point x="335" y="146"/>
      <point x="268" y="146" type="curve" smooth="yes"/>
      <point x="205" y="146"/>
      <point x="129" y="158"/>
      <point x="60" y="187" type="curve"/>
      <point x="12" y="45" type="line"/>
      <point x="83" y="13"/>
      <point x="175" y="-10"/>
    </contour>
  </outline>
</glyph>
<glyph name="T" format="2">
  <advance width="620"/>
  <unicode hex="0054"/>
  <note>
T
</note>
  <anchor x="311" y="0" name="bottom"/>
  <anchor x="310" y="327" name="center"/>
  <anchor x="309" y="694" name="top"/>
  <outline>
    <contour>
      <point x="224" y="0" type="line"/>
      <point x="394" y="0" type="line"/>
      <point x="394" y="660" type="line"/>
      <point x="224" y="660" type="line"/>
    </contour>
    <contour>
      <point x="10" y="542" type="line"/>
      <point x="610" y="542" type="line"/>
      <point x="610" y="694" type="line"/>
      <point x="10" y="694" type="line"/>
    </contour>
  </outline>
</glyph>
<glyph name="U" format="2">
  <advance width="709.0"/>
  <unicode hex="0055"/>
  <note>
U
</note>
  <anchor x="355.0" y="0.0" name="bottom"/>
  <anchor x="451.0" y="10.0" name="ogonek"/>
  <anchor x="355.0" y="694.0" name="top"/>
  <anchor x="658.0" y="694.0" name="topright"/>
  <outline>
    <contour>
      <point x="347.0" y="-10.0" type="curve" smooth="yes"/>
      <point x="536.0" y="-10.0"/>
      <point x="658.0" y="107.0"/>
      <point x="658.0" y="287.0" type="curve" smooth="yes"/>
      <point x="658.0" y="694.0" type="line"/>
      <point x="487.0" y="694.0" type="line"/>
      <point x="487.0" y="267.0" type="line" smooth="yes"/>
      <point x="487.0" y="187.0"/>
      <point x="442.0" y="140.0"/>
      <point x="366.0" y="140.0" type="curve" smooth="yes"/>
      <point x="277.0" y="140.0"/>
      <point x="225.0" y="195.0"/>
      <point x="225.0" y="287.0" type="curve" smooth="yes"/>
      <point x="225.0" y="694.0" type="line"/>
      <point x="52.0" y="694.0" type="line"/>
      <point x="52.0" y="277.0" type="line" smooth="yes"/>
      <point x="52.0" y="98.0"/>
      <point x="163.0" y="-10.0"/>
    </contour>
  </outline>
</glyph>
<glyph name="V" format="2">
  <advance width="673"/>
  <unicode hex="0056"/>
  <note>
V
</note>
  <anchor x="337" y="0" name="bottom"/>
  <anchor x="337" y="694" name="top"/>
  <outline>
    <contour>
      <point x="243" y="0" type="line"/>
      <point x="428" y="0" type="line"/>
      <point x="675" y="694" type="line"/>
      <point x="496" y="694" type="line"/>
      <point x="307" y="92" type="line"/>
      <point x="376" y="92" type="line"/>
      <point x="200" y="694" type="line"/>
      <point x="-2" y="694" type="line"/>
    </contour>
  </outline>
</glyph>
<glyph name="W" format="2">
  <advance width="1026.0"/>
  <unicode hex="0057"/>
  <note>
W
</note>
  <anchor x="510.0" y="0.0" name="bottom"/>
  <anchor x="510.0" y="694.0" name="top"/>
  <outline>
    <contour>
      <point x="212.0" y="0.0" type="line"/>
      <point x="402.0" y="0.0" type="line"/>
      <point x="543.0" y="602.0" type="line"/>
      <point x="463.0" y="602.0" type="line"/>
      <point x="627.0" y="0.0" type="line"/>
      <point x="812.0" y="0.0" type="line"/>
      <point x="1026.0" y="694.0" type="line"/>
      <point x="851.0" y="694.0" type="line"/>
      <point x="690.0" y="85.0" type="line"/>
      <point x="757.0" y="109.0" type="line"/>
      <point x="608.0" y="690.0" type="line"/>
      <point x="419.0" y="690.0" type="line"/>
      <point x="287.0" y="105.0" type="line"/>
      <point x="339.0" y="105.0" type="line"/>
      <point x="195.0" y="694.0" type="line"/>
      <point x="0.0" y="694.0" type="line"/>
    </contour>
  </outline>
</glyph>
<glyph name="X" format="2">
  <advance width="674"/>
  <unicode hex="0058"/>
  <note>
X
</note>
  <anchor x="355" y="0" name="bottom"/>
  <anchor x="343" y="694" name="top"/>
  <outline>
    <contour>
      <point x="470" y="0" type="line"/>
      <point x="679" y="0" type="line"/>
      <point x="387" y="416" type="line"/>
      <point x="216" y="694" type="line"/>
      <point x="11" y="694" type="line"/>
      <point x="296" y="279" type="line"/>
    </contour>
    <contour>
      <point x="-5" y="0" type="line"/>
      <point x="196" y="0" type="line"/>
      <point x="331" y="233" type="line"/>
      <point x="246" y="372" type="line"/>
    </contour>
    <contour>
      <point x="409" y="349" type="line"/>
      <point x="651" y="694" type="line"/>
      <point x="448" y="694" type="line"/>
      <point x="319" y="484" type="line"/>
    </contour>
  </outline>
</glyph>
<glyph name="Y" format="2">
  <advance width="653.0"/>
  <unicode hex="0059"/>
  <note>
Y
</note>
  <anchor x="324.0" y="0.0" name="bottom"/>
  <anchor x="324.0" y="694.0" name="top"/>
  <anchor x="4.0" y="694.0" name="topleft"/>
  <outline>
    <contour>
      <point x="245.0" y="0.0" type="line"/>
      <point x="418.0" y="0.0" type="line"/>
      <point x="418.0" y="247.0" type="line"/>
      <point x="672.0" y="694.0" type="line"/>
      <point x="478.0" y="694.0" type="line"/>
      <point x="326.0" y="380.0" type="line"/>
      <point x="348.0" y="380.0" type="line"/>
      <point x="184.0" y="694.0" type="line"/>
      <point x="-20.0" y="694.0" type="line"/>
      <point x="245.0" y="251.0" type="line"/>
    </contour>
  </outline>
</glyph>
<glyph name="Z" format="2">
  <advance width="658"/>
  <unicode hex="005A"/>
  <note>
Z
</note>
  <anchor x="335" y="0" name="bottom"/>
  <anchor x="335" y="694" name="top"/>
  <outline>
    <contour>
      <point x="26" y="0" type="line"/>
      <point x="629" y="0" type="line"/>
      <point x="629" y="152" type="line"/>
      <point x="172" y="152" type="line"/>
      <point x="213" y="94" type="line"/>
      <point x="624" y="591" type="line"/>
      <point x="624" y="694" type="line"/>
      <point x="44" y="694" type="line"/>
      <point x="44" y="542" type="line"/>
      <point x="488" y="542" type="line"/>
      <point x="436" y="608" type="line"/>
      <point x="26" y="111" type="line"/>
    </contour>
  </outline>
</glyph>
<glyph name="bracketleft" format="2">
  <advance width="355"/>
  <unicode hex="005B"/>
  <outline>
    <contour>
      <point x="64" y="-180" type="line"/>
      <point x="340" y="-180" type="line"/>
      <point x="340" y="-46" type="line"/>
      <point x="221" y="-46" type="line"/>
      <point x="221" y="605" type="line"/>
      <point x="340" y="605" type="line"/>
      <point x="340" y="739" type="line"/>
      <point x="64" y="739" type="line"/>
    </contour>
  </outline>
</glyph>
<glyph name="asciicircum" format="2">
  <advance width="647.0"/>
  <unicode hex="005E"/>
  <outline>
    <contour>
      <point x="153.0" y="176.0" type="line"/>
      <point x="332.0" y="506.0" type="line"/>
      <point x="295.0" y="504.0" type="line"/>
      <point x="463.0" y="175.0" type="line"/>
      <point x="628.0" y="247.0" type="line"/>
      <point x="387.0" y="695.0" type="line"/>
      <point x="256.0" y="695.0" type="line"/>
      <point x="19.0" y="235.0" type="line"/>
    </contour>
  </outline>
</glyph>
<glyph name="underscore" format="2">
  <advance width="558.0"/>
  <unicode hex="005F"/>
  <outline>
    <contour>
      <point x="54.0" y="-148.0" type="line"/>
      <point x="504.0" y="-148.0" type="line"/>
      <point x="504.0" y="0.0" type="line"/>
      <point x="54.0" y="0.0" type="line"/>
    </contour>
  </outline>
</glyph>
<glyph name="a" format="2">
  <advance width="528.0"/>
  <unicode hex="0061"/>
  <note>
a
</note>
  <anchor x="267.0" y="0.0" name="bottom"/>
  <anchor x="441.0" y="10.0" name="ogonek"/>
  <anchor x="257.0" y="490.0" name="top"/>
  <outline>
    <contour>
      <point x="363.0" y="0.0" type="line"/>
      <point x="488.0" y="0.0" type="line"/>
      <point x="488.0" y="272.0" type="line" smooth="yes"/>
      <point x="488.0" y="420.0"/>
      <point x="406.0" y="500.0"/>
      <point x="246.0" y="500.0" type="curve" smooth="yes"/>
      <point x="170.0" y="500.0"/>
      <point x="90.0" y="482.0"/>
      <point x="28.0" y="452.0" type="curve"/>
      <point x="68.0" y="335.0" type="line"/>
      <point x="119.0" y="353.0"/>
      <point x="166.0" y="362.0"/>
      <point x="209.0" y="362.0" type="curve" smooth="yes"/>
      <point x="279.0" y="362.0"/>
      <point x="319.0" y="338.0"/>
      <point x="319.0" y="292.0" type="curve" smooth="yes"/>
      <point x="319.0" y="129.0" type="line"/>
    </contour>
    <contour>
      <point x="195.0" y="-10.0" type="curve" smooth="yes"/>
      <point x="294.0" y="-10.0"/>
      <point x="362.0" y="41.0"/>
      <point x="395.0" y="145.0" type="curve"/>
      <point x="342.0" y="168.0" type="line"/>
      <point x="324.0" y="138.0"/>
      <point x="291.0" y="119.0"/>
      <point x="255.0" y="119.0" type="curve" smooth="yes"/>
      <point x="220.0" y="119.0"/>
      <point x="196.0" y="137.0"/>
      <point x="196.0" y="163.0" type="curve" smooth="yes"/>
      <point x="196.0" y="197.0"/>
      <point x="238.0" y="210.0"/>
      <point x="350.0" y="210.0" type="curve"/>
      <point x="350.0" y="296.0" type="line"/>
      <point x="124.0" y="296.0"/>
      <point x="22.0" y="247.0"/>
      <point x="22.0" y="138.0" type="curve" smooth="yes"/>
      <point x="22.0" y="49.0"/>
      <point x="89.0" y="-10.0"/>
    </contour>
  </outline>
</glyph>
<glyph name="b" format="2">
  <advance width="598"/>
  <unicode hex="0062"/>
  <note>
b
</note>
  <anchor x="298" y="0" name="bottom"/>
  <anchor x="298" y="490" name="top"/>
  <outline>
    <contour>
      <point x="63" y="0" type="line"/>
      <point x="169" y="0" type="line"/>
      <point x="229" y="120" type="line"/>
      <point x="229" y="739" type="line"/>
      <point x="63" y="739" type="line"/>
    </contour>
    <contour>
      <point x="337" y="-10" type="curve" smooth="yes"/>
      <point x="473" y="-10"/>
      <point x="564" y="94"/>
      <point x="564" y="249" type="curve" smooth="yes"/>
      <point x="564" y="400"/>
      <point x="479" y="500"/>
      <point x="355" y="500" type="curve" smooth="yes"/>
      <point x="269" y="500"/>
      <point x="205" y="452"/>
      <point x="173" y="371" type="curve"/>
      <point x="220" y="318" type="line"/>
      <point x="235" y="347"/>
      <point x="264" y="356"/>
      <point x="293" y="356" type="curve" smooth="yes"/>
      <point x="354" y="356"/>
      <point x="388" y="316"/>
      <point x="388" y="243" type="curve" smooth="yes"/>
      <point x="388" y="173"/>
      <point x="358" y="134"/>
      <point x="304" y="134" type="curve" smooth="yes"/>
      <point x="268" y="134"/>
      <point x="237" y="151"/>
      <point x="220" y="183" type="curve"/>
      <point x="171" y="98" type="line"/>
      <point x="200" y="27"/>
      <point x="256" y="-10"/>
    </contour>
  </outline>
</glyph>
<glyph name="c" format="2">
  <advance width="460.0"/>
  <unicode hex="0063"/>
  <note>
c
</note>
  <anchor x="225.0" y="0.0" name="bottom"/>
  <anchor x="241.0" y="490.0" name="top"/>
  <outline>
    <contour>
      <point x="284.0" y="-10.0" type="curve" smooth="yes"/>
      <point x="344.0" y="-10.0"/>
      <point x="395.0" y="2.0"/>
      <point x="446.0" y="28.0" type="curve"/>
      <point x="408.0" y="145.0" type="line"/>
      <point x="379.0" y="133.0"/>
      <point x="349.0" y="128.0"/>
      <point x="321.0" y="128.0" type="curve" smooth="yes"/>
      <point x="240.0" y="128.0"/>
      <point x="194.0" y="171.0"/>
      <point x="194.0" y="248.0" type="curve" smooth="yes"/>
      <point x="194.0" y="317.0"/>
      <point x="231.0" y="356.0"/>
      <point x="305.0" y="356.0" type="curve" smooth="yes"/>
      <point x="338.0" y="356.0"/>
      <point x="378.0" y="349.0"/>
      <point x="408.0" y="339.0" type="curve"/>
      <point x="443.0" y="473.0" type="line"/>
      <point x="403.0" y="490.0"/>
      <point x="348.0" y="500.0"/>
      <point x="296.0" y="500.0" type="curve" smooth="yes"/>
      <point x="126.0" y="500.0"/>
      <point x="18.0" y="398.0"/>
      <point x="18.0" y="236.0" type="curve" smooth="yes"/>
      <point x="18.0" y="81.0"/>
      <point x="117.0" y="-10.0"/>
    </contour>
  </outline>
</glyph>
<glyph name="d" format="2">
  <advance width="576.0"/>
  <unicode hex="0064"/>
  <note>
d
</note>
  <anchor x="284.0" y="0.0" name="bottom"/>
  <anchor x="413.0" y="600.0" name="center"/>
  <anchor x="288.0" y="490.0" name="top"/>
  <anchor x="628.0" y="490.0" name="topright"/>
  <outline>
    <contour>
      <point x="416.0" y="0.0" type="line"/>
      <point x="522.0" y="0.0" type="line"/>
      <point x="522.0" y="739.0" type="line"/>
      <point x="356.0" y="739.0" type="line"/>
      <point x="356.0" y="120.0" type="line"/>
    </contour>
    <contour>
      <point x="228.0" y="-10.0" type="curve" smooth="yes"/>
      <point x="299.0" y="-10.0"/>
      <point x="357.0" y="25.0"/>
      <point x="393.0" y="85.0" type="curve"/>
      <point x="364.0" y="179.0" type="line"/>
      <point x="347.0" y="151.0"/>
      <point x="318.0" y="134.0"/>
      <point x="283.0" y="134.0" type="curve" smooth="yes"/>
      <point x="229.0" y="134.0"/>
      <point x="197.0" y="176.0"/>
      <point x="197.0" y="248.0" type="curve" smooth="yes"/>
      <point x="197.0" y="316.0"/>
      <point x="228.0" y="356.0"/>
      <point x="281.0" y="356.0" type="curve" smooth="yes"/>
      <point x="317.0" y="356.0"/>
      <point x="348.0" y="338.0"/>
      <point x="365.0" y="308.0" type="curve"/>
      <point x="401.0" y="416.0" type="line"/>
      <point x="370.0" y="472.0"/>
      <point x="318.0" y="500.0"/>
      <point x="250.0" y="500.0" type="curve" smooth="yes"/>
      <point x="113.0" y="500.0"/>
      <point x="21.0" y="397.0"/>
      <point x="21.0" y="241.0" type="curve" smooth="yes"/>
      <point x="21.0" y="89.0"/>
      <point x="108.0" y="-10.0"/>
    </contour>
  </outline>
</glyph>
<glyph name="e" format="2">
  <advance width="526.0"/>
  <unicode hex="0065"/>
  <note>
e
</note>
  <anchor x="265.0" y="0.0" name="bottom"/>
  <anchor x="432.0" y="10.0" name="ogonek"/>
  <anchor x="267.0" y="490.0" name="top"/>
  <outline>
    <contour>
      <point x="304.0" y="-10.0" type="curve" smooth="yes"/>
      <point x="364.0" y="-10.0"/>
      <point x="427.0" y="1.0"/>
      <point x="489.0" y="22.0" type="curve"/>
      <point x="451.0" y="139.0" type="line"/>
      <point x="410.0" y="125.0"/>
      <point x="371.0" y="118.0"/>
      <point x="331.0" y="118.0" type="curve" smooth="yes"/>
      <point x="234.0" y="118.0"/>
      <point x="189.0" y="160.0"/>
      <point x="189.0" y="261.0" type="curve" smooth="yes"/>
      <point x="189.0" y="335.0"/>
      <point x="215.0" y="373.0"/>
      <point x="264.0" y="373.0" type="curve" smooth="yes"/>
      <point x="309.0" y="373.0"/>
      <point x="335.0" y="345.0"/>
      <point x="335.0" y="297.0" type="curve"/>
      <point x="168.0" y="297.0" type="line"/>
      <point x="168.0" y="197.0" type="line"/>
      <point x="491.0" y="197.0" type="line"/>
      <point x="495.0" y="222.0"/>
      <point x="498.0" y="247.0"/>
      <point x="498.0" y="273.0" type="curve" smooth="yes"/>
      <point x="498.0" y="416.0"/>
      <point x="416.0" y="500.0"/>
      <point x="276.0" y="500.0" type="curve" smooth="yes"/>
      <point x="121.0" y="500.0"/>
      <point x="18.0" y="398.0"/>
      <point x="18.0" y="244.0" type="curve" smooth="yes"/>
      <point x="18.0" y="86.0"/>
      <point x="126.0" y="-10.0"/>
    </contour>
  </outline>
</glyph>
<glyph name="f" format="2">
  <advance width="408"/>
  <unicode hex="0066"/>
  <note>
f
</note>
  <anchor x="179" y="0" name="bottom"/>
  <anchor x="327" y="739" name="top"/>
  <outline>
    <contour>
      <point x="96" y="0" type="line"/>
      <point x="260" y="0" type="line"/>
      <point x="260" y="540" type="line" smooth="yes"/>
      <point x="260" y="582"/>
      <point x="288" y="607"/>
      <point x="338" y="607" type="curve" smooth="yes"/>
      <point x="362" y="607"/>
      <point x="390" y="601"/>
      <point x="403" y="594" type="curve"/>
      <point x="437" y="717" type="line"/>
      <point x="406" y="737"/>
      <point x="360" y="749"/>
      <point x="313" y="749" type="curve" smooth="yes"/>
      <point x="183" y="749"/>
      <point x="96" y="661"/>
      <point x="96" y="528" type="curve" smooth="yes"/>
    </contour>
    <contour>
      <point x="18" y="355" type="line"/>
      <point x="390" y="355" type="line"/>
      <point x="390" y="490" type="line"/>
      <point x="18" y="490" type="line"/>
    </contour>
  </outline>
</glyph>
<glyph name="g" format="2">
  <advance width="578.0"/>
  <unicode hex="0067"/>
  <note>
g
</note>
  <anchor x="295.0" y="0.0" name="bottom"/>
  <anchor x="265.0" y="490.0" name="top"/>
  <outline>
    <contour>
      <point x="242.0" y="-232.0" type="curve" smooth="yes"/>
      <point x="411.0" y="-232.0"/>
      <point x="524.0" y="-138.0"/>
      <point x="524.0" y="2.0" type="curve" smooth="yes"/>
      <point x="524.0" y="490.0" type="line"/>
      <point x="401.0" y="490.0" type="line"/>
      <point x="356.0" y="370.0" type="line"/>
      <point x="356.0" y="2.0" type="line" smooth="yes"/>
      <point x="356.0" y="-59.0"/>
      <point x="311.0" y="-94.0"/>
      <point x="234.0" y="-94.0" type="curve" smooth="yes"/>
      <point x="194.0" y="-94.0"/>
      <point x="146.0" y="-84.0"/>
      <point x="105.0" y="-67.0" type="curve"/>
      <point x="72.0" y="-195.0" type="line"/>
      <point x="127.0" y="-220.0"/>
      <point x="182.0" y="-232.0"/>
    </contour>
    <contour>
      <point x="228.0" y="-10.0" type="curve" smooth="yes"/>
      <point x="315.0" y="-10.0"/>
      <point x="382.0" y="43.0"/>
      <point x="414.0" y="131.0" type="curve"/>
      <point x="369.0" y="184.0" type="line"/>
      <point x="354.0" y="153.0"/>
      <point x="323.0" y="134.0"/>
      <point x="283.0" y="134.0" type="curve" smooth="yes"/>
      <point x="230.0" y="134.0"/>
      <point x="198.0" y="176.0"/>
      <point x="198.0" y="248.0" type="curve" smooth="yes"/>
      <point x="198.0" y="316.0"/>
      <point x="229.0" y="356.0"/>
      <point x="281.0" y="356.0" type="curve" smooth="yes"/>
      <point x="324.0" y="356.0"/>
      <point x="359.0" y="330.0"/>
      <point x="373.0" y="283.0" type="curve"/>
      <point x="418.0" y="383.0" type="line"/>
      <point x="393.0" y="460.0"/>
      <point x="335.0" y="500.0"/>
      <point x="250.0" y="500.0" type="curve" smooth="yes"/>
      <point x="115.0" y="500.0"/>
      <point x="22.0" y="397.0"/>
      <point x="22.0" y="240.0" type="curve" smooth="yes"/>
      <point x="22.0" y="88.0"/>
      <point x="109.0" y="-10.0"/>
    </contour>
  </outline>
</glyph>
<glyph name="h" format="2">
  <advance width="598"/>
  <unicode hex="0068"/>
  <note>
h
</note>
  <anchor x="302" y="0" name="bottom"/>
  <anchor x="174" y="595" name="center"/>
  <anchor x="322" y="739" name="top"/>
  <outline>
    <contour>
      <point x="63" y="0" type="line"/>
      <point x="233" y="0" type="line"/>
      <point x="233" y="739" type="line"/>
      <point x="63" y="739" type="line"/>
    </contour>
    <contour>
      <point x="372" y="0" type="line"/>
      <point x="545" y="0" type="line"/>
      <point x="545" y="294" type="line" smooth="yes"/>
      <point x="545" y="421"/>
      <point x="478" y="496"/>
      <point x="366" y="496" type="curve" smooth="yes"/>
      <point x="296" y="496"/>
      <point x="236" y="465"/>
      <point x="196" y="398" type="curve"/>
      <point x="215" y="295" type="line"/>
      <point x="240" y="332"/>
      <point x="267" y="346"/>
      <point x="301" y="346" type="curve" smooth="yes"/>
      <point x="351" y="346"/>
      <point x="372" y="320"/>
      <point x="372" y="265" type="curve" smooth="yes"/>
    </contour>
  </outline>
</glyph>
<glyph name="k" format="2">
  <advance width="592"/>
  <unicode hex="006B"/>
  <note>
k
</note>
  <anchor x="313" y="0" name="bottom"/>
  <anchor x="273" y="739" name="top"/>
  <outline>
    <contour>
      <point x="63" y="0" type="line"/>
      <point x="233" y="0" type="line"/>
      <point x="233" y="739" type="line"/>
      <point x="63" y="739" type="line"/>
    </contour>
    <contour>
      <point x="372" y="0" type="line"/>
      <point x="592" y="0" type="line"/>
      <point x="405" y="295" type="line"/>
      <point x="397" y="238" type="line"/>
      <point x="576" y="490" type="line"/>
      <point x="377" y="490" type="line"/>
      <point x="224" y="257" type="line"/>
    </contour>
  </outline>
</glyph>
<glyph name="l" format="2">
  <advance width="310.0"/>
  <unicode hex="006C"/>
  <note>
l
</note>
  <anchor x="168.0" y="0.0" name="bottom"/>
  <anchor x="132.0" y="366.0" name="center"/>
  <anchor x="310.0" y="363.0" name="periodcentered"/>
  <anchor x="127.0" y="739.0" name="top"/>
  <anchor x="325.0" y="490.0" name="topright"/>
  <outline>
    <contour>
      <point x="208.0" y="-8.0" type="curve" smooth="yes"/>
      <point x="245.0" y="-8.0"/>
      <point x="284.0" y="-1.0"/>
      <point x="317.0" y="11.0" type="curve"/>
      <point x="283.0" y="125.0" type="line"/>
      <point x="273.0" y="122.0"/>
      <point x="262.0" y="121.0"/>
      <point x="256.0" y="121.0" type="curve" smooth="yes"/>
      <point x="230.0" y="121.0"/>
      <point x="216.0" y="137.0"/>
      <point x="216.0" y="168.0" type="curve" smooth="yes"/>
      <point x="216.0" y="739.0" type="line"/>
      <point x="46.0" y="739.0" type="line"/>
      <point x="46.0" y="147.0" type="line" smooth="yes"/>
      <point x="46.0" y="48.0"/>
      <point x="105.0" y="-8.0"/>
    </contour>
  </outline>
</glyph>
<glyph name="m" format="2">
  <advance width="902.0"/>
  <unicode hex="006D"/>
  <note>
m
</note>
  <anchor x="467.0" y="0.0" name="bottom"/>
  <anchor x="467.0" y="490.0" name="top"/>
  <outline>
    <contour>
      <point x="54.0" y="0.0" type="line"/>
      <point x="227.0" y="0.0" type="line"/>
      <point x="227.0" y="376.0" type="line"/>
      <point x="179.0" y="490.0" type="line"/>
      <point x="54.0" y="490.0" type="line"/>
    </contour>
    <contour>
      <point x="371.0" y="0.0" type="line"/>
      <point x="543.0" y="0.0" type="line"/>
      <point x="543.0" y="294.0" type="line" smooth="yes"/>
      <point x="543.0" y="419.0"/>
      <point x="474.0" y="496.0"/>
      <point x="362.0" y="496.0" type="curve" smooth="yes"/>
      <point x="291.0" y="496.0"/>
      <point x="226.0" y="465.0"/>
      <point x="185.0" y="408.0" type="curve"/>
      <point x="204.0" y="305.0" type="line"/>
      <point x="231.0" y="332.0"/>
      <point x="262.0" y="346.0"/>
      <point x="297.0" y="346.0" type="curve" smooth="yes"/>
      <point x="361.0" y="346.0"/>
      <point x="371.0" y="302.0"/>
      <point x="371.0" y="265.0" type="curve" smooth="yes"/>
    </contour>
    <contour>
      <point x="687.0" y="0.0" type="line"/>
      <point x="860.0" y="0.0" type="line"/>
      <point x="860.0" y="294.0" type="line" smooth="yes"/>
      <point x="860.0" y="419.0"/>
      <point x="791.0" y="496.0"/>
      <point x="679.0" y="496.0" type="curve" smooth="yes"/>
      <point x="603.0" y="496.0"/>
      <point x="541.0" y="462.0"/>
      <point x="501.0" y="408.0" type="curve"/>
      <point x="521.0" y="305.0" type="line"/>
      <point x="548.0" y="332.0"/>
      <point x="578.0" y="346.0"/>
      <point x="614.0" y="346.0" type="curve" smooth="yes"/>
      <point x="674.0" y="346.0"/>
      <point x="687.0" y="307.0"/>
      <point x="687.0" y="265.0" type="curve" smooth="yes"/>
    </contour>
  </outline>
</glyph>
<glyph name="n" format="2">
  <advance width="581"/>
  <unicode hex="006E"/>
  <note>
n
</note>
  <anchor x="296" y="0" name="bottom"/>
  <anchor x="296" y="490" name="top"/>
  <outline>
    <contour>
      <point x="54" y="0" type="line"/>
      <point x="227" y="0" type="line"/>
      <point x="227" y="376" type="line"/>
      <point x="179" y="490" type="line"/>
      <point x="54" y="490" type="line"/>
    </contour>
    <contour>
      <point x="366" y="0" type="line"/>
      <point x="539" y="0" type="line"/>
      <point x="539" y="284" type="line" smooth="yes"/>
      <point x="539" y="418"/>
      <point x="474" y="496"/>
      <point x="363" y="496" type="curve" smooth="yes"/>
      <point x="293" y="496"/>
      <point x="232" y="465"/>
      <point x="192" y="408" type="curve"/>
      <point x="211" y="305" type="line"/>
      <point x="236" y="332"/>
      <point x="264" y="346"/>
      <point x="298" y="346" type="curve" smooth="yes"/>
      <point x="345" y="346"/>
      <point x="366" y="320"/>
      <point x="366" y="265" type="curve" smooth="yes"/>
    </contour>
  </outline>
</glyph>
<glyph name="o" format="2">
  <advance width="567.0"/>
  <unicode hex="006F"/>
  <note>
o
</note>
  <anchor x="282.0" y="0.0" name="bottom"/>
  <anchor x="282.0" y="245.0" name="center"/>
  <anchor x="368.0" y="10.0" name="ogonek"/>
  <anchor x="282.0" y="490.0" name="top"/>
  <anchor x="478.0" y="490.0" name="topright"/>
  <outline>
    <contour>
      <point x="275.0" y="-10.0" type="curve" smooth="yes"/>
      <point x="439.0" y="-10.0"/>
      <point x="549.0" y="96.0"/>
      <point x="549.0" y="254.0" type="curve" smooth="yes"/>
      <point x="549.0" y="403.0"/>
      <point x="449.0" y="500.0"/>
      <point x="293.0" y="500.0" type="curve" smooth="yes"/>
      <point x="128.0" y="500.0"/>
      <point x="18.0" y="394.0"/>
      <point x="18.0" y="235.0" type="curve" smooth="yes"/>
      <point x="18.0" y="87.0"/>
      <point x="118.0" y="-10.0"/>
    </contour>
    <contour>
      <point x="286.0" y="134.0" type="curve" smooth="yes"/>
      <point x="228.0" y="134.0"/>
      <point x="194.0" y="176.0"/>
      <point x="194.0" y="246.0" type="curve" smooth="yes"/>
      <point x="194.0" y="315.0"/>
      <point x="226.0" y="356.0"/>
      <point x="281.0" y="356.0" type="curve" smooth="yes"/>
      <point x="339.0" y="356.0"/>
      <point x="373.0" y="313.0"/>
      <point x="373.0" y="240.0" type="curve" smooth="yes"/>
      <point x="373.0" y="173.0"/>
      <point x="341.0" y="134.0"/>
    </contour>
  </outline>
</glyph>
<glyph name="p" format="2">
  <advance width="597"/>
  <unicode hex="0070"/>
  <note>
p
</note>
  <anchor x="297" y="0" name="bottom"/>
  <anchor x="297" y="490" name="top"/>
  <outline>
    <contour>
      <point x="63" y="-217" type="line"/>
      <point x="228" y="-217" type="line"/>
      <point x="228" y="370" type="line"/>
      <point x="178" y="490" type="line"/>
      <point x="63" y="490" type="line"/>
    </contour>
    <contour>
      <point x="337" y="-10" type="curve" smooth="yes"/>
      <point x="466" y="-10"/>
      <point x="563" y="101"/>
      <point x="563" y="251" type="curve" smooth="yes"/>
      <point x="563" y="396"/>
      <point x="472" y="500"/>
      <point x="346" y="500" type="curve" smooth="yes"/>
      <point x="262" y="500"/>
      <point x="198" y="452"/>
      <point x="166" y="372" type="curve"/>
      <point x="212" y="305" type="line"/>
      <point x="228" y="337"/>
      <point x="259" y="356"/>
      <point x="296" y="356" type="curve" smooth="yes"/>
      <point x="352" y="356"/>
      <point x="387" y="314"/>
      <point x="387" y="242" type="curve" smooth="yes"/>
      <point x="387" y="174"/>
      <point x="355" y="134"/>
      <point x="300" y="134" type="curve" smooth="yes"/>
      <point x="264" y="134"/>
      <point x="233" y="152"/>
      <point x="215" y="182" type="curve"/>
      <point x="176" y="88" type="line"/>
      <point x="209" y="26"/>
      <point x="265" y="-10"/>
    </contour>
  </outline>
</glyph>
<glyph name="q" format="2">
  <advance width="577.0"/>
  <unicode hex="0071"/>
  <note>
q
</note>
  <anchor x="291.0" y="0.0" name="bottom"/>
  <anchor x="291.0" y="490.0" name="top"/>
  <outline>
    <contour>
      <point x="357.0" y="-217.0" type="line"/>
      <point x="523.0" y="-217.0" type="line"/>
      <point x="523.0" y="490.0" type="line"/>
      <point x="408.0" y="490.0" type="line"/>
      <point x="357.0" y="370.0" type="line"/>
    </contour>
    <contour>
      <point x="230.0" y="-10.0" type="curve" smooth="yes"/>
      <point x="317.0" y="-10.0"/>
      <point x="382.0" y="43.0"/>
      <point x="415.0" y="130.0" type="curve"/>
      <point x="370.0" y="184.0" type="line"/>
      <point x="354.0" y="153.0"/>
      <point x="324.0" y="134.0"/>
      <point x="284.0" y="134.0" type="curve" smooth="yes"/>
      <point x="230.0" y="134.0"/>
      <point x="198.0" y="176.0"/>
      <point x="198.0" y="248.0" type="curve" smooth="yes"/>
      <point x="198.0" y="316.0"/>
      <point x="229.0" y="356.0"/>
      <point x="282.0" y="356.0" type="curve" smooth="yes"/>
      <point x="323.0" y="356.0"/>
      <point x="354.0" y="333.0"/>
      <point x="370.0" y="294.0" type="curve"/>
      <point x="419.0" y="383.0" type="line"/>
      <point x="394.0" y="460.0"/>
      <point x="336.0" y="500.0"/>
      <point x="250.0" y="500.0" type="curve" smooth="yes"/>
      <point x="114.0" y="500.0"/>
      <point x="22.0" y="397.0"/>
      <point x="22.0" y="242.0" type="curve" smooth="yes"/>
      <point x="22.0" y="91.0"/>
      <point x="106.0" y="-10.0"/>
    </contour>
  </outline>
</glyph>
<glyph name="r" format="2">
  <advance width="434"/>
  <unicode hex="0072"/>
  <note>
r
</note>
  <anchor x="141" y="0" name="bottom"/>
  <anchor x="213" y="490" name="top"/>
  <outline>
    <contour>
      <point x="54" y="0" type="line"/>
      <point x="227" y="0" type="line"/>
      <point x="227" y="299" type="line"/>
      <point x="189" y="490" type="line"/>
      <point x="54" y="490" type="line"/>
    </contour>
    <contour>
      <point x="196" y="252" type="line"/>
      <point x="223" y="309"/>
      <point x="270" y="342"/>
      <point x="324" y="342" type="curve" smooth="yes"/>
      <point x="350" y="342"/>
      <point x="380" y="335"/>
      <point x="401" y="324" type="curve"/>
      <point x="440" y="472" type="line"/>
      <point x="416" y="486"/>
      <point x="383" y="494"/>
      <point x="353" y="494" type="curve" smooth="yes"/>
      <point x="290" y="494"/>
      <point x="232" y="460"/>
      <point x="196" y="402" type="curve"/>
    </contour>
  </outline>
</glyph>
<glyph name="s" format="2">
  <advance width="498"/>
  <unicode hex="0073"/>
  <note>
s
</note>
  <anchor x="251" y="0" name="bottom"/>
  <anchor x="249" y="490" name="top"/>
  <outline>
    <contour>
      <point x="236" y="-10" type="curve" smooth="yes"/>
      <point x="384" y="-10"/>
      <point x="468" y="51"/>
      <point x="468" y="157" type="curve" smooth="yes"/>
      <point x="468" y="344"/>
      <point x="206" y="287"/>
      <point x="206" y="343" type="curve" smooth="yes"/>
      <point x="206" y="360"/>
      <point x="230" y="370"/>
      <point x="278" y="370" type="curve" smooth="yes"/>
      <point x="317" y="370"/>
      <point x="365" y="363"/>
      <point x="414" y="351" type="curve"/>
      <point x="447" y="476" type="line"/>
      <point x="399" y="491"/>
      <point x="334" y="500"/>
      <point x="275" y="500" type="curve" smooth="yes"/>
      <point x="123" y="500"/>
      <point x="41" y="442"/>
      <point x="41" y="335" type="curve" smooth="yes"/>
      <point x="41" y="146"/>
      <point x="297" y="212"/>
      <point x="297" y="152" type="curve" smooth="yes"/>
      <point x="297" y="133"/>
      <point x="270" y="120"/>
      <point x="227" y="120" type="curve" smooth="yes"/>
      <point x="184" y="120"/>
      <point x="122" y="132"/>
      <point x="71" y="150" type="curve"/>
      <point x="34" y="27" type="line"/>
      <point x="90" y="4"/>
      <point x="165" y="-10"/>
    </contour>
  </outline>
</glyph>
<glyph name="t" format="2">
  <advance width="397.0"/>
  <unicode hex="0074"/>
  <note>
t
</note>
  <anchor x="225.0" y="0.0" name="bottom"/>
  <anchor x="182.0" y="243.0" name="center"/>
  <anchor x="161.0" y="631.0" name="top"/>
  <anchor x="349.0" y="490.0" name="topright"/>
  <outline>
    <contour>
      <point x="274.0" y="-8.0" type="curve" smooth="yes"/>
      <point x="308.0" y="-8.0"/>
      <point x="346.0" y="-3.0"/>
      <point x="385.0" y="8.0" type="curve"/>
      <point x="352.0" y="130.0" type="line"/>
      <point x="339.0" y="125.0"/>
      <point x="325.0" y="123.0"/>
      <point x="312.0" y="123.0" type="curve" smooth="yes"/>
      <point x="270.0" y="123.0"/>
      <point x="245.0" y="145.0"/>
      <point x="245.0" y="181.0" type="curve" smooth="yes"/>
      <point x="245.0" y="631.0" type="line"/>
      <point x="75.0" y="631.0" type="line"/>
      <point x="75.0" y="176.0" type="line" smooth="yes"/>
      <point x="75.0" y="60.0"/>
      <point x="147.0" y="-8.0"/>
    </contour>
    <contour>
      <point x="5.0" y="355.0" type="line"/>
      <point x="358.0" y="355.0" type="line"/>
      <point x="358.0" y="490.0" type="line"/>
      <point x="5.0" y="490.0" type="line"/>
    </contour>
  </outline>
</glyph>
<glyph name="u" format="2">
  <advance width="587"/>
  <unicode hex="0075"/>
  <note>
u
</note>
  <anchor x="288" y="0" name="bottom"/>
  <anchor x="477" y="10" name="ogonek"/>
  <anchor x="288" y="490" name="top"/>
  <anchor x="520" y="490" name="topright"/>
  <outline>
    <contour>
      <point x="524" y="490" type="line"/>
      <point x="351" y="490" type="line"/>
      <point x="351" y="114" type="line"/>
      <point x="399" y="0" type="line"/>
      <point x="524" y="0" type="line"/>
    </contour>
    <contour>
      <point x="226" y="490" type="line"/>
      <point x="53" y="490" type="line"/>
      <point x="53" y="186" type="line" smooth="yes"/>
      <point x="53" y="68"/>
      <point x="121" y="-6"/>
      <point x="220" y="-6" type="curve" smooth="yes"/>
      <point x="287" y="-6"/>
      <point x="346" y="25"/>
      <point x="386" y="82" type="curve"/>
      <point x="367" y="185" type="line"/>
      <point x="345" y="160"/>
      <point x="319" y="144"/>
      <point x="288" y="144" type="curve" smooth="yes"/>
      <point x="225" y="144"/>
      <point x="226" y="205"/>
      <point x="226" y="225" type="curve" smooth="yes"/>
    </contour>
  </outline>
</glyph>
<glyph name="v" format="2">
  <advance width="534.0"/>
  <unicode hex="0076"/>
  <note>
v
</note>
  <anchor x="265.0" y="0.0" name="bottom"/>
  <anchor x="265.0" y="490.0" name="top"/>
  <outline>
    <contour>
      <point x="180.0" y="0.0" type="line"/>
      <point x="353.0" y="0.0" type="line"/>
      <point x="543.0" y="490.0" type="line"/>
      <point x="369.0" y="490.0" type="line"/>
      <point x="258.0" y="124.0" type="line"/>
      <point x="281.0" y="124.0" type="line"/>
      <point x="182.0" y="490.0" type="line"/>
      <point x="-8.0" y="490.0" type="line"/>
    </contour>
  </outline>
</glyph>
<glyph name="w" format="2">
  <advance width="843.0"/>
  <unicode hex="0077"/>
  <note>
w
</note>
  <anchor x="424.0" y="0.0" name="bottom"/>
  <anchor x="424.0" y="490.0" name="top"/>
  <outline>
    <contour>
      <point x="172.0" y="0.0" type="line"/>
      <point x="333.0" y="0.0" type="line"/>
      <point x="435.0" y="382.0" type="line"/>
      <point x="385.0" y="382.0" type="line"/>
      <point x="501.0" y="0.0" type="line"/>
      <point x="673.0" y="0.0" type="line"/>
      <point x="851.0" y="490.0" type="line"/>
      <point x="683.0" y="490.0" type="line"/>
      <point x="563.0" y="86.0" type="line"/>
      <point x="620.0" y="86.0" type="line"/>
      <point x="508.0" y="488.0" type="line"/>
      <point x="345.0" y="488.0" type="line"/>
      <point x="236.0" y="76.0" type="line"/>
      <point x="289.0" y="76.0" type="line"/>
      <point x="179.0" y="490.0" type="line"/>
      <point x="-8.0" y="490.0" type="line"/>
    </contour>
  </outline>
</glyph>
<glyph name="x" format="2">
  <advance width="531"/>
  <unicode hex="0078"/>
  <note>
x
</note>
  <anchor x="284" y="0" name="bottom"/>
  <anchor x="283" y="490" name="top"/>
  <outline>
    <contour>
      <point x="-3" y="0" type="line"/>
      <point x="179" y="0" type="line"/>
      <point x="300" y="187" type="line"/>
      <point x="537" y="490" type="line"/>
      <point x="345" y="490" type="line"/>
      <point x="236" y="322" type="line"/>
    </contour>
    <contour>
      <point x="325" y="0" type="line"/>
      <point x="523" y="0" type="line"/>
      <point x="299" y="315" type="line"/>
      <point x="193" y="490" type="line"/>
      <point x="-6" y="490" type="line"/>
      <point x="177" y="240" type="line"/>
    </contour>
  </outline>
</glyph>
<glyph name="y" format="2">
  <advance width="542"/>
  <unicode hex="0079"/>
  <note>
y
</note>
  <anchor x="449" y="0" name="bottom"/>
  <anchor x="267" y="490" name="top"/>
  <outline>
    <contour>
      <point x="96" y="-217" type="line"/>
      <point x="284" y="-217" type="line"/>
      <point x="360" y="0" type="line"/>
      <point x="545" y="490" type="line"/>
      <point x="373" y="490" type="line"/>
      <point x="254" y="88" type="line"/>
      <point x="296" y="87" type="line"/>
      <point x="188" y="490" type="line"/>
      <point x="-3" y="490" type="line"/>
      <point x="185" y="0" type="line"/>
    </contour>
  </outline>
</glyph>
<glyph name="z" format="2">
  <advance width="508"/>
  <unicode hex="007A"/>
  <note>
z
</note>
  <anchor x="254" y="0" name="bottom"/>
  <anchor x="254" y="490" name="top"/>
  <outline>
    <contour>
      <point x="37" y="0" type="line"/>
      <point x="476" y="0" type="line"/>
      <point x="476" y="141" type="line"/>
      <point x="179" y="141" type="line"/>
      <point x="207" y="80" type="line"/>
      <point x="463" y="386" type="line"/>
      <point x="463" y="490" type="line"/>
      <point x="37" y="490" type="line"/>
      <point x="37" y="349" type="line"/>
      <point x="322" y="349" type="line"/>
      <point x="294" y="411" type="line"/>
      <point x="37" y="103" type="line"/>
    </contour>
  </outline>
</glyph>
<glyph name="braceleft" format="2">
  <advance width="404"/>
  <unicode hex="007B"/>
  <outline>
    <contour>
      <point x="388" y="-183" type="curve"/>
      <point x="388" y="-42" type="line"/>
      <point x="311" y="-42"/>
      <point x="294" y="-9"/>
      <point x="294" y="50" type="curve" smooth="yes"/>
      <point x="294" y="140" type="line" smooth="yes"/>
      <point x="294" y="224"/>
      <point x="241" y="283"/>
      <point x="155" y="294" type="curve"/>
      <point x="155" y="295" type="line"/>
      <point x="235" y="299"/>
      <point x="294" y="354"/>
      <point x="294" y="424" type="curve" smooth="yes"/>
      <point x="294" y="515" type="line" smooth="yes"/>
      <point x="294" y="584"/>
      <point x="319" y="608"/>
      <point x="388" y="608" type="curve"/>
      <point x="388" y="749" type="line"/>
      <point x="220" y="749"/>
      <point x="133" y="680"/>
      <point x="133" y="546" type="curve" smooth="yes"/>
      <point x="133" y="454" type="line" smooth="yes"/>
      <point x="133" y="385"/>
      <point x="85" y="344"/>
      <point x="3" y="344" type="curve"/>
      <point x="3" y="221" type="line"/>
      <point x="85" y="221"/>
      <point x="133" y="187"/>
      <point x="133" y="130" type="curve" smooth="yes"/>
      <point x="133" y="9" type="line" smooth="yes"/>
      <point x="133" y="-111"/>
      <point x="210" y="-183"/>
    </contour>
  </outline>
</glyph>
<glyph name="bar" format="2">
  <advance width="325.0"/>
  <unicode hex="007C"/>
  <outline>
    <contour>
      <point x="80.0" y="-161.0" type="line"/>
      <point x="245.0" y="-161.0" type="line"/>
      <point x="245.0" y="743.0" type="line"/>
      <point x="80.0" y="743.0" type="line"/>
    </contour>
  </outline>
</glyph>
<glyph name="asciitilde" format="2">
  <advance width="629.0"/>
  <unicode hex="007E"/>
  <outline>
    <contour>
      <point x="133.0" y="219.0" type="line"/>
      <point x="150.0" y="253.0"/>
      <point x="177.0" y="274.0"/>
      <point x="208.0" y="274.0" type="curve" smooth="yes"/>
      <point x="268.0" y="274.0"/>
      <point x="307.0" y="208.0"/>
      <point x="387.0" y="208.0" type="curve" smooth="yes"/>
      <point x="469.0" y="208.0"/>
      <point x="555.0" y="279.0"/>
      <point x="591.0" y="384.0" type="curve"/>
      <point x="490.0" y="427.0" type="line"/>
      <point x="472.0" y="391.0"/>
      <point x="441.0" y="370.0"/>
      <point x="405.0" y="370.0" type="curve" smooth="yes"/>
      <point x="336.0" y="370.0"/>
      <point x="308.0" y="436.0"/>
      <point x="228.0" y="436.0" type="curve" smooth="yes"/>
      <point x="146.0" y="436.0"/>
      <point x="74.0" y="364.0"/>
      <point x="40.0" y="261.0" type="curve"/>
    </contour>
  </outline>
</glyph>
<glyph name="sterling" format="2">
  <advance width="615.0"/>
  <unicode hex="00A3"/>
  <outline>
    <contour>
      <point x="52.0" y="0.0" type="line"/>
      <point x="569.0" y="0.0" type="line"/>
      <point x="569.0" y="156.0" type="line"/>
      <point x="229.0" y="156.0" type="line"/>
      <point x="276.0" y="174.0"/>
      <point x="296.0" y="222.0"/>
      <point x="297.0" y="322.0" type="curve" smooth="yes"/>
      <point x="298.0" y="461.0" type="line" smooth="yes"/>
      <point x="298.0" y="517.0"/>
      <point x="342.0" y="554.0"/>
      <point x="420.0" y="554.0" type="curve" smooth="yes"/>
      <point x="455.0" y="554.0"/>
      <point x="500.0" y="547.0"/>
      <point x="534.0" y="536.0" type="curve"/>
      <point x="572.0" y="677.0" type="line"/>
      <point x="530.0" y="695.0"/>
      <point x="481.0" y="704.0"/>
      <point x="427.0" y="704.0" type="curve" smooth="yes"/>
      <point x="246.0" y="704.0"/>
      <point x="121.0" y="603.0"/>
      <point x="123.0" y="451.0" type="curve" smooth="yes"/>
      <point x="125.0" y="312.0" type="line" smooth="yes"/>
      <point x="126.0" y="226.0"/>
      <point x="100.0" y="171.0"/>
      <point x="52.0" y="156.0" type="curve"/>
    </contour>
    <contour>
      <point x="50.0" y="292.0" type="line"/>
      <point x="472.0" y="292.0" type="line"/>
      <point x="472.0" y="413.0" type="line"/>
      <point x="50.0" y="413.0" type="line"/>
    </contour>
  </outline>
</glyph>
<glyph name="currency" format="2">
  <advance width="703.0"/>
  <unicode hex="00A4"/>
  <outline>
    <contour>
      <point x="345.0" y="76.0" type="curve" smooth="yes"/>
      <point x="505.0" y="76.0"/>
      <point x="611.0" y="183.0"/>
      <point x="611.0" y="344.0" type="curve" smooth="yes"/>
      <point x="611.0" y="495.0"/>
      <point x="509.0" y="595.0"/>
      <point x="357.0" y="595.0" type="curve" smooth="yes"/>
      <point x="197.0" y="595.0"/>
      <point x="91.0" y="489.0"/>
      <point x="91.0" y="330.0" type="curve" smooth="yes"/>
      <point x="91.0" y="178.0"/>
      <point x="193.0" y="76.0"/>
    </contour>
    <contour>
      <point x="128.0" y="21.0" type="line"/>
      <point x="283.0" y="174.0" type="line"/>
      <point x="195.0" y="262.0" type="line"/>
      <point x="40.0" y="109.0" type="line"/>
    </contour>
    <contour>
      <point x="578.0" y="10.0" type="line"/>
      <point x="673.0" y="106.0" type="line"/>
      <point x="510.0" y="264.0" type="line"/>
      <point x="416.0" y="170.0" type="line"/>
    </contour>
    <contour>
      <point x="354.0" y="246.0" type="curve" smooth="yes"/>
      <point x="299.0" y="246.0"/>
      <point x="263.0" y="283.0"/>
      <point x="263.0" y="339.0" type="curve" smooth="yes"/>
      <point x="263.0" y="391.0"/>
      <point x="297.0" y="425.0"/>
      <point x="348.0" y="425.0" type="curve" smooth="yes"/>
      <point x="403.0" y="425.0"/>
      <point x="439.0" y="388.0"/>
      <point x="439.0" y="333.0" type="curve" smooth="yes"/>
      <point x="439.0" y="281.0"/>
      <point x="405.0" y="246.0"/>
    </contour>
    <contour>
      <point x="195.0" y="398.0" type="line"/>
      <point x="293.0" y="492.0" type="line"/>
      <point x="123.0" y="662.0" type="line"/>
      <point x="26.0" y="566.0" type="line"/>
    </contour>
    <contour>
      <point x="513.0" y="407.0" type="line"/>
      <point x="671.0" y="562.0" type="line"/>
      <point x="574.0" y="658.0" type="line"/>
      <point x="417.0" y="502.0" type="line"/>
    </contour>
  </outline>
</glyph>
<glyph name="yen" format="2">
  <advance width="728.0"/>
  <unicode hex="00A5"/>
  <outline>
    <contour>
      <point x="92.0" y="67.0" type="line"/>
      <point x="643.0" y="67.0" type="line"/>
      <point x="643.0" y="187.0" type="line"/>
      <point x="92.0" y="187.0" type="line"/>
    </contour>
    <contour>
      <point x="92.0" y="258.0" type="line"/>
      <point x="643.0" y="258.0" type="line"/>
      <point x="643.0" y="378.0" type="line"/>
      <point x="92.0" y="378.0" type="line"/>
    </contour>
    <contour>
      <point x="281.0" y="0.0" type="line"/>
      <point x="454.0" y="0.0" type="line"/>
      <point x="454.0" y="297.0" type="line"/>
      <point x="708.0" y="694.0" type="line"/>
      <point x="514.0" y="694.0" type="line"/>
      <point x="362.0" y="410.0" type="line"/>
      <point x="384.0" y="410.0" type="line"/>
      <point x="220.0" y="694.0" type="line"/>
      <point x="16.0" y="694.0" type="line"/>
      <point x="281.0" y="301.0" type="line"/>
    </contour>
  </outline>
</glyph>
<glyph name="brokenbar" format="2">
  <advance width="280"/>
  <unicode hex="00A6"/>
  <outline>
    <contour>
      <point x="55" y="-184" type="line"/>
      <point x="225" y="-184" type="line"/>
      <point x="225" y="181" type="line"/>
      <point x="55" y="181" type="line"/>
    </contour>
    <contour>
      <point x="55" y="412" type="line"/>
      <point x="225" y="412" type="line"/>
      <point x="225" y="743" type="line"/>
      <point x="55" y="743" type="line"/>
    </contour>
  </outline>
</glyph>
<glyph name="section" format="2">
  <advance width="539.0"/>
  <unicode hex="00A7"/>
  <outline>
    <contour>
      <point x="252.0" y="-61.0" type="curve" smooth="yes"/>
      <point x="407.0" y="-61.0"/>
      <point x="489.0" y="1.0"/>
      <point x="489.0" y="115.0" type="curve" smooth="yes"/>
      <point x="489.0" y="322.0"/>
      <point x="227.0" y="250.0"/>
      <point x="227.0" y="325.0" type="curve" smooth="yes"/>
      <point x="227.0" y="349.0"/>
      <point x="251.0" y="370.0"/>
      <point x="281.0" y="370.0" type="curve"/>
      <point x="301.0" y="453.0" type="line"/>
      <point x="148.0" y="453.0"/>
      <point x="58.0" y="394.0"/>
      <point x="58.0" y="294.0" type="curve" smooth="yes"/>
      <point x="58.0" y="118.0"/>
      <point x="320.0" y="170.0"/>
      <point x="320.0" y="104.0" type="curve" smooth="yes"/>
      <point x="320.0" y="84.0"/>
      <point x="296.0" y="73.0"/>
      <point x="252.0" y="73.0" type="curve" smooth="yes"/>
      <point x="202.0" y="73.0"/>
      <point x="141.0" y="85.0"/>
      <point x="88.0" y="106.0" type="curve"/>
      <point x="51.0" y="-23.0" type="line"/>
      <point x="105.0" y="-47.0"/>
      <point x="183.0" y="-61.0"/>
    </contour>
    <contour>
      <point x="251.0" y="199.0" type="line"/>
      <point x="404.0" y="199.0"/>
      <point x="489.0" y="254.0"/>
      <point x="489.0" y="350.0" type="curve" smooth="yes"/>
      <point x="489.0" y="522.0"/>
      <point x="227.0" y="483.0"/>
      <point x="227.0" y="540.0" type="curve" smooth="yes"/>
      <point x="227.0" y="558.0"/>
      <point x="253.0" y="570.0"/>
      <point x="291.0" y="570.0" type="curve" smooth="yes"/>
      <point x="333.0" y="570.0"/>
      <point x="383.0" y="561.0"/>
      <point x="430.0" y="547.0" type="curve"/>
      <point x="467.0" y="676.0" type="line"/>
      <point x="413.0" y="694.0"/>
      <point x="356.0" y="704.0"/>
      <point x="301.0" y="704.0" type="curve" smooth="yes"/>
      <point x="148.0" y="704.0"/>
      <point x="58.0" y="636.0"/>
      <point x="58.0" y="523.0" type="curve" smooth="yes"/>
      <point x="58.0" y="325.0"/>
      <point x="320.0" y="399.0"/>
      <point x="320.0" y="319.0" type="curve" smooth="yes"/>
      <point x="320.0" y="293.0"/>
      <point x="295.0" y="274.0"/>
      <point x="262.0" y="274.0" type="curve"/>
    </contour>
  </outline>
</glyph>
<glyph name="copyright" format="2">
  <advance width="809.0"/>
  <unicode hex="00A9"/>
  <outline>
    <contour>
      <point x="400.0" y="-10.0" type="curve" smooth="yes"/>
      <point x="623.0" y="-10.0"/>
      <point x="771.0" y="134.0"/>
      <point x="771.0" y="350.0" type="curve" smooth="yes"/>
      <point x="771.0" y="562.0"/>
      <point x="626.0" y="704.0"/>
      <point x="408.0" y="704.0" type="curve" smooth="yes"/>
      <point x="186.0" y="704.0"/>
      <point x="38.0" y="558.0"/>
      <point x="38.0" y="340.0" type="curve" smooth="yes"/>
      <point x="38.0" y="130.0"/>
      <point x="183.0" y="-10.0"/>
    </contour>
    <contour>
      <point x="409.0" y="81.0" type="curve" smooth="yes"/>
      <point x="242.0" y="81.0"/>
      <point x="130.0" y="189.0"/>
      <point x="130.0" y="350.0" type="curve" smooth="yes"/>
      <point x="130.0" y="508.0"/>
      <point x="238.0" y="613.0"/>
      <point x="400.0" y="613.0" type="curve" smooth="yes"/>
      <point x="567.0" y="613.0"/>
      <point x="679.0" y="504.0"/>
      <point x="679.0" y="341.0" type="curve" smooth="yes"/>
      <point x="679.0" y="185.0"/>
      <point x="571.0" y="81.0"/>
    </contour>
    <contour>
      <point x="418.0" y="134.0" type="curve" smooth="yes"/>
      <point x="462.0" y="134.0"/>
      <point x="513.0" y="144.0"/>
      <point x="547.0" y="158.0" type="curve"/>
      <point x="510.0" y="283.0" type="line"/>
      <point x="494.0" y="278.0"/>
      <point x="473.0" y="275.0"/>
      <point x="456.0" y="275.0" type="curve" smooth="yes"/>
      <point x="401.0" y="275.0"/>
      <point x="365.0" y="306.0"/>
      <point x="365.0" y="354.0" type="curve" smooth="yes"/>
      <point x="365.0" y="396.0"/>
      <point x="392.0" y="422.0"/>
      <point x="437.0" y="422.0" type="curve" smooth="yes"/>
      <point x="460.0" y="422.0"/>
      <point x="490.0" y="416.0"/>
      <point x="509.0" y="407.0" type="curve"/>
      <point x="553.0" y="541.0" type="line"/>
      <point x="519.0" y="556.0"/>
      <point x="479.0" y="563.0"/>
      <point x="437.0" y="563.0" type="curve" smooth="yes"/>
      <point x="292.0" y="563.0"/>
      <point x="196.0" y="477.0"/>
      <point x="196.0" y="345.0" type="curve" smooth="yes"/>
      <point x="196.0" y="218.0"/>
      <point x="285.0" y="134.0"/>
    </contour>
  </outline>
</glyph>
<glyph name="ordfeminine" format="2">
  <advance width="399.0"/>
  <unicode hex="00AA"/>
  <outline>
    <contour>
      <point x="277.0" y="376.0" type="line"/>
      <point x="364.0" y="376.0" type="line"/>
      <point x="364.0" y="585.0" type="line" smooth="yes"/>
      <point x="364.0" y="692.0"/>
      <point x="304.0" y="750.0"/>
      <point x="186.0" y="750.0" type="curve" smooth="yes"/>
      <point x="130.0" y="750.0"/>
      <point x="71.0" y="737.0"/>
      <point x="26.0" y="714.0" type="curve"/>
      <point x="55.0" y="630.0" type="line"/>
      <point x="97.0" y="646.0"/>
      <point x="132.0" y="651.0"/>
      <point x="161.0" y="651.0" type="curve" smooth="yes"/>
      <point x="214.0" y="651.0"/>
      <point x="245.0" y="633.0"/>
      <point x="245.0" y="597.0" type="curve" smooth="yes"/>
      <point x="245.0" y="458.0" type="line"/>
    </contour>
    <contour>
      <point x="151.0" y="369.0" type="curve" smooth="yes"/>
      <point x="234.0" y="369.0"/>
      <point x="293.0" y="417.0"/>
      <point x="309.0" y="503.0" type="curve"/>
      <point x="270.0" y="518.0" type="line"/>
      <point x="263.0" y="485.0"/>
      <point x="229.0" y="462.0"/>
      <point x="192.0" y="462.0" type="curve" smooth="yes"/>
      <point x="164.0" y="462.0"/>
      <point x="143.0" y="476.0"/>
      <point x="143.0" y="497.0" type="curve" smooth="yes"/>
      <point x="143.0" y="523.0"/>
      <point x="176.0" y="533.0"/>
      <point x="265.0" y="533.0" type="curve"/>
      <point x="265.0" y="598.0" type="line"/>
      <point x="96.0" y="598.0"/>
      <point x="21.0" y="562.0"/>
      <point x="21.0" y="480.0" type="curve" smooth="yes"/>
      <point x="21.0" y="413.0"/>
      <point x="71.0" y="369.0"/>
    </contour>
  </outline>
</glyph>
<glyph name="guillemetleft" format="2">
  <advance width="624"/>
  <unicode hex="00AB"/>
  <outline>
    <contour>
      <point x="158" y="26" type="line"/>
      <point x="346" y="26" type="line"/>
      <point x="179" y="269" type="line"/>
      <point x="178" y="220" type="line"/>
      <point x="338" y="453" type="line"/>
      <point x="163" y="453" type="line"/>
      <point x="6" y="241" type="line"/>
    </contour>
    <contour>
      <point x="431" y="26" type="line"/>
      <point x="619" y="26" type="line"/>
      <point x="452" y="269" type="line"/>
      <point x="452" y="220" type="line"/>
      <point x="612" y="453" type="line"/>
      <point x="435" y="453" type="line"/>
      <point x="279" y="241" type="line"/>
    </contour>
  </outline>
</glyph>
<glyph name="logicalnot" format="2">
  <advance width="664.0"/>
  <unicode hex="00AC"/>
  <outline>
    <contour>
      <point x="50.0" y="284.0" type="line"/>
      <point x="584.0" y="284.0" type="line"/>
      <point x="584.0" y="419.0" type="line"/>
      <point x="50.0" y="419.0" type="line"/>
    </contour>
    <contour>
      <point x="415.0" y="142.0" type="line"/>
      <point x="583.0" y="142.0" type="line"/>
      <point x="583.0" y="343.0" type="line"/>
      <point x="415.0" y="343.0" type="line"/>
    </contour>
  </outline>
</glyph>
<glyph name="registered" format="2">
  <advance width="597.0"/>
  <unicode hex="00AE"/>
  <outline>
    <contour>
      <point x="296.0" y="266.0" type="curve" smooth="yes"/>
      <point x="450.0" y="266.0"/>
      <point x="553.0" y="365.0"/>
      <point x="553.0" y="515.0" type="curve" smooth="yes"/>
      <point x="553.0" y="663.0"/>
      <point x="452.0" y="762.0"/>
      <point x="301.0" y="762.0" type="curve" smooth="yes"/>
      <point x="147.0" y="762.0"/>
      <point x="44.0" y="661.0"/>
      <point x="44.0" y="510.0" type="curve" smooth="yes"/>
      <point x="44.0" y="363.0"/>
      <point x="145.0" y="266.0"/>
    </contour>
    <contour>
      <point x="302.0" y="336.0" type="curve" smooth="yes"/>
      <point x="191.0" y="336.0"/>
      <point x="115.0" y="408.0"/>
      <point x="115.0" y="516.0" type="curve" smooth="yes"/>
      <point x="115.0" y="622.0"/>
      <point x="188.0" y="692.0"/>
      <point x="296.0" y="692.0" type="curve" smooth="yes"/>
      <point x="407.0" y="692.0"/>
      <point x="482.0" y="620.0"/>
      <point x="482.0" y="510.0" type="curve" smooth="yes"/>
      <point x="482.0" y="405.0"/>
      <point x="409.0" y="336.0"/>
    </contour>
    <contour>
      <point x="190.0" y="380.0" type="line"/>
      <point x="273.0" y="380.0" type="line"/>
      <point x="273.0" y="658.0" type="line"/>
      <point x="190.0" y="658.0" type="line"/>
    </contour>
    <contour>
      <point x="245.0" y="471.0" type="line"/>
      <point x="306.0" y="471.0" type="line" smooth="yes"/>
      <point x="371.0" y="471.0"/>
      <point x="415.0" y="513.0"/>
      <point x="415.0" y="570.0" type="curve" smooth="yes"/>
      <point x="415.0" y="625.0"/>
      <point x="374.0" y="658.0"/>
      <point x="313.0" y="658.0" type="curve" smooth="yes"/>
      <point x="245.0" y="658.0" type="line"/>
      <point x="245.0" y="586.0" type="line"/>
      <point x="306.0" y="586.0" type="line" smooth="yes"/>
      <point x="321.0" y="586.0"/>
      <point x="331.0" y="577.0"/>
      <point x="331.0" y="563.0" type="curve" smooth="yes"/>
      <point x="331.0" y="550.0"/>
      <point x="323.0" y="540.0"/>
      <point x="312.0" y="540.0" type="curve" smooth="yes"/>
      <point x="245.0" y="540.0" type="line"/>
    </contour>
    <contour>
      <point x="341.0" y="380.0" type="line"/>
      <point x="438.0" y="380.0" type="line"/>
      <point x="357.0" y="516.0" type="line"/>
      <point x="263.0" y="516.0" type="line"/>
    </contour>
  </outline>
</glyph>
<glyph name="degree" format="2">
  <advance width="429.0"/>
  <unicode hex="00B0"/>
  <outline>
    <contour>
      <point x="212.0" y="399.0" type="curve" smooth="yes"/>
      <point x="311.0" y="399.0"/>
      <point x="376.0" y="464.0"/>
      <point x="376.0" y="561.0" type="curve" smooth="yes"/>
      <point x="376.0" y="656.0"/>
      <point x="312.0" y="719.0"/>
      <point x="217.0" y="719.0" type="curve" smooth="yes"/>
      <point x="118.0" y="719.0"/>
      <point x="52.0" y="654.0"/>
      <point x="52.0" y="557.0" type="curve" smooth="yes"/>
      <point x="52.0" y="462.0"/>
      <point x="116.0" y="399.0"/>
    </contour>
    <contour>
      <point x="217.0" y="507.0" type="curve" smooth="yes"/>
      <point x="182.0" y="507.0"/>
      <point x="160.0" y="529.0"/>
      <point x="160.0" y="561.0" type="curve" smooth="yes"/>
      <point x="160.0" y="592.0"/>
      <point x="180.0" y="612.0"/>
      <point x="212.0" y="612.0" type="curve" smooth="yes"/>
      <point x="246.0" y="612.0"/>
      <point x="268.0" y="590.0"/>
      <point x="268.0" y="557.0" type="curve" smooth="yes"/>
      <point x="268.0" y="527.0"/>
      <point x="248.0" y="507.0"/>
    </contour>
  </outline>
</glyph>
<glyph name="plusminus" format="2">
  <advance width="597.0"/>
  <unicode hex="00B1"/>
  <outline>
    <contour>
      <point x="226.0" y="199.0" type="line"/>
      <point x="366.0" y="199.0" type="line"/>
      <point x="366.0" y="654.0" type="line"/>
      <point x="226.0" y="654.0" type="line"/>
    </contour>
    <contour>
      <point x="50.0" y="36.0" type="line"/>
      <point x="547.0" y="36.0" type="line"/>
      <point x="547.0" y="166.0" type="line"/>
      <point x="50.0" y="166.0" type="line"/>
    </contour>
    <contour>
      <point x="50.0" y="350.0" type="line"/>
      <point x="547.0" y="350.0" type="line"/>
      <point x="547.0" y="490.0" type="line"/>
      <point x="50.0" y="490.0" type="line"/>
    </contour>
  </outline>
</glyph>
<glyph name="micro" format="2">
  <advance width="626.0"/>
  <unicode hex="00B5"/>
  <outline>
    <contour>
      <point x="316.0" y="-6.0" type="curve" smooth="yes"/>
      <point x="367.0" y="-6.0"/>
      <point x="424.0" y="25.0"/>
      <point x="452.0" y="91.0" type="curve"/>
      <point x="409.0" y="185.0" type="line"/>
      <point x="384.0" y="158.0"/>
      <point x="361.0" y="144.0"/>
      <point x="330.0" y="144.0" type="curve" smooth="yes"/>
      <point x="283.0" y="144.0"/>
      <point x="243.0" y="181.0"/>
      <point x="228.0" y="250.0" type="curve"/>
      <point x="200.0" y="149.0" type="line"/>
      <point x="207.0" y="24.0"/>
      <point x="264.0" y="-6.0"/>
    </contour>
    <contour>
      <point x="80.0" y="-217.0" type="line"/>
      <point x="250.0" y="-217.0" type="line"/>
      <point x="250.0" y="490.0" type="line"/>
      <point x="80.0" y="490.0" type="line"/>
    </contour>
    <contour>
      <point x="421.0" y="0.0" type="line"/>
      <point x="566.0" y="0.0" type="line"/>
      <point x="566.0" y="490.0" type="line"/>
      <point x="393.0" y="490.0" type="line"/>
      <point x="393.0" y="114.0" type="line"/>
    </contour>
  </outline>
</glyph>
<glyph name="paragraph" format="2">
  <advance width="758.0"/>
  <unicode hex="00B6"/>
  <outline>
    <contour>
      <point x="248.0" y="-177.0" type="line"/>
      <point x="406.0" y="-177.0" type="line"/>
      <point x="406.0" y="554.0" type="line"/>
      <point x="515.0" y="554.0" type="line"/>
      <point x="515.0" y="-177.0" type="line"/>
      <point x="678.0" y="-177.0" type="line"/>
      <point x="678.0" y="694.0" type="line"/>
      <point x="278.0" y="694.0" type="line" smooth="yes"/>
      <point x="127.0" y="694.0"/>
      <point x="27.0" y="604.0"/>
      <point x="27.0" y="454.0" type="curve" smooth="yes"/>
      <point x="27.0" y="313.0"/>
      <point x="115.0" y="209.0"/>
      <point x="248.0" y="209.0" type="curve"/>
    </contour>
  </outline>
</glyph>
<glyph name="ordmasculine" format="2">
  <advance width="428.0"/>
  <unicode hex="00BA"/>
  <outline>
    <contour>
      <point x="207.0" y="369.0" type="curve" smooth="yes"/>
      <point x="327.0" y="369.0"/>
      <point x="409.0" y="448.0"/>
      <point x="409.0" y="566.0" type="curve" smooth="yes"/>
      <point x="409.0" y="678.0"/>
      <point x="335.0" y="750.0"/>
      <point x="221.0" y="750.0" type="curve" smooth="yes"/>
      <point x="100.0" y="750.0"/>
      <point x="19.0" y="671.0"/>
      <point x="19.0" y="552.0" type="curve" smooth="yes"/>
      <point x="19.0" y="441.0"/>
      <point x="92.0" y="369.0"/>
    </contour>
    <contour>
      <point x="217.0" y="468.0" type="curve" smooth="yes"/>
      <point x="169.0" y="468.0"/>
      <point x="139.0" y="505.0"/>
      <point x="139.0" y="561.0" type="curve" smooth="yes"/>
      <point x="139.0" y="616.0"/>
      <point x="166.0" y="650.0"/>
      <point x="211.0" y="650.0" type="curve" smooth="yes"/>
      <point x="258.0" y="650.0"/>
      <point x="289.0" y="613.0"/>
      <point x="289.0" y="555.0" type="curve" smooth="yes"/>
      <point x="289.0" y="502.0"/>
      <point x="262.0" y="468.0"/>
    </contour>
  </outline>
</glyph>
<glyph name="guillemetright" format="2">
  <advance width="624"/>
  <unicode hex="00BB"/>
  <outline>
    <contour>
      <point x="285" y="26" type="line"/>
      <point x="462" y="26" type="line"/>
      <point x="618" y="242" type="line"/>
      <point x="465" y="453" type="line"/>
      <point x="277" y="453" type="line"/>
      <point x="445" y="212" type="line"/>
      <point x="445" y="261" type="line"/>
    </contour>
    <contour>
      <point x="12" y="26" type="line"/>
      <point x="189" y="26" type="line"/>
      <point x="345" y="242" type="line"/>
      <point x="192" y="453" type="line"/>
      <point x="4" y="453" type="line"/>
      <point x="172" y="212" type="line"/>
      <point x="173" y="261" type="line"/>
    </contour>
  </outline>
</glyph>
<glyph name="AE" format="2">
  <advance width="1023"/>
  <unicode hex="00C6"/>
  <anchor x="548" y="0" name="bottom"/>
  <anchor x="548" y="694" name="top"/>
  <outline>
    <contour>
      <point x="-4" y="0" type="line"/>
      <point x="186" y="0" type="line"/>
      <point x="576" y="694" type="line"/>
      <point x="413" y="694" type="line"/>
    </contour>
    <contour>
      <point x="202" y="149" type="line"/>
      <point x="520" y="149" type="line"/>
      <point x="520" y="305" type="line"/>
      <point x="202" y="305" type="line"/>
    </contour>
    <contour>
      <point x="480" y="0" type="line"/>
      <point x="653" y="0" type="line"/>
      <point x="653" y="694" type="line"/>
      <point x="480" y="694" type="line"/>
    </contour>
    <contour>
      <point x="560" y="0" type="line"/>
      <point x="978" y="0" type="line"/>
      <point x="978" y="152" type="line"/>
      <point x="560" y="152" type="line"/>
    </contour>
    <contour>
      <point x="560" y="278" type="line"/>
      <point x="950" y="278" type="line"/>
      <point x="950" y="430" type="line"/>
      <point x="560" y="430" type="line"/>
    </contour>
    <contour>
      <point x="560" y="542" type="line"/>
      <point x="978" y="542" type="line"/>
      <point x="978" y="694" type="line"/>
      <point x="560" y="694" type="line"/>
    </contour>
  </outline>
</glyph>
<glyph name="multiply" format="2">
  <advance width="576.0"/>
  <unicode hex="00D7"/>
  <outline>
    <contour>
      <point x="438.0" y="39.0" type="line"/>
      <point x="551.0" y="152.0" type="line"/>
      <point x="150.0" y="562.0" type="line"/>
      <point x="37.0" y="449.0" type="line"/>
    </contour>
    <contour>
      <point x="131.0" y="38.0" type="line"/>
      <point x="548.0" y="452.0" type="line"/>
      <point x="434.0" y="565.0" type="line"/>
      <point x="23.0" y="146.0" type="line"/>
    </contour>
  </outline>
</glyph>
<glyph name="Thorn" format="2">
  <advance width="626.0"/>
  <unicode hex="00DE"/>
  <outline>
    <contour>
      <point x="67.0" y="0.0" type="line"/>
      <point x="240.0" y="0.0" type="line"/>
      <point x="240.0" y="694.0" type="line"/>
      <point x="67.0" y="694.0" type="line"/>
    </contour>
    <contour>
      <point x="176.0" y="116.0" type="line"/>
      <point x="312.0" y="116.0" type="line" smooth="yes"/>
      <point x="490.0" y="116.0"/>
      <point x="609.0" y="216.0"/>
      <point x="609.0" y="365.0" type="curve" smooth="yes"/>
      <point x="609.0" y="510.0"/>
      <point x="495.0" y="606.0"/>
      <point x="326.0" y="606.0" type="curve" smooth="yes"/>
      <point x="176.0" y="606.0" type="line"/>
      <point x="176.0" y="454.0" type="line"/>
      <point x="317.0" y="454.0" type="line" smooth="yes"/>
      <point x="385.0" y="454.0"/>
      <point x="429.0" y="415.0"/>
      <point x="429.0" y="355.0" type="curve" smooth="yes"/>
      <point x="429.0" y="299.0"/>
      <point x="393.0" y="268.0"/>
      <point x="328.0" y="268.0" type="curve" smooth="yes"/>
      <point x="176.0" y="268.0" type="line"/>
    </contour>
  </outline>
</glyph>
<glyph name="germandbls" format="2">
  <advance width="663.0"/>
  <unicode hex="00DF"/>
  <outline>
    <contour>
      <point x="410.0" y="-10.0" type="curve" smooth="yes"/>
      <point x="553.0" y="-10.0"/>
      <point x="646.0" y="63.0"/>
      <point x="646.0" y="174.0" type="curve" smooth="yes"/>
      <point x="646.0" y="324.0"/>
      <point x="476.0" y="321.0"/>
      <point x="476.0" y="395.0" type="curve" smooth="yes"/>
      <point x="476.0" y="448.0"/>
      <point x="566.0" y="466.0"/>
      <point x="566.0" y="563.0" type="curve" smooth="yes"/>
      <point x="566.0" y="670.0"/>
      <point x="459.0" y="749.0"/>
      <point x="316.0" y="749.0" type="curve" smooth="yes"/>
      <point x="164.0" y="749.0"/>
      <point x="62.0" y="661.0"/>
      <point x="62.0" y="531.0" type="curve" smooth="yes"/>
      <point x="62.0" y="0.0" type="line"/>
      <point x="235.0" y="0.0" type="line"/>
      <point x="235.0" y="530.0" type="line" smooth="yes"/>
      <point x="235.0" y="577.0"/>
      <point x="263.0" y="605.0"/>
      <point x="311.0" y="605.0" type="curve" smooth="yes"/>
      <point x="357.0" y="605.0"/>
      <point x="391.0" y="579.0"/>
      <point x="391.0" y="544.0" type="curve" smooth="yes"/>
      <point x="391.0" y="486.0"/>
      <point x="300.0" y="468.0"/>
      <point x="300.0" y="366.0" type="curve" smooth="yes"/>
      <point x="300.0" y="226.0"/>
      <point x="470.0" y="216.0"/>
      <point x="470.0" y="165.0" type="curve" smooth="yes"/>
      <point x="470.0" y="144.0"/>
      <point x="442.0" y="130.0"/>
      <point x="401.0" y="130.0" type="curve" smooth="yes"/>
      <point x="368.0" y="130.0"/>
      <point x="333.0" y="138.0"/>
      <point x="300.0" y="155.0" type="curve"/>
      <point x="261.0" y="23.0" type="line"/>
      <point x="310.0" y="1.0"/>
      <point x="357.0" y="-10.0"/>
    </contour>
  </outline>
</glyph>
<glyph name="ae" format="2">
  <advance width="796.0"/>
  <unicode hex="00E6"/>
  <anchor x="397.0" y="0.0" name="bottom"/>
  <anchor x="397.0" y="490.0" name="top"/>
  <outline>
    <contour>
      <point x="313.0" y="255.0" type="line"/>
      <point x="446.0" y="255.0" type="line"/>
      <point x="446.0" y="282.0" type="line" smooth="yes"/>
      <point x="446.0" y="429.0"/>
      <point x="383.0" y="500.0"/>
      <point x="253.0" y="500.0" type="curve" smooth="yes"/>
      <point x="175.0" y="500.0"/>
      <point x="91.0" y="477.0"/>
      <point x="27.0" y="438.0" type="curve"/>
      <point x="65.0" y="321.0" type="line"/>
      <point x="117.0" y="345.0"/>
      <point x="173.0" y="359.0"/>
      <point x="217.0" y="359.0" type="curve" smooth="yes"/>
      <point x="278.0" y="359.0"/>
      <point x="313.0" y="331.0"/>
      <point x="313.0" y="282.0" type="curve" smooth="yes"/>
    </contour>
    <contour>
      <point x="186.0" y="-10.0" type="curve" smooth="yes"/>
      <point x="282.0" y="-10.0"/>
      <point x="354.0" y="43.0"/>
      <point x="415.0" y="155.0" type="curve"/>
      <point x="362.0" y="178.0" type="line"/>
      <point x="329.0" y="140.0"/>
      <point x="288.0" y="119.0"/>
      <point x="249.0" y="119.0" type="curve" smooth="yes"/>
      <point x="215.0" y="119.0"/>
      <point x="196.0" y="133.0"/>
      <point x="196.0" y="157.0" type="curve" smooth="yes"/>
      <point x="196.0" y="192.0"/>
      <point x="241.0" y="206.0"/>
      <point x="350.0" y="205.0" type="curve"/>
      <point x="350.0" y="299.0" type="line"/>
      <point x="144.0" y="300.0"/>
      <point x="22.0" y="236.0"/>
      <point x="22.0" y="126.0" type="curve" smooth="yes"/>
      <point x="22.0" y="44.0"/>
      <point x="88.0" y="-10.0"/>
    </contour>
    <contour>
      <point x="574.0" y="-10.0" type="curve" smooth="yes"/>
      <point x="634.0" y="-10.0"/>
      <point x="697.0" y="1.0"/>
      <point x="759.0" y="22.0" type="curve"/>
      <point x="720.0" y="141.0" type="line"/>
      <point x="680.0" y="127.0"/>
      <point x="640.0" y="120.0"/>
      <point x="603.0" y="120.0" type="curve" smooth="yes"/>
      <point x="507.0" y="120.0"/>
      <point x="464.0" y="165.0"/>
      <point x="464.0" y="263.0" type="curve" smooth="yes"/>
      <point x="464.0" y="334.0"/>
      <point x="487.0" y="369.0"/>
      <point x="533.0" y="369.0" type="curve" smooth="yes"/>
      <point x="574.0" y="369.0"/>
      <point x="598.0" y="343.0"/>
      <point x="598.0" y="299.0" type="curve"/>
      <point x="438.0" y="299.0" type="line"/>
      <point x="438.0" y="199.0" type="line"/>
      <point x="761.0" y="199.0" type="line"/>
      <point x="765.0" y="215.0"/>
      <point x="768.0" y="244.0"/>
      <point x="768.0" y="271.0" type="curve" smooth="yes"/>
      <point x="768.0" y="415.0"/>
      <point x="685.0" y="500.0"/>
      <point x="545.0" y="500.0" type="curve" smooth="yes"/>
      <point x="400.0" y="500.0"/>
      <point x="318.0" y="408.0"/>
      <point x="318.0" y="245.0" type="curve" smooth="yes"/>
      <point x="318.0" y="77.0"/>
      <point x="405.0" y="-10.0"/>
    </contour>
  </outline>
</glyph>
<glyph name="eth" format="2">
  <advance width="571.0"/>
  <unicode hex="00F0"/>
  <outline>
    <contour>
      <point x="272.0" y="-9.0" type="curve" smooth="yes"/>
      <point x="435.0" y="-9.0"/>
      <point x="533.0" y="101.0"/>
      <point x="533.0" y="285.0" type="curve" smooth="yes"/>
      <point x="533.0" y="494.0"/>
      <point x="401.0" y="654.0"/>
      <point x="149.0" y="750.0" type="curve"/>
      <point x="102.0" y="626.0" type="line"/>
      <point x="274.0" y="542.0"/>
      <point x="376.0" y="446.0"/>
      <point x="376.0" y="367.0" type="curve"/>
      <point x="463.0" y="282.0" type="line"/>
      <point x="463.0" y="372.0"/>
      <point x="371.0" y="447.0"/>
      <point x="252.0" y="447.0" type="curve" smooth="yes"/>
      <point x="116.0" y="447.0"/>
      <point x="25.0" y="354.0"/>
      <point x="25.0" y="215.0" type="curve" smooth="yes"/>
      <point x="25.0" y="81.0"/>
      <point x="124.0" y="-9.0"/>
    </contour>
    <contour>
      <point x="286.0" y="131.0" type="curve" smooth="yes"/>
      <point x="236.0" y="131.0"/>
      <point x="202.0" y="168.0"/>
      <point x="202.0" y="224.0" type="curve" smooth="yes"/>
      <point x="202.0" y="276.0"/>
      <point x="231.0" y="307.0"/>
      <point x="280.0" y="307.0" type="curve" smooth="yes"/>
      <point x="330.0" y="307.0"/>
      <point x="363.0" y="270.0"/>
      <point x="363.0" y="215.0" type="curve" smooth="yes"/>
      <point x="363.0" y="164.0"/>
      <point x="332.0" y="131.0"/>
    </contour>
    <contour>
      <point x="166.0" y="469.0" type="line"/>
      <point x="470.0" y="653.0" type="line"/>
      <point x="419.0" y="739.0" type="line"/>
      <point x="115.0" y="555.0" type="line"/>
    </contour>
  </outline>
</glyph>
<glyph name="divide" format="2">
  <advance width="600.0"/>
  <unicode hex="00F7"/>
  <outline>
    <contour>
      <point x="29.0" y="262.0" type="line"/>
      <point x="571.0" y="262.0" type="line"/>
      <point x="571.0" y="397.0" type="line"/>
      <point x="29.0" y="397.0" type="line"/>
    </contour>
    <contour>
      <point x="300.0" y="435.0" type="curve" smooth="yes"/>
      <point x="359.0" y="435.0"/>
      <point x="399.0" y="475.0"/>
      <point x="399.0" y="534.0" type="curve" smooth="yes"/>
      <point x="399.0" y="594.0"/>
      <point x="359.0" y="634.0"/>
      <point x="300.0" y="634.0" type="curve" smooth="yes"/>
      <point x="241.0" y="634.0"/>
      <point x="201.0" y="594.0"/>
      <point x="201.0" y="534.0" type="curve" smooth="yes"/>
      <point x="201.0" y="475.0"/>
      <point x="241.0" y="435.0"/>
    </contour>
    <contour>
      <point x="300.0" y="25.0" type="curve" smooth="yes"/>
      <point x="359.0" y="25.0"/>
      <point x="399.0" y="65.0"/>
      <point x="399.0" y="124.0" type="curve" smooth="yes"/>
      <point x="399.0" y="184.0"/>
      <point x="359.0" y="224.0"/>
      <point x="300.0" y="224.0" type="curve" smooth="yes"/>
      <point x="241.0" y="224.0"/>
      <point x="201.0" y="184.0"/>
      <point x="201.0" y="124.0" type="curve" smooth="yes"/>
      <point x="201.0" y="65.0"/>
      <point x="241.0" y="25.0"/>
    </contour>
  </outline>
</glyph>
<glyph name="oslash" format="2">
  <advance width="567.0"/>
  <unicode hex="00F8"/>
  <anchor x="284.0" y="490.0" name="top"/>
  <outline>
    <contour>
      <point x="275.0" y="-10.0" type="curve" smooth="yes"/>
      <point x="439.0" y="-10.0"/>
      <point x="549.0" y="96.0"/>
      <point x="549.0" y="254.0" type="curve" smooth="yes"/>
      <point x="549.0" y="403.0"/>
      <point x="449.0" y="500.0"/>
      <point x="293.0" y="500.0" type="curve" smooth="yes"/>
      <point x="128.0" y="500.0"/>
      <point x="18.0" y="394.0"/>
      <point x="18.0" y="235.0" type="curve" smooth="yes"/>
      <point x="18.0" y="87.0"/>
      <point x="118.0" y="-10.0"/>
    </contour>
    <contour>
      <point x="286.0" y="134.0" type="curve" smooth="yes"/>
      <point x="226.0" y="134.0"/>
      <point x="191.0" y="176.0"/>
      <point x="191.0" y="246.0" type="curve" smooth="yes"/>
      <point x="191.0" y="315.0"/>
      <point x="224.0" y="356.0"/>
      <point x="281.0" y="356.0" type="curve" smooth="yes"/>
      <point x="341.0" y="356.0"/>
      <point x="376.0" y="313.0"/>
      <point x="376.0" y="240.0" type="curve" smooth="yes"/>
      <point x="376.0" y="173.0"/>
      <point x="343.0" y="134.0"/>
    </contour>
    <contour>
      <point x="127.0" y="-62.0" type="line"/>
      <point x="512.0" y="509.0" type="line"/>
      <point x="440.0" y="552.0" type="line"/>
      <point x="57.0" y="-19.0" type="line"/>
    </contour>
  </outline>
</glyph>
<glyph name="thorn" format="2">
  <advance width="574.0"/>
  <unicode hex="00FE"/>
  <outline>
    <contour>
      <point x="54.0" y="-217.0" type="line"/>
      <point x="219.0" y="-217.0" type="line"/>
      <point x="219.0" y="739.0" type="line"/>
      <point x="54.0" y="739.0" type="line"/>
    </contour>
    <contour>
      <point x="328.0" y="-10.0" type="curve" smooth="yes"/>
      <point x="457.0" y="-10.0"/>
      <point x="554.0" y="101.0"/>
      <point x="554.0" y="251.0" type="curve" smooth="yes"/>
      <point x="554.0" y="396.0"/>
      <point x="463.0" y="500.0"/>
      <point x="337.0" y="500.0" type="curve" smooth="yes"/>
      <point x="253.0" y="500.0"/>
      <point x="189.0" y="452.0"/>
      <point x="157.0" y="372.0" type="curve"/>
      <point x="203.0" y="305.0" type="line"/>
      <point x="219.0" y="337.0"/>
      <point x="250.0" y="356.0"/>
      <point x="286.0" y="356.0" type="curve" smooth="yes"/>
      <point x="344.0" y="356.0"/>
      <point x="378.0" y="310.0"/>
      <point x="378.0" y="241.0" type="curve" smooth="yes"/>
      <point x="378.0" y="176.0"/>
      <point x="347.0" y="134.0"/>
      <point x="291.0" y="134.0" type="curve" smooth="yes"/>
      <point x="255.0" y="134.0"/>
      <point x="224.0" y="152.0"/>
      <point x="206.0" y="182.0" type="curve"/>
      <point x="167.0" y="88.0" type="line"/>
      <point x="200.0" y="26.0"/>
      <point x="256.0" y="-10.0"/>
    </contour>
  </outline>
</glyph>
<glyph name="idotless" format="2">
  <advance width="287.0"/>
  <unicode hex="0131"/>
  <note>
dotlessi
</note>
  <anchor x="144.0" y="0.0" name="bottom"/>
  <anchor x="183.0" y="10.0" name="ogonek"/>
  <anchor x="144.0" y="490.0" name="top"/>
  <outline>
    <contour>
      <point x="57.0" y="0.0" type="line"/>
      <point x="230.0" y="0.0" type="line"/>
      <point x="230.0" y="490.0" type="line"/>
      <point x="57.0" y="490.0" type="line"/>
    </contour>
  </outline>
</glyph>
<glyph name="kgreenlandic" format="2">
  <advance width="592"/>
  <unicode hex="0138"/>
  <outline>
    <contour>
      <point x="63" y="0" type="line"/>
      <point x="236" y="0" type="line"/>
      <point x="236" y="490" type="line"/>
      <point x="63" y="490" type="line"/>
    </contour>
    <contour>
      <point x="372" y="0" type="line"/>
      <point x="592" y="0" type="line"/>
      <point x="405" y="295" type="line"/>
      <point x="397" y="238" type="line"/>
      <point x="576" y="490" type="line"/>
      <point x="377" y="490" type="line"/>
      <point x="220" y="257" type="line"/>
    </contour>
  </outline>
</glyph>
<glyph name="Eng" format="2">
  <advance width="785.0"/>
  <unicode hex="014A"/>
  <outline>
    <contour>
      <point x="67.0" y="0.0" type="line"/>
      <point x="230.0" y="0.0" type="line"/>
      <point x="230.0" y="470.0" type="line"/>
      <point x="218.0" y="460.0" type="line"/>
      <point x="566.0" y="-37.0" type="line"/>
      <point x="718.0" y="0.0" type="line"/>
      <point x="718.0" y="694.0" type="line"/>
      <point x="555.0" y="694.0" type="line"/>
      <point x="553.0" y="216.0" type="line"/>
      <point x="574.0" y="219.0" type="line"/>
      <point x="259.0" y="694.0" type="line"/>
      <point x="67.0" y="694.0" type="line"/>
    </contour>
    <contour>
      <point x="555.0" y="-243.0" type="line"/>
      <point x="659.0" y="-213.0"/>
      <point x="718.0" y="-121.0"/>
      <point x="718.0" y="-13.0" type="curve" smooth="yes"/>
      <point x="718.0" y="0.0" type="line"/>
      <point x="555.0" y="0.0" type="line"/>
      <point x="555.0" y="-25.0" type="line" smooth="yes"/>
      <point x="555.0" y="-82.0"/>
      <point x="535.0" y="-127.0"/>
      <point x="500.0" y="-147.0" type="curve"/>
    </contour>
  </outline>
</glyph>
<glyph name="eng" format="2">
  <advance width="601"/>
  <unicode hex="014B"/>
  <outline>
    <contour>
      <point x="63" y="0" type="line"/>
      <point x="236" y="0" type="line"/>
      <point x="236" y="376" type="line"/>
      <point x="188" y="490" type="line"/>
      <point x="63" y="490" type="line"/>
    </contour>
    <contour>
      <point x="375" y="0" type="line"/>
      <point x="548" y="0" type="line"/>
      <point x="548" y="304" type="line" smooth="yes"/>
      <point x="548" y="422"/>
      <point x="480" y="496"/>
      <point x="372" y="496" type="curve" smooth="yes"/>
      <point x="302" y="496"/>
      <point x="241" y="465"/>
      <point x="201" y="408" type="curve"/>
      <point x="220" y="305" type="line"/>
      <point x="245" y="332"/>
      <point x="273" y="346"/>
      <point x="307" y="346" type="curve" smooth="yes"/>
      <point x="354" y="346"/>
      <point x="375" y="320"/>
      <point x="375" y="265" type="curve" smooth="yes"/>
    </contour>
    <contour>
      <point x="375" y="-227" type="line"/>
      <point x="479" y="-197"/>
      <point x="548" y="-111"/>
      <point x="548" y="-13" type="curve" smooth="yes"/>
      <point x="548" y="0" type="line"/>
      <point x="375" y="0" type="line"/>
      <point x="375" y="-25" type="line" smooth="yes"/>
      <point x="375" y="-70"/>
      <point x="353" y="-112"/>
      <point x="320" y="-131" type="curve"/>
    </contour>
  </outline>
</glyph>
<glyph name="OE" format="2">
  <advance width="1043.0"/>
  <unicode hex="0152"/>
  <anchor x="605.0" y="0.0" name="bottom"/>
  <anchor x="605.0" y="694.0" name="top"/>
  <outline>
    <contour>
      <point x="404.0" y="-10.0" type="curve" smooth="yes"/>
      <point x="482.0" y="-10.0"/>
      <point x="555.0" y="7.0"/>
      <point x="610.0" y="38.0" type="curve"/>
      <point x="519.0" y="167.0" type="line"/>
      <point x="491.0" y="150.0"/>
      <point x="455.0" y="140.0"/>
      <point x="413.0" y="140.0" type="curve" smooth="yes"/>
      <point x="289.0" y="140.0"/>
      <point x="206.0" y="224.0"/>
      <point x="206.0" y="351.0" type="curve" smooth="yes"/>
      <point x="206.0" y="473.0"/>
      <point x="283.0" y="554.0"/>
      <point x="403.0" y="554.0" type="curve" smooth="yes"/>
      <point x="443.0" y="554.0"/>
      <point x="480.0" y="545.0"/>
      <point x="510.0" y="528.0" type="curve"/>
      <point x="610.0" y="660.0" type="line"/>
      <point x="557.0" y="688.0"/>
      <point x="488.0" y="704.0"/>
      <point x="413.0" y="704.0" type="curve" smooth="yes"/>
      <point x="180.0" y="704.0"/>
      <point x="26.0" y="559.0"/>
      <point x="26.0" y="341.0" type="curve" smooth="yes"/>
      <point x="26.0" y="130.0"/>
      <point x="176.0" y="-10.0"/>
    </contour>
    <contour>
      <point x="500.0" y="0.0" type="line"/>
      <point x="673.0" y="0.0" type="line"/>
      <point x="673.0" y="694.0" type="line"/>
      <point x="500.0" y="694.0" type="line"/>
    </contour>
    <contour>
      <point x="580.0" y="0.0" type="line"/>
      <point x="998.0" y="0.0" type="line"/>
      <point x="998.0" y="152.0" type="line"/>
      <point x="580.0" y="152.0" type="line"/>
    </contour>
    <contour>
      <point x="580.0" y="278.0" type="line"/>
      <point x="970.0" y="278.0" type="line"/>
      <point x="970.0" y="430.0" type="line"/>
      <point x="580.0" y="430.0" type="line"/>
    </contour>
    <contour>
      <point x="580.0" y="542.0" type="line"/>
      <point x="998.0" y="542.0" type="line"/>
      <point x="998.0" y="694.0" type="line"/>
      <point x="580.0" y="694.0" type="line"/>
    </contour>
  </outline>
</glyph>
<glyph name="oe" format="2">
  <advance width="881.0"/>
  <unicode hex="0153"/>
  <anchor x="481.0" y="0.0" name="bottom"/>
  <anchor x="481.0" y="490.0" name="top"/>
  <outline>
    <contour>
      <point x="259.0" y="-10.0" type="curve" smooth="yes"/>
      <point x="404.0" y="-10.0"/>
      <point x="499.0" y="94.0"/>
      <point x="499.0" y="253.0" type="curve" smooth="yes"/>
      <point x="499.0" y="405.0"/>
      <point x="412.0" y="500.0"/>
      <point x="274.0" y="500.0" type="curve" smooth="yes"/>
      <point x="124.0" y="500.0"/>
      <point x="18.0" y="391.0"/>
      <point x="18.0" y="237.0" type="curve" smooth="yes"/>
      <point x="18.0" y="90.0"/>
      <point x="115.0" y="-10.0"/>
    </contour>
    <contour>
      <point x="286.0" y="134.0" type="curve" smooth="yes"/>
      <point x="231.0" y="134.0"/>
      <point x="194.0" y="179.0"/>
      <point x="194.0" y="246.0" type="curve" smooth="yes"/>
      <point x="194.0" y="313.0"/>
      <point x="228.0" y="356.0"/>
      <point x="281.0" y="356.0" type="curve" smooth="yes"/>
      <point x="336.0" y="356.0"/>
      <point x="373.0" y="310.0"/>
      <point x="373.0" y="240.0" type="curve" smooth="yes"/>
      <point x="373.0" y="176.0"/>
      <point x="339.0" y="134.0"/>
    </contour>
    <contour>
      <point x="663.0" y="-10.0" type="curve" smooth="yes"/>
      <point x="718.0" y="-10.0"/>
      <point x="782.0" y="1.0"/>
      <point x="844.0" y="22.0" type="curve"/>
      <point x="806.0" y="139.0" type="line"/>
      <point x="765.0" y="125.0"/>
      <point x="726.0" y="118.0"/>
      <point x="686.0" y="118.0" type="curve" smooth="yes"/>
      <point x="589.0" y="118.0"/>
      <point x="544.0" y="160.0"/>
      <point x="544.0" y="261.0" type="curve" smooth="yes"/>
      <point x="544.0" y="337.0"/>
      <point x="572.0" y="373.0"/>
      <point x="619.0" y="373.0" type="curve" smooth="yes"/>
      <point x="660.0" y="373.0"/>
      <point x="690.0" y="347.0"/>
      <point x="690.0" y="297.0" type="curve"/>
      <point x="523.0" y="297.0" type="line"/>
      <point x="523.0" y="197.0" type="line"/>
      <point x="846.0" y="197.0" type="line"/>
      <point x="850.0" y="222.0"/>
      <point x="853.0" y="247.0"/>
      <point x="853.0" y="273.0" type="curve" smooth="yes"/>
      <point x="853.0" y="416.0"/>
      <point x="769.0" y="500.0"/>
      <point x="635.0" y="500.0" type="curve" smooth="yes"/>
      <point x="483.0" y="500.0"/>
      <point x="373.0" y="394.0"/>
      <point x="373.0" y="248.0" type="curve" smooth="yes"/>
      <point x="373.0" y="96.0"/>
      <point x="492.0" y="-10.0"/>
    </contour>
  </outline>
</glyph>
<glyph name="Schwa" format="2">
  <advance width="741.0"/>
  <unicode hex="018F"/>
  <anchor x="376.0" y="0.0" name="bottom"/>
  <anchor x="376.0" y="694.0" name="top"/>
  <outline>
    <contour>
      <point x="317.0" y="704.0" type="curve" smooth="yes"/>
      <point x="227.0" y="704.0"/>
      <point x="140.0" y="685.0"/>
      <point x="60.0" y="648.0" type="curve"/>
      <point x="99.0" y="517.0" type="line"/>
      <point x="159.0" y="541.0"/>
      <point x="225.0" y="554.0"/>
      <point x="288.0" y="554.0" type="curve" smooth="yes"/>
      <point x="444.0" y="554.0"/>
      <point x="523.0" y="483.0"/>
      <point x="523.0" y="315.0" type="curve" smooth="yes"/>
      <point x="523.0" y="192.0"/>
      <point x="469.0" y="140.0"/>
      <point x="363.0" y="140.0" type="curve" smooth="yes"/>
      <point x="267.0" y="140.0"/>
      <point x="211.0" y="180.0"/>
      <point x="211.0" y="272.0" type="curve"/>
      <point x="552.0" y="272.0" type="line"/>
      <point x="552.0" y="414.0" type="line"/>
      <point x="53.0" y="414.0" type="line"/>
      <point x="48.0" y="370.0"/>
      <point x="45.0" y="324.0"/>
      <point x="45.0" y="280.0" type="curve" smooth="yes"/>
      <point x="45.0" y="105.0"/>
      <point x="163.0" y="-10.0"/>
      <point x="350.0" y="-10.0" type="curve" smooth="yes"/>
      <point x="560.0" y="-10.0"/>
      <point x="703.0" y="133.0"/>
      <point x="703.0" y="350.0" type="curve" smooth="yes"/>
      <point x="703.0" y="571.0"/>
      <point x="556.0" y="704.0"/>
    </contour>
  </outline>
</glyph>
<glyph name="florin" format="2">
  <advance width="489.0"/>
  <unicode hex="0192"/>
  <outline>
    <contour>
      <point x="107.0" y="0.0" type="line"/>
      <point x="280.0" y="0.0" type="line"/>
      <point x="280.0" y="534.0" type="line" smooth="yes"/>
      <point x="280.0" y="581.0"/>
      <point x="307.0" y="607.0"/>
      <point x="354.0" y="607.0" type="curve" smooth="yes"/>
      <point x="376.0" y="607.0"/>
      <point x="404.0" y="601.0"/>
      <point x="431.0" y="589.0" type="curve"/>
      <point x="467.0" y="723.0" type="line"/>
      <point x="436.0" y="740.0"/>
      <point x="390.0" y="749.0"/>
      <point x="342.0" y="749.0" type="curve" smooth="yes"/>
      <point x="196.0" y="749.0"/>
      <point x="107.0" y="662.0"/>
      <point x="107.0" y="518.0" type="curve" smooth="yes"/>
    </contour>
    <contour>
      <point x="28.0" y="355.0" type="line"/>
      <point x="417.0" y="355.0" type="line"/>
      <point x="417.0" y="490.0" type="line"/>
      <point x="28.0" y="490.0" type="line"/>
    </contour>
    <contour>
      <point x="107.0" y="-227.0" type="line"/>
      <point x="211.0" y="-197.0"/>
      <point x="280.0" y="-111.0"/>
      <point x="280.0" y="-13.0" type="curve" smooth="yes"/>
      <point x="280.0" y="0.0" type="line"/>
      <point x="107.0" y="0.0" type="line"/>
      <point x="107.0" y="-25.0" type="line" smooth="yes"/>
      <point x="107.0" y="-70.0"/>
      <point x="85.0" y="-112.0"/>
      <point x="52.0" y="-131.0" type="curve"/>
    </contour>
  </outline>
</glyph>
<glyph name="jdotless" format="2">
  <advance width="299"/>
  <unicode hex="0237"/>
  <note>
uni0237
</note>
  <anchor x="140" y="0" name="bottom"/>
  <anchor x="150" y="490" name="top"/>
  <outline>
    <contour>
      <point x="30" y="-232" type="line"/>
      <point x="154" y="-191"/>
      <point x="236" y="-88"/>
      <point x="236" y="26" type="curve" smooth="yes"/>
      <point x="236" y="490" type="line"/>
      <point x="63" y="490" type="line"/>
      <point x="63" y="26" type="line" smooth="yes"/>
      <point x="63" y="-39"/>
      <point x="32" y="-100"/>
      <point x="-20" y="-138" type="curve"/>
    </contour>
  </outline>
</glyph>
<glyph name="ringhalfright" format="2">
  <advance width="233.0"/>
  <unicode hex="02BE"/>
  <outline>
    <contour>
      <point x="57.0" y="548.0" type="line"/>
      <point x="146.0" y="549.0"/>
      <point x="193.0" y="587.0"/>
      <point x="193.0" y="659.0" type="curve" smooth="yes"/>
      <point x="193.0" y="729.0"/>
      <point x="146.0" y="766.0"/>
      <point x="57.0" y="766.0" type="curve"/>
      <point x="57.0" y="687.0" type="line"/>
      <point x="84.0" y="687.0"/>
      <point x="98.0" y="677.0"/>
      <point x="98.0" y="658.0" type="curve" smooth="yes"/>
      <point x="98.0" y="639.0"/>
      <point x="83.0" y="628.0"/>
      <point x="57.0" y="627.0" type="curve"/>
    </contour>
  </outline>
</glyph>
<glyph name="gravecomb" format="2">
  <unicode hex="0300"/>
  <anchor x="198.0" y="490.0" name="_top"/>
  <anchor x="176.0" y="724.0" name="top"/>
  <anchor x="285.0" y="566.0" name="top_dot"/>
  <outline>
    <contour>
      <point x="181.0" y="532.0" type="line"/>
      <point x="262.0" y="599.0" type="line"/>
      <point x="144.0" y="778.0" type="line"/>
      <point x="18.0" y="676.0" type="line"/>
    </contour>
  </outline>
</glyph>
<glyph name="acutecomb" format="2">
  <unicode hex="0301"/>
  <anchor x="96.0" y="490.0" name="_top"/>
  <anchor x="114.0" y="724.0" name="top"/>
  <anchor x="-6.0" y="566.0" name="top_dot"/>
  <outline>
    <contour>
      <point x="104.0" y="532.0" type="line"/>
      <point x="267.0" y="676.0" type="line"/>
      <point x="141.0" y="778.0" type="line"/>
      <point x="23.0" y="599.0" type="line"/>
    </contour>
  </outline>
</glyph>
<glyph name="circumflexcomb" format="2">
  <unicode hex="0302"/>
  <anchor x="203.0" y="490.0" name="_top"/>
  <anchor x="203.0" y="724.0" name="top"/>
  <anchor x="379.0" y="648.0" name="top_viet"/>
  <outline>
    <contour>
      <point x="20.0" y="594.0" type="line"/>
      <point x="89.0" y="535.0" type="line"/>
      <point x="198.0" y="618.0" type="line"/>
      <point x="302.0" y="534.0" type="line"/>
      <point x="398.0" y="625.0" type="line"/>
      <point x="251.0" y="762.0" type="line"/>
      <point x="166.0" y="762.0" type="line"/>
    </contour>
  </outline>
</glyph>
<glyph name="tildecomb" format="2">
  <unicode hex="0303"/>
  <anchor x="235.0" y="490.0" name="_top"/>
  <anchor x="235.0" y="701.0" name="top"/>
  <outline>
    <contour>
      <point x="141.0" y="551.0" type="line"/>
      <point x="150.0" y="582.0"/>
      <point x="167.0" y="598.0"/>
      <point x="182.0" y="598.0" type="curve" smooth="yes"/>
      <point x="212.0" y="598.0"/>
      <point x="237.0" y="558.0"/>
      <point x="295.0" y="558.0" type="curve" smooth="yes"/>
      <point x="370.0" y="558.0"/>
      <point x="428.0" y="616.0"/>
      <point x="439.0" y="707.0" type="curve"/>
      <point x="334.0" y="734.0" type="line"/>
      <point x="325.0" y="704.0"/>
      <point x="309.0" y="690.0"/>
      <point x="291.0" y="690.0" type="curve" smooth="yes"/>
      <point x="263.0" y="690.0"/>
      <point x="223.0" y="732.0"/>
      <point x="171.0" y="732.0" type="curve" smooth="yes"/>
      <point x="102.0" y="732.0"/>
      <point x="48.0" y="670.0"/>
      <point x="35.0" y="576.0" type="curve"/>
    </contour>
  </outline>
</glyph>
<glyph name="macroncomb" format="2">
  <unicode hex="0304"/>
  <anchor x="242.0" y="490.0" name="_top"/>
  <anchor x="242.0" y="690.0" name="top"/>
  <outline>
    <contour>
      <point x="62.0" y="577.0" type="line"/>
      <point x="422.0" y="577.0" type="line"/>
      <point x="422.0" y="713.0" type="line"/>
      <point x="62.0" y="713.0" type="line"/>
    </contour>
  </outline>
</glyph>
<glyph name="brevecomb" format="2">
  <unicode hex="0306"/>
  <anchor x="216.0" y="490.0" name="_top"/>
  <anchor x="216.0" y="729.0" name="top"/>
  <outline>
    <contour>
      <point x="217.0" y="541.0" type="curve" smooth="yes"/>
      <point x="318.0" y="541.0"/>
      <point x="393.0" y="609.0"/>
      <point x="410.0" y="716.0" type="curve"/>
      <point x="329.0" y="772.0" type="line"/>
      <point x="324.0" y="708.0"/>
      <point x="286.0" y="671.0"/>
      <point x="236.0" y="671.0" type="curve" smooth="yes"/>
      <point x="184.0" y="671.0"/>
      <point x="145.0" y="711.0"/>
      <point x="139.0" y="771.0" type="curve"/>
      <point x="15.0" y="694.0" type="line"/>
      <point x="29.0" y="599.0"/>
      <point x="112.0" y="541.0"/>
    </contour>
  </outline>
</glyph>
<glyph name="dotaccentcomb" format="2">
  <unicode hex="0307"/>
  <anchor x="144.0" y="490.0" name="_top"/>
  <anchor x="144.0" y="718.0" name="top"/>
  <outline>
    <contour>
      <point x="144.0" y="557.0" type="curve" smooth="yes"/>
      <point x="203.0" y="557.0"/>
      <point x="243.0" y="597.0"/>
      <point x="243.0" y="656.0" type="curve" smooth="yes"/>
      <point x="243.0" y="716.0"/>
      <point x="203.0" y="756.0"/>
      <point x="144.0" y="756.0" type="curve" smooth="yes"/>
      <point x="85.0" y="756.0"/>
      <point x="45.0" y="716.0"/>
      <point x="45.0" y="656.0" type="curve" smooth="yes"/>
      <point x="45.0" y="597.0"/>
      <point x="85.0" y="557.0"/>
    </contour>
  </outline>
</glyph>
<glyph name="dieresiscomb" format="2">
  <unicode hex="0308"/>
  <anchor x="269.0" y="490.0" name="_top"/>
  <anchor x="269.0" y="726.0" name="top"/>
  <outline>
    <contour>
      <point x="144.0" y="557.0" type="curve" smooth="yes"/>
      <point x="203.0" y="557.0"/>
      <point x="243.0" y="597.0"/>
      <point x="243.0" y="656.0" type="curve" smooth="yes"/>
      <point x="243.0" y="716.0"/>
      <point x="203.0" y="756.0"/>
      <point x="144.0" y="756.0" type="curve" smooth="yes"/>
      <point x="85.0" y="756.0"/>
      <point x="45.0" y="716.0"/>
      <point x="45.0" y="656.0" type="curve" smooth="yes"/>
      <point x="45.0" y="597.0"/>
      <point x="85.0" y="557.0"/>
    </contour>
    <contour>
      <point x="394.0" y="557.0" type="curve" smooth="yes"/>
      <point x="453.0" y="557.0"/>
      <point x="493.0" y="597.0"/>
      <point x="493.0" y="656.0" type="curve" smooth="yes"/>
      <point x="493.0" y="716.0"/>
      <point x="453.0" y="756.0"/>
      <point x="394.0" y="756.0" type="curve" smooth="yes"/>
      <point x="335.0" y="756.0"/>
      <point x="295.0" y="716.0"/>
      <point x="295.0" y="656.0" type="curve" smooth="yes"/>
      <point x="295.0" y="597.0"/>
      <point x="335.0" y="557.0"/>
    </contour>
  </outline>
</glyph>
<glyph name="hookabovecomb" format="2">
  <unicode hex="0309"/>
  <anchor x="154.0" y="490.0" name="_top"/>
  <anchor x="146.0" y="798.0" name="top"/>
  <outline>
    <contour>
      <point x="127.0" y="545.0" type="line"/>
      <point x="216.0" y="581.0"/>
      <point x="269.0" y="642.0"/>
      <point x="269.0" y="709.0" type="curve" smooth="yes"/>
      <point x="269.0" y="773.0"/>
      <point x="219.0" y="815.0"/>
      <point x="143.0" y="815.0" type="curve" smooth="yes"/>
      <point x="104.0" y="815.0"/>
      <point x="61.0" y="804.0"/>
      <point x="17.0" y="783.0" type="curve"/>
      <point x="56.0" y="681.0" type="line"/>
      <point x="75.0" y="691.0"/>
      <point x="92.0" y="696.0"/>
      <point x="107.0" y="696.0" type="curve" smooth="yes"/>
      <point x="127.0" y="696.0"/>
      <point x="140.0" y="686.0"/>
      <point x="140.0" y="671.0" type="curve" smooth="yes"/>
      <point x="140.0" y="650.0"/>
      <point x="126.0" y="633.0"/>
      <point x="99.0" y="622.0" type="curve"/>
    </contour>
  </outline>
</glyph>
<glyph name="ringcomb" format="2">
  <unicode hex="030A"/>
  <anchor x="166.0" y="490.0" name="_top"/>
  <anchor x="169.0" y="747.0" name="top"/>
  <outline>
    <contour>
      <point x="166.0" y="547.0" type="curve" smooth="yes"/>
      <point x="245.0" y="547.0"/>
      <point x="297.0" y="600.0"/>
      <point x="297.0" y="680.0" type="curve" smooth="yes"/>
      <point x="297.0" y="756.0"/>
      <point x="245.0" y="806.0"/>
      <point x="168.0" y="806.0" type="curve" smooth="yes"/>
      <point x="89.0" y="806.0"/>
      <point x="37.0" y="755.0"/>
      <point x="37.0" y="678.0" type="curve" smooth="yes"/>
      <point x="37.0" y="599.0"/>
      <point x="89.0" y="547.0"/>
    </contour>
    <contour>
      <point x="168.0" y="633.0" type="curve" smooth="yes"/>
      <point x="142.0" y="633.0"/>
      <point x="124.0" y="652.0"/>
      <point x="124.0" y="680.0" type="curve" smooth="yes"/>
      <point x="124.0" y="704.0"/>
      <point x="141.0" y="720.0"/>
      <point x="166.0" y="720.0" type="curve" smooth="yes"/>
      <point x="192.0" y="720.0"/>
      <point x="210.0" y="703.0"/>
      <point x="210.0" y="678.0" type="curve" smooth="yes"/>
      <point x="210.0" y="651.0"/>
      <point x="193.0" y="633.0"/>
    </contour>
  </outline>
</glyph>
<glyph name="hungarumlautcomb" format="2">
  <unicode hex="030B"/>
  <anchor x="215.0" y="490.0" name="_top"/>
  <anchor x="215.0" y="799.0" name="top"/>
  <outline>
    <contour>
      <point x="345.0" y="527.0" type="line"/>
      <point x="480.0" y="697.0" type="line"/>
      <point x="339.0" y="775.0" type="line"/>
      <point x="254.0" y="579.0" type="line"/>
    </contour>
    <contour>
      <point x="127.0" y="527.0" type="line"/>
      <point x="262.0" y="697.0" type="line"/>
      <point x="120.0" y="776.0" type="line"/>
      <point x="35.0" y="579.0" type="line"/>
    </contour>
  </outline>
</glyph>
<glyph name="caroncomb" format="2">
  <unicode hex="030C"/>
  <anchor x="206.0" y="490.0" name="_top"/>
  <anchor x="206.0" y="690.0" name="top"/>
  <outline>
    <contour>
      <point x="166.0" y="547.0" type="line"/>
      <point x="252.0" y="547.0" type="line"/>
      <point x="394.0" y="714.0" type="line"/>
      <point x="326.0" y="772.0" type="line"/>
      <point x="218.0" y="679.0" type="line"/>
      <point x="115.0" y="773.0" type="line"/>
      <point x="15.0" y="683.0" type="line"/>
    </contour>
  </outline>
</glyph>
<glyph name="verticallineabovecomb" format="2">
  <unicode hex="030D"/>
  <anchor x="113.0" y="490.0" name="_top"/>
  <anchor x="113.0" y="760.0" name="top"/>
  <outline>
    <contour>
      <point x="180.0" y="760.0" type="line"/>
      <point x="45.0" y="760.0" type="line"/>
      <point x="54.0" y="556.0" type="line"/>
      <point x="170.0" y="556.0" type="line"/>
    </contour>
  </outline>
</glyph>
<glyph name="dblgravecomb" format="2">
  <unicode hex="030F"/>
  <anchor x="301.0" y="490.0" name="_top"/>
  <anchor x="301.0" y="799.0" name="top"/>
  <outline>
    <contour>
      <point x="159.0" y="527.0" type="line"/>
      <point x="250.0" y="579.0" type="line"/>
      <point x="165.0" y="775.0" type="line"/>
      <point x="24.0" y="697.0" type="line"/>
    </contour>
    <contour>
      <point x="378.0" y="527.0" type="line"/>
      <point x="469.0" y="579.0" type="line"/>
      <point x="384.0" y="776.0" type="line"/>
      <point x="242.0" y="697.0" type="line"/>
    </contour>
  </outline>
</glyph>
<glyph name="breveinvertedcomb" format="2">
  <unicode hex="0311"/>
  <anchor x="226.0" y="490.0" name="_top"/>
  <anchor x="226.0" y="709.0" name="top"/>
  <outline>
    <contour>
      <point x="126.0" y="538.0" type="line"/>
      <point x="130.0" y="601.0"/>
      <point x="167.0" y="639.0"/>
      <point x="215.0" y="639.0" type="curve" smooth="yes"/>
      <point x="264.0" y="639.0"/>
      <point x="304.0" y="599.0"/>
      <point x="309.0" y="539.0" type="curve"/>
      <point x="433.0" y="616.0" type="line"/>
      <point x="420.0" y="711.0"/>
      <point x="336.0" y="769.0"/>
      <point x="235.0" y="769.0" type="curve" smooth="yes"/>
      <point x="135.0" y="769.0"/>
      <point x="62.0" y="701.0"/>
      <point x="45.0" y="594.0" type="curve"/>
    </contour>
  </outline>
</glyph>
<glyph name="commaturnedabovecomb" format="2">
  <unicode hex="0312"/>
  <anchor x="146.0" y="490.0" name="_top"/>
  <anchor x="146.0" y="739.0" name="top"/>
  <outline>
    <contour>
      <point x="240.0" y="730.0" type="curve"/>
      <point x="99.0" y="730.0" type="line"/>
      <point x="64.0" y="692.0"/>
      <point x="48.0" y="641.0"/>
      <point x="48.0" y="568.0" type="curve"/>
      <point x="215.0" y="568.0" type="line"/>
      <point x="215.0" y="637.0"/>
      <point x="226.0" y="697.0"/>
    </contour>
  </outline>
</glyph>
<glyph name="horncomb" format="2">
  <unicode hex="031B"/>
  <anchor x="71.0" y="482.0" name="_topright"/>
  <anchor x="133.0" y="482.0" name="topright"/>
  <outline>
    <contour>
      <point x="71.0" y="303.0" type="line"/>
      <point x="201.0" y="303.0"/>
      <point x="287.0" y="368.0"/>
      <point x="287.0" y="480.0" type="curve" smooth="yes"/>
      <point x="287.0" y="517.0"/>
      <point x="278.0" y="552.0"/>
      <point x="258.0" y="582.0" type="curve"/>
      <point x="102.0" y="582.0" type="line"/>
      <point x="121.0" y="554.0"/>
      <point x="131.0" y="522.0"/>
      <point x="131.0" y="487.0" type="curve" smooth="yes"/>
      <point x="131.0" y="433.0"/>
      <point x="107.0" y="397.0"/>
      <point x="71.0" y="397.0" type="curve"/>
    </contour>
  </outline>
</glyph>
<glyph name="dotbelowcomb" format="2">
  <unicode hex="0323"/>
  <anchor x="150.0" y="0.0" name="_bottom"/>
  <anchor x="150.0" y="-227.0" name="bottom"/>
  <outline>
    <contour>
      <point x="150.0" y="-225.0" type="curve" smooth="yes"/>
      <point x="209.0" y="-225.0"/>
      <point x="249.0" y="-185.0"/>
      <point x="249.0" y="-126.0" type="curve" smooth="yes"/>
      <point x="249.0" y="-66.0"/>
      <point x="209.0" y="-26.0"/>
      <point x="150.0" y="-26.0" type="curve" smooth="yes"/>
      <point x="91.0" y="-26.0"/>
      <point x="51.0" y="-66.0"/>
      <point x="51.0" y="-126.0" type="curve" smooth="yes"/>
      <point x="51.0" y="-185.0"/>
      <point x="91.0" y="-225.0"/>
    </contour>
  </outline>
</glyph>
<glyph name="dieresisbelowcomb" format="2">
  <unicode hex="0324"/>
  <anchor x="275.0" y="0.0" name="_bottom"/>
  <anchor x="275.0" y="-203.0" name="bottom"/>
  <outline>
    <contour>
      <point x="150.0" y="-227.0" type="curve" smooth="yes"/>
      <point x="209.0" y="-227.0"/>
      <point x="249.0" y="-187.0"/>
      <point x="249.0" y="-128.0" type="curve" smooth="yes"/>
      <point x="249.0" y="-68.0"/>
      <point x="209.0" y="-28.0"/>
      <point x="150.0" y="-28.0" type="curve" smooth="yes"/>
      <point x="91.0" y="-28.0"/>
      <point x="51.0" y="-68.0"/>
      <point x="51.0" y="-128.0" type="curve" smooth="yes"/>
      <point x="51.0" y="-187.0"/>
      <point x="91.0" y="-227.0"/>
    </contour>
    <contour>
      <point x="400.0" y="-227.0" type="curve" smooth="yes"/>
      <point x="459.0" y="-227.0"/>
      <point x="499.0" y="-187.0"/>
      <point x="499.0" y="-128.0" type="curve" smooth="yes"/>
      <point x="499.0" y="-68.0"/>
      <point x="459.0" y="-28.0"/>
      <point x="400.0" y="-28.0" type="curve" smooth="yes"/>
      <point x="341.0" y="-28.0"/>
      <point x="301.0" y="-68.0"/>
      <point x="301.0" y="-128.0" type="curve" smooth="yes"/>
      <point x="301.0" y="-187.0"/>
      <point x="341.0" y="-227.0"/>
    </contour>
  </outline>
</glyph>
<glyph name="cedillacomb" format="2">
  <unicode hex="0327"/>
  <anchor x="158.0" y="0.0" name="_bottom"/>
  <anchor x="241.0" y="-239.0" name="bottom"/>
  <outline>
    <contour>
      <point x="149.0" y="-258.0" type="curve" smooth="yes"/>
      <point x="251.0" y="-258.0"/>
      <point x="315.0" y="-212.0"/>
      <point x="315.0" y="-139.0" type="curve" smooth="yes"/>
      <point x="315.0" y="-87.0"/>
      <point x="280.0" y="-55.0"/>
      <point x="207.0" y="-44.0" type="curve"/>
      <point x="219.0" y="18.0" type="line"/>
      <point x="104.0" y="18.0" type="line"/>
      <point x="83.0" y="-96.0" type="line"/>
      <point x="148.0" y="-102.0"/>
      <point x="178.0" y="-116.0"/>
      <point x="178.0" y="-137.0" type="curve" smooth="yes"/>
      <point x="178.0" y="-150.0"/>
      <point x="162.0" y="-158.0"/>
      <point x="133.0" y="-158.0" type="curve" smooth="yes"/>
      <point x="107.0" y="-158.0"/>
      <point x="72.0" y="-152.0"/>
      <point x="51.0" y="-143.0" type="curve"/>
      <point x="34.0" y="-235.0" type="line"/>
      <point x="62.0" y="-250.0"/>
      <point x="106.0" y="-258.0"/>
    </contour>
  </outline>
</glyph>
<glyph name="ogonekcomb" format="2">
  <unicode hex="0328"/>
  <anchor x="460.0" y="10.0" name="_ogonek"/>
  <outline>
    <contour>
      <point x="397.0" y="-256.0" type="curve" smooth="yes"/>
      <point x="437.0" y="-256.0"/>
      <point x="474.0" y="-246.0"/>
      <point x="501.0" y="-231.0" type="curve"/>
      <point x="488.0" y="-141.0" type="line"/>
      <point x="474.0" y="-148.0"/>
      <point x="456.0" y="-151.0"/>
      <point x="448.0" y="-151.0" type="curve" smooth="yes"/>
      <point x="423.0" y="-151.0"/>
      <point x="407.0" y="-130.0"/>
      <point x="407.0" y="-105.0" type="curve" smooth="yes"/>
      <point x="407.0" y="-61.0"/>
      <point x="445.0" y="-21.0"/>
      <point x="507.0" y="0.0" type="curve"/>
      <point x="440.0" y="20.0" type="line"/>
      <point x="328.0" y="3.0"/>
      <point x="257.0" y="-59.0"/>
      <point x="257.0" y="-140.0" type="curve" smooth="yes"/>
      <point x="257.0" y="-209.0"/>
      <point x="309.0" y="-256.0"/>
    </contour>
  </outline>
</glyph>
<glyph name="verticallinebelowcomb" format="2">
  <unicode hex="0329"/>
  <anchor x="113.0" y="0.0" name="_bottom"/>
  <anchor x="113.0" y="-244.0" name="bottom"/>
  <outline>
    <contour>
      <point x="45.0" y="-244.0" type="line"/>
      <point x="180.0" y="-244.0" type="line"/>
      <point x="170.0" y="-40.0" type="line"/>
      <point x="54.0" y="-40.0" type="line"/>
    </contour>
  </outline>
</glyph>
<glyph name="brevebelowcomb" format="2">
  <unicode hex="032E"/>
  <anchor x="233.0" y="0.0" name="_bottom"/>
  <anchor x="233.0" y="-227.0" name="bottom"/>
  <outline>
    <contour>
      <point x="232.0" y="-227.0" type="curve" smooth="yes"/>
      <point x="336.0" y="-227.0"/>
      <point x="410.0" y="-165.0"/>
      <point x="439.0" y="-63.0" type="curve"/>
      <point x="351.0" y="-21.0" type="line"/>
      <point x="336.0" y="-75.0"/>
      <point x="302.0" y="-100.0"/>
      <point x="252.0" y="-100.0" type="curve" smooth="yes"/>
      <point x="199.0" y="-100.0"/>
      <point x="161.0" y="-73.0"/>
      <point x="136.0" y="-21.0" type="curve"/>
      <point x="27.0" y="-90.0" type="line"/>
      <point x="58.0" y="-172.0"/>
      <point x="134.0" y="-227.0"/>
    </contour>
  </outline>
</glyph>
<glyph name="macronbelowcomb" format="2">
  <unicode hex="0331"/>
  <anchor x="245.0" y="0.0" name="_bottom"/>
  <anchor x="245.0" y="-206.0" name="bottom"/>
  <outline>
    <contour>
      <point x="68.0" y="-206.0" type="line"/>
      <point x="421.0" y="-206.0" type="line"/>
      <point x="421.0" y="-71.0" type="line"/>
      <point x="68.0" y="-71.0" type="line"/>
    </contour>
  </outline>
</glyph>
<glyph name="strokeshortcomb" format="2">
  <unicode hex="0335"/>
  <anchor x="215.0" y="299.0" name="_center"/>
  <outline>
    <contour>
      <point x="38.0" y="245.0" type="line"/>
      <point x="391.0" y="245.0" type="line"/>
      <point x="391.0" y="352.0" type="line"/>
      <point x="38.0" y="352.0" type="line"/>
    </contour>
  </outline>
</glyph>
<glyph name="strokelongcomb" format="2">
  <unicode hex="0336"/>
  <anchor x="440.0" y="343.0" name="_center"/>
  <outline>
    <contour>
      <point x="68.0" y="275.0" type="line"/>
      <point x="811.0" y="275.0" type="line"/>
      <point x="811.0" y="410.0" type="line"/>
      <point x="68.0" y="410.0" type="line"/>
    </contour>
  </outline>
</glyph>
<glyph name="slashshortcomb" format="2">
  <unicode hex="0337"/>
  <anchor x="202.0" y="247.0" name="_center"/>
  <outline>
    <contour>
      <point x="93.0" y="132.0" type="line"/>
      <point x="396.0" y="292.0" type="line"/>
      <point x="339.0" y="399.0" type="line"/>
      <point x="31.0" y="238.0" type="line"/>
    </contour>
  </outline>
</glyph>
<glyph name="slashlongcomb" format="2">
  <unicode hex="0338"/>
  <anchor x="229.0" y="231.0" name="_center"/>
  <outline>
    <contour>
      <point x="74.0" y="-76.0" type="line"/>
      <point x="459.0" y="495.0" type="line"/>
      <point x="387.0" y="538.0" type="line"/>
      <point x="4.0" y="-33.0" type="line"/>
    </contour>
  </outline>
</glyph>
<glyph name="ypogegrammeni" format="2">
  <advance width="558"/>
  <unicode hex="037A"/>
  <anchor x="262" y="0" name="_bottom"/>
  <outline>
    <contour>
      <point x="200" y="-55" type="line"/>
      <point x="200" y="-126" type="line" smooth="yes"/>
      <point x="200" y="-198"/>
      <point x="239" y="-232"/>
      <point x="300" y="-232" type="curve" smooth="yes"/>
      <point x="332" y="-232"/>
      <point x="357" y="-226"/>
      <point x="388" y="-214" type="curve"/>
      <point x="364" y="-131" type="line"/>
      <point x="357" y="-133"/>
      <point x="352" y="-134"/>
      <point x="347" y="-134" type="curve" smooth="yes"/>
      <point x="332" y="-134"/>
      <point x="324" y="-124"/>
      <point x="324" y="-100" type="curve" smooth="yes"/>
      <point x="324" y="-55" type="line"/>
    </contour>
  </outline>
</glyph>
<glyph name="tonos" format="2">
  <advance width="337"/>
  <unicode hex="0384"/>
  <anchor x="141" y="490" name="_top"/>
  <outline>
    <contour>
      <point x="199" y="538" type="line"/>
      <point x="266" y="733" type="line"/>
      <point x="104" y="759" type="line"/>
      <point x="90" y="553" type="line"/>
    </contour>
  </outline>
</glyph>
<glyph name="dieresistonos" format="2">
  <advance width="631"/>
  <unicode hex="0385"/>
  <anchor x="295" y="490" name="_top"/>
  <outline>
    <contour>
      <point x="134" y="548" type="curve" smooth="yes"/>
      <point x="188" y="548"/>
      <point x="223" y="585"/>
      <point x="223" y="638" type="curve" smooth="yes"/>
      <point x="223" y="692"/>
      <point x="188" y="729"/>
      <point x="134" y="729" type="curve" smooth="yes"/>
      <point x="80" y="729"/>
      <point x="45" y="692"/>
      <point x="45" y="638" type="curve" smooth="yes"/>
      <point x="45" y="585"/>
      <point x="80" y="548"/>
    </contour>
    <contour>
      <point x="342" y="539" type="line"/>
      <point x="408" y="734" type="line"/>
      <point x="258" y="759" type="line"/>
      <point x="242" y="553" type="line"/>
    </contour>
    <contour>
      <point x="497" y="548" type="curve" smooth="yes"/>
      <point x="551" y="548"/>
      <point x="586" y="585"/>
      <point x="586" y="638" type="curve" smooth="yes"/>
      <point x="586" y="692"/>
      <point x="551" y="729"/>
      <point x="497" y="729" type="curve" smooth="yes"/>
      <point x="443" y="729"/>
      <point x="408" y="692"/>
      <point x="408" y="638" type="curve" smooth="yes"/>
      <point x="408" y="585"/>
      <point x="443" y="548"/>
    </contour>
  </outline>
</glyph>
<glyph name="Delta" format="2">
  <advance width="690"/>
  <unicode hex="0394"/>
  <anchor x="343" y="0" name="bottom"/>
  <anchor x="343" y="694" name="top"/>
  <outline>
    <contour>
      <point x="31" y="0" type="line"/>
      <point x="176" y="0" type="line"/>
      <point x="360" y="620" type="line"/>
      <point x="312" y="620" type="line"/>
      <point x="505" y="0" type="line"/>
      <point x="658" y="0" type="line"/>
      <point x="658" y="111" type="line"/>
      <point x="459" y="694" type="line"/>
      <point x="238" y="694" type="line"/>
      <point x="31" y="111" type="line"/>
    </contour>
    <contour>
      <point x="146" y="0" type="line"/>
      <point x="535" y="0" type="line"/>
      <point x="535" y="152" type="line"/>
      <point x="146" y="152" type="line"/>
    </contour>
  </outline>
</glyph>
<glyph name="Theta" format="2">
  <advance width="760"/>
  <unicode hex="0398"/>
  <anchor x="380" y="0" name="bottom"/>
  <anchor x="380" y="694" name="top"/>
  <anchor x="564" y="141" name="Qtail"/>
  <anchor x="403" y="347" name="center"/>
  <anchor x="465" y="10" name="ogonek"/>
  <anchor x="83" y="694" name="topleft"/>
  <anchor x="626" y="694" name="topright"/>
  <outline>
    <contour>
      <point x="275" y="275" type="line"/>
      <point x="482" y="275" type="line"/>
      <point x="482" y="427" type="line"/>
      <point x="275" y="427" type="line"/>
    </contour>
    <component base="O"/>
  </outline>
</glyph>
<glyph name="Lambda" format="2">
  <advance width="708"/>
  <unicode hex="039B"/>
  <anchor x="353" y="0" name="bottom"/>
  <anchor x="353" y="694" name="top"/>
  <outline>
    <contour>
      <point x="1" y="0" type="line"/>
      <point x="186" y="0" type="line"/>
      <point x="370" y="620" type="line"/>
      <point x="322" y="620" type="line"/>
      <point x="515" y="0" type="line"/>
      <point x="706" y="0" type="line"/>
      <point x="469" y="694" type="line"/>
      <point x="248" y="694" type="line"/>
    </contour>
  </outline>
</glyph>
<glyph name="Xi" format="2">
  <advance width="610"/>
  <unicode hex="039E"/>
  <outline>
    <contour>
      <point x="45" y="0" type="line"/>
      <point x="560" y="0" type="line"/>
      <point x="560" y="152" type="line"/>
      <point x="45" y="152" type="line"/>
    </contour>
    <contour>
      <point x="95" y="276" type="line"/>
      <point x="506" y="276" type="line"/>
      <point x="506" y="428" type="line"/>
      <point x="95" y="428" type="line"/>
    </contour>
    <contour>
      <point x="45" y="542" type="line"/>
      <point x="560" y="542" type="line"/>
      <point x="560" y="694" type="line"/>
      <point x="45" y="694" type="line"/>
    </contour>
  </outline>
</glyph>
<glyph name="Sigma" format="2">
  <advance width="594"/>
  <unicode hex="03A3"/>
  <outline>
    <contour>
      <point x="438" y="356" type="line"/>
      <point x="184" y="646" type="line"/>
      <point x="184" y="542" type="line"/>
      <point x="557" y="542" type="line"/>
      <point x="557" y="694" type="line"/>
      <point x="32" y="694" type="line"/>
      <point x="32" y="583" type="line"/>
      <point x="277" y="306" type="line"/>
      <point x="277" y="401" type="line"/>
      <point x="27" y="111" type="line"/>
      <point x="27" y="0" type="line"/>
      <point x="569" y="0" type="line"/>
      <point x="569" y="152" type="line"/>
      <point x="167" y="152" type="line"/>
      <point x="167" y="40" type="line"/>
    </contour>
  </outline>
</glyph>
<glyph name="Phi" format="2">
  <advance width="814"/>
  <unicode hex="03A6"/>
  <outline>
    <contour>
      <point x="401" y="68" type="curve" smooth="yes"/>
      <point x="643" y="68"/>
      <point x="794" y="174"/>
      <point x="794" y="350" type="curve" smooth="yes"/>
      <point x="794" y="524"/>
      <point x="642" y="628"/>
      <point x="410" y="628" type="curve" smooth="yes"/>
      <point x="170" y="628"/>
      <point x="20" y="521"/>
      <point x="20" y="343" type="curve" smooth="yes"/>
      <point x="20" y="171"/>
      <point x="171" y="68"/>
    </contour>
    <contour>
      <point x="410" y="217" type="curve" smooth="yes"/>
      <point x="259" y="217"/>
      <point x="189" y="271"/>
      <point x="189" y="352" type="curve" smooth="yes"/>
      <point x="189" y="428"/>
      <point x="255" y="479"/>
      <point x="400" y="479" type="curve" smooth="yes"/>
      <point x="554" y="479"/>
      <point x="625" y="424"/>
      <point x="625" y="341" type="curve" smooth="yes"/>
      <point x="625" y="267"/>
      <point x="558" y="217"/>
    </contour>
    <contour>
      <point x="318" y="-10" type="line"/>
      <point x="494" y="-10" type="line"/>
      <point x="494" y="704" type="line"/>
      <point x="318" y="704" type="line"/>
    </contour>
  </outline>
</glyph>
<glyph name="Psi" format="2">
  <advance width="801"/>
  <unicode hex="03A8"/>
  <anchor x="401" y="0" name="bottom"/>
  <anchor x="401" y="694" name="top"/>
  <outline>
    <contour>
      <point x="344" y="187" type="curve"/>
      <point x="353" y="340" type="line"/>
      <point x="255" y="340"/>
      <point x="203" y="386"/>
      <point x="203" y="503" type="curve" smooth="yes"/>
      <point x="203" y="694" type="line"/>
      <point x="27" y="694" type="line"/>
      <point x="27" y="473" type="line" smooth="yes"/>
      <point x="27" y="293"/>
      <point x="148" y="187"/>
    </contour>
    <contour>
      <point x="449" y="187" type="line"/>
      <point x="651" y="187"/>
      <point x="775" y="293"/>
      <point x="775" y="474" type="curve" smooth="yes"/>
      <point x="775" y="694" type="line"/>
      <point x="599" y="694" type="line"/>
      <point x="599" y="485" type="line" smooth="yes"/>
      <point x="599" y="379"/>
      <point x="553" y="341"/>
      <point x="460" y="340" type="curve"/>
    </contour>
    <contour>
      <point x="313" y="0" type="line"/>
      <point x="489" y="0" type="line"/>
      <point x="489" y="694" type="line"/>
      <point x="313" y="694" type="line"/>
    </contour>
  </outline>
</glyph>
<glyph name="Omega" format="2">
  <advance width="753"/>
  <unicode hex="03A9"/>
  <anchor x="373" y="0" name="bottom"/>
  <anchor x="395" y="694" name="top"/>
  <anchor x="-34" y="694" name="topleft"/>
  <outline>
    <contour>
      <point x="379" y="704" type="curve" smooth="yes"/>
      <point x="165" y="704"/>
      <point x="26" y="572"/>
      <point x="26" y="395" type="curve" smooth="yes"/>
      <point x="26" y="301"/>
      <point x="64" y="211"/>
      <point x="149" y="142" type="curve"/>
      <point x="149" y="150" type="line"/>
      <point x="17" y="150" type="line"/>
      <point x="17" y="0" type="line"/>
      <point x="334" y="0" type="line"/>
      <point x="334" y="131" type="line"/>
      <point x="241" y="210"/>
      <point x="206" y="288"/>
      <point x="206" y="369" type="curve" smooth="yes"/>
      <point x="206" y="480"/>
      <point x="271" y="554"/>
      <point x="372" y="554" type="curve" smooth="yes"/>
      <point x="480" y="554"/>
      <point x="546" y="481"/>
      <point x="546" y="364" type="curve" smooth="yes"/>
      <point x="546" y="283"/>
      <point x="505" y="211"/>
      <point x="412" y="131" type="curve"/>
      <point x="412" y="0" type="line"/>
      <point x="736" y="0" type="line"/>
      <point x="736" y="150" type="line"/>
      <point x="595" y="150" type="line"/>
      <point x="595" y="143" type="line"/>
      <point x="681" y="212"/>
      <point x="726" y="310"/>
      <point x="726" y="404" type="curve" smooth="yes"/>
      <point x="726" y="575"/>
      <point x="588" y="704"/>
    </contour>
  </outline>
</glyph>
<glyph name="alpha" format="2">
  <advance width="597"/>
  <unicode hex="03B1"/>
  <anchor x="234" y="0" name="bottom"/>
  <anchor x="260" y="490" name="top"/>
  <outline>
    <contour>
      <point x="220" y="-10" type="curve" smooth="yes"/>
      <point x="331" y="-10"/>
      <point x="403" y="70"/>
      <point x="438" y="167" type="curve"/>
      <point x="366" y="199" type="line"/>
      <point x="341" y="158"/>
      <point x="307" y="131"/>
      <point x="270" y="131" type="curve" smooth="yes"/>
      <point x="226" y="131"/>
      <point x="198" y="173"/>
      <point x="198" y="246" type="curve" smooth="yes"/>
      <point x="198" y="316"/>
      <point x="219" y="362"/>
      <point x="266" y="362" type="curve" smooth="yes"/>
      <point x="303" y="362"/>
      <point x="332" y="320"/>
      <point x="343" y="242" type="curve" smooth="yes"/>
      <point x="356" y="149" type="line" smooth="yes"/>
      <point x="370" y="49"/>
      <point x="417" y="-8"/>
      <point x="501" y="-8" type="curve" smooth="yes"/>
      <point x="540" y="-8"/>
      <point x="575" y="2"/>
      <point x="608" y="15" type="curve"/>
      <point x="575" y="130" type="line"/>
      <point x="565" y="126"/>
      <point x="548" y="122"/>
      <point x="536" y="122" type="curve" smooth="yes"/>
      <point x="515" y="122"/>
      <point x="486" y="132"/>
      <point x="475" y="192" type="curve" smooth="yes"/>
      <point x="454" y="303" type="line" smooth="yes"/>
      <point x="429" y="436"/>
      <point x="361" y="500"/>
      <point x="248" y="500" type="curve" smooth="yes"/>
      <point x="104" y="500"/>
      <point x="21" y="399"/>
      <point x="21" y="235" type="curve" smooth="yes"/>
      <point x="21" y="70"/>
      <point x="113" y="-10"/>
    </contour>
    <contour>
      <point x="476" y="167" type="line"/>
      <point x="594" y="490" type="line"/>
      <point x="440" y="490" type="line"/>
      <point x="394" y="202" type="line"/>
    </contour>
  </outline>
</glyph>
<glyph name="beta" format="2">
  <advance width="616"/>
  <unicode hex="03B2"/>
  <outline>
    <contour>
      <point x="342" y="135" type="curve" smooth="yes"/>
      <point x="288" y="135"/>
      <point x="245" y="174"/>
      <point x="215" y="213" type="curve"/>
      <point x="173" y="107" type="line"/>
      <point x="230" y="33"/>
      <point x="284" y="-10"/>
      <point x="396" y="-10" type="curve" smooth="yes"/>
      <point x="511" y="-10"/>
      <point x="599" y="77"/>
      <point x="599" y="204" type="curve" smooth="yes"/>
      <point x="599" y="317"/>
      <point x="523" y="391"/>
      <point x="406" y="401" type="curve"/>
      <point x="406" y="392" type="line"/>
      <point x="508" y="409"/>
      <point x="558" y="478"/>
      <point x="559" y="561" type="curve" smooth="yes"/>
      <point x="560" y="668"/>
      <point x="471" y="749"/>
      <point x="322" y="749" type="curve" smooth="yes"/>
      <point x="156" y="749"/>
      <point x="57" y="647"/>
      <point x="57" y="473" type="curve" smooth="yes"/>
      <point x="57" y="-217" type="line"/>
      <point x="230" y="-217" type="line"/>
      <point x="230" y="478" type="line" smooth="yes"/>
      <point x="230" y="572"/>
      <point x="266" y="605"/>
      <point x="314" y="605" type="curve" smooth="yes"/>
      <point x="357" y="605"/>
      <point x="385" y="573"/>
      <point x="385" y="534" type="curve" smooth="yes"/>
      <point x="385" y="486"/>
      <point x="350" y="457"/>
      <point x="311" y="457" type="curve" smooth="yes"/>
      <point x="294" y="457" type="line"/>
      <point x="294" y="322" type="line"/>
      <point x="315" y="322" type="line" smooth="yes"/>
      <point x="387" y="322"/>
      <point x="423" y="283"/>
      <point x="423" y="226" type="curve" smooth="yes"/>
      <point x="423" y="167"/>
      <point x="386" y="135"/>
    </contour>
  </outline>
</glyph>
<glyph name="gamma" format="2">
  <advance width="543"/>
  <unicode hex="03B3"/>
  <outline>
    <contour>
      <point x="186" y="-10" type="line"/>
      <point x="344" y="0" type="line"/>
      <point x="412" y="127" type="line" smooth="yes"/>
      <point x="482" y="258"/>
      <point x="532" y="373"/>
      <point x="532" y="490" type="curve"/>
      <point x="359" y="490" type="line"/>
      <point x="359" y="380"/>
      <point x="324" y="267"/>
      <point x="269" y="142" type="curve" smooth="yes"/>
      <point x="258" y="117" type="line"/>
      <point x="284" y="117" type="line"/>
      <point x="182" y="490" type="line"/>
      <point x="-8" y="490" type="line"/>
    </contour>
    <contour>
      <point x="179" y="-217" type="line"/>
      <point x="357" y="-217" type="line"/>
      <point x="344" y="0" type="line"/>
      <point x="186" y="-10" type="line"/>
    </contour>
  </outline>
</glyph>
<glyph name="delta" format="2">
  <advance width="559"/>
  <unicode hex="03B4"/>
  <outline>
    <contour>
      <point x="518" y="688" type="line"/>
      <point x="447" y="724"/>
      <point x="368" y="749"/>
      <point x="281" y="749" type="curve" smooth="yes"/>
      <point x="149" y="749"/>
      <point x="60" y="683"/>
      <point x="60" y="581" type="curve" smooth="yes"/>
      <point x="60" y="509"/>
      <point x="109" y="431"/>
      <point x="219" y="376" type="curve" smooth="yes"/>
      <point x="331" y="320"/>
      <point x="365" y="285"/>
      <point x="365" y="227" type="curve" smooth="yes"/>
      <point x="365" y="168"/>
      <point x="330" y="134"/>
      <point x="281" y="134" type="curve" smooth="yes"/>
      <point x="227" y="134"/>
      <point x="194" y="173"/>
      <point x="194" y="230" type="curve" smooth="yes"/>
      <point x="194" y="289"/>
      <point x="228" y="355"/>
      <point x="325" y="401" type="curve"/>
      <point x="251" y="487" type="line"/>
      <point x="137" y="439"/>
      <point x="18" y="351"/>
      <point x="18" y="217" type="curve" smooth="yes"/>
      <point x="18" y="95"/>
      <point x="113" y="-10"/>
      <point x="268" y="-10" type="curve" smooth="yes"/>
      <point x="427" y="-10"/>
      <point x="541" y="95"/>
      <point x="541" y="239" type="curve" smooth="yes"/>
      <point x="541" y="355"/>
      <point x="464" y="422"/>
      <point x="358" y="475" type="curve" smooth="yes"/>
      <point x="255" y="527"/>
      <point x="236" y="550"/>
      <point x="236" y="573" type="curve" smooth="yes"/>
      <point x="236" y="598"/>
      <point x="259" y="607"/>
      <point x="295" y="607" type="curve" smooth="yes"/>
      <point x="338" y="607"/>
      <point x="410" y="590"/>
      <point x="478" y="559" type="curve"/>
    </contour>
  </outline>
</glyph>
<glyph name="epsilon" format="2">
  <advance width="472"/>
  <unicode hex="03B5"/>
  <anchor x="255" y="0" name="bottom"/>
  <anchor x="245" y="490" name="top"/>
  <outline>
    <contour>
      <point x="256" y="-10" type="curve" smooth="yes"/>
      <point x="344" y="-10"/>
      <point x="411" y="7"/>
      <point x="469" y="26" type="curve"/>
      <point x="435" y="144" type="line"/>
      <point x="391" y="129"/>
      <point x="330" y="118"/>
      <point x="277" y="118" type="curve" smooth="yes"/>
      <point x="216" y="118"/>
      <point x="189" y="131"/>
      <point x="189" y="157" type="curve" smooth="yes"/>
      <point x="189" y="179"/>
      <point x="209" y="193"/>
      <point x="257" y="193" type="curve" smooth="yes"/>
      <point x="354" y="193" type="line"/>
      <point x="354" y="302" type="line"/>
      <point x="265" y="302" type="line" smooth="yes"/>
      <point x="215" y="302"/>
      <point x="193" y="316"/>
      <point x="193" y="337" type="curve" smooth="yes"/>
      <point x="193" y="358"/>
      <point x="216" y="372"/>
      <point x="272" y="372" type="curve" smooth="yes"/>
      <point x="314" y="372"/>
      <point x="370" y="365"/>
      <point x="419" y="351" type="curve"/>
      <point x="440" y="472" type="line"/>
      <point x="381" y="490"/>
      <point x="307" y="500"/>
      <point x="245" y="500" type="curve" smooth="yes"/>
      <point x="114" y="500"/>
      <point x="25" y="451"/>
      <point x="25" y="363" type="curve" smooth="yes"/>
      <point x="25" y="294"/>
      <point x="93" y="251"/>
      <point x="156" y="243" type="curve"/>
      <point x="158" y="248" type="line"/>
      <point x="85" y="244"/>
      <point x="13" y="201"/>
      <point x="13" y="123" type="curve" smooth="yes"/>
      <point x="13" y="30"/>
      <point x="124" y="-10"/>
    </contour>
  </outline>
</glyph>
<glyph name="zeta" format="2">
  <advance width="428"/>
  <unicode hex="03B6"/>
  <outline>
    <contour>
      <point x="194" y="253" type="curve" smooth="yes"/>
      <point x="194" y="318"/>
      <point x="259" y="391"/>
      <point x="345" y="490" type="curve" smooth="yes"/>
      <point x="473" y="636" type="line"/>
      <point x="473" y="739" type="line"/>
      <point x="18" y="739" type="line"/>
      <point x="18" y="604" type="line"/>
      <point x="334" y="604" type="line"/>
      <point x="365" y="690" type="line"/>
      <point x="213" y="546" type="line" smooth="yes"/>
      <point x="105" y="443"/>
      <point x="18" y="349"/>
      <point x="18" y="232" type="curve" smooth="yes"/>
      <point x="18" y="123"/>
      <point x="89" y="69"/>
      <point x="204" y="19" type="curve" smooth="yes"/>
      <point x="284" y="-16"/>
      <point x="296" y="-45"/>
      <point x="296" y="-69" type="curve" smooth="yes"/>
      <point x="296" y="-95"/>
      <point x="275" y="-119"/>
      <point x="245" y="-155" type="curve"/>
      <point x="345" y="-232" type="line"/>
      <point x="400" y="-182"/>
      <point x="454" y="-104"/>
      <point x="454" y="-43" type="curve" smooth="yes"/>
      <point x="454" y="31"/>
      <point x="427" y="81"/>
      <point x="316" y="130" type="curve" smooth="yes"/>
      <point x="239" y="164"/>
      <point x="194" y="202"/>
    </contour>
  </outline>
</glyph>
<glyph name="eta" format="2">
  <advance width="579"/>
  <unicode hex="03B7"/>
  <anchor x="140" y="0" name="bottom"/>
  <anchor x="296" y="490" name="top"/>
  <outline>
    <contour>
      <point x="54" y="0" type="line"/>
      <point x="227" y="0" type="line"/>
      <point x="227" y="376" type="line"/>
      <point x="179" y="490" type="line"/>
      <point x="54" y="490" type="line"/>
    </contour>
    <contour>
      <point x="364" y="-217" type="line"/>
      <point x="537" y="-217" type="line"/>
      <point x="537" y="284" type="line" smooth="yes"/>
      <point x="537" y="418"/>
      <point x="474" y="496"/>
      <point x="363" y="496" type="curve" smooth="yes"/>
      <point x="293" y="496"/>
      <point x="232" y="465"/>
      <point x="192" y="408" type="curve"/>
      <point x="211" y="305" type="line"/>
      <point x="236" y="332"/>
      <point x="264" y="346"/>
      <point x="298" y="346" type="curve" smooth="yes"/>
      <point x="345" y="346"/>
      <point x="364" y="320"/>
      <point x="364" y="265" type="curve" smooth="yes"/>
    </contour>
  </outline>
</glyph>
<glyph name="theta" format="2">
  <advance width="585"/>
  <unicode hex="03B8"/>
  <outline>
    <contour>
      <point x="289" y="-10" type="curve" smooth="yes"/>
      <point x="451" y="-10"/>
      <point x="562" y="104"/>
      <point x="562" y="375" type="curve" smooth="yes"/>
      <point x="562" y="638"/>
      <point x="454" y="749"/>
      <point x="295" y="749" type="curve" smooth="yes"/>
      <point x="133" y="749"/>
      <point x="23" y="637"/>
      <point x="23" y="366" type="curve" smooth="yes"/>
      <point x="23" y="103"/>
      <point x="130" y="-10"/>
    </contour>
    <contour>
      <point x="295" y="134" type="curve" smooth="yes"/>
      <point x="225" y="134"/>
      <point x="197" y="206"/>
      <point x="197" y="374" type="curve" smooth="yes"/>
      <point x="197" y="539"/>
      <point x="223" y="605"/>
      <point x="289" y="605" type="curve" smooth="yes"/>
      <point x="359" y="605"/>
      <point x="388" y="533"/>
      <point x="388" y="366" type="curve" smooth="yes"/>
      <point x="388" y="202"/>
      <point x="361" y="134"/>
    </contour>
    <contour>
      <point x="93" y="308" type="line"/>
      <point x="492" y="308" type="line"/>
      <point x="492" y="443" type="line"/>
      <point x="93" y="443" type="line"/>
    </contour>
  </outline>
</glyph>
<glyph name="iota" format="2">
  <advance width="313"/>
  <unicode hex="03B9"/>
  <anchor x="171" y="0" name="bottom"/>
  <anchor x="130" y="490" name="top"/>
  <outline>
    <contour>
      <point x="210" y="-8" type="curve" smooth="yes"/>
      <point x="248" y="-8"/>
      <point x="287" y="-1"/>
      <point x="320" y="11" type="curve"/>
      <point x="286" y="125" type="line"/>
      <point x="276" y="122"/>
      <point x="265" y="121"/>
      <point x="259" y="121" type="curve" smooth="yes"/>
      <point x="233" y="121"/>
      <point x="219" y="137"/>
      <point x="219" y="168" type="curve" smooth="yes"/>
      <point x="219" y="490" type="line"/>
      <point x="46" y="490" type="line"/>
      <point x="46" y="147" type="line" smooth="yes"/>
      <point x="46" y="48"/>
      <point x="106" y="-8"/>
    </contour>
  </outline>
</glyph>
<glyph name="kappa" format="2">
  <advance width="549"/>
  <unicode hex="03BA"/>
  <outline>
    <contour>
      <point x="54" y="0" type="line"/>
      <point x="227" y="0" type="line"/>
      <point x="227" y="490" type="line"/>
      <point x="54" y="490" type="line"/>
    </contour>
    <contour>
      <point x="353" y="325" type="line"/>
      <point x="249" y="200" type="line"/>
      <point x="362" y="0" type="line"/>
      <point x="563" y="0" type="line"/>
    </contour>
    <contour>
      <point x="273" y="370" type="curve" smooth="yes"/>
      <point x="206" y="277" type="line"/>
      <point x="206" y="71" type="line"/>
      <point x="351" y="253" type="line" smooth="yes"/>
      <point x="405" y="321"/>
      <point x="442" y="351"/>
      <point x="488" y="351" type="curve" smooth="yes"/>
      <point x="501" y="351"/>
      <point x="511" y="350"/>
      <point x="518" y="349" type="curve"/>
      <point x="548" y="489" type="line"/>
      <point x="523" y="495"/>
      <point x="503" y="498"/>
      <point x="481" y="498" type="curve" smooth="yes"/>
      <point x="421" y="498"/>
      <point x="354" y="482"/>
    </contour>
  </outline>
</glyph>
<glyph name="lambda" format="2">
  <advance width="548"/>
  <unicode hex="03BB"/>
  <outline>
    <contour>
      <point x="192" y="549" type="curve" smooth="yes"/>
      <point x="210" y="500" type="line"/>
      <point x="-10" y="0" type="line"/>
      <point x="168" y="0" type="line"/>
      <point x="333" y="476" type="line"/>
      <point x="234" y="476" type="line"/>
      <point x="372" y="0" type="line"/>
      <point x="558" y="0" type="line"/>
      <point x="329" y="597" type="line" smooth="yes"/>
      <point x="285" y="711"/>
      <point x="228" y="749"/>
      <point x="142" y="749" type="curve" smooth="yes"/>
      <point x="101" y="749"/>
      <point x="39" y="732"/>
      <point x="0" y="708" type="curve"/>
      <point x="34" y="589" type="line"/>
      <point x="56" y="599"/>
      <point x="90" y="607"/>
      <point x="113" y="607" type="curve" smooth="yes"/>
      <point x="145" y="607"/>
      <point x="173" y="602"/>
    </contour>
  </outline>
</glyph>
<glyph name="mu" format="2">
  <advance width="621"/>
  <unicode hex="03BC"/>
  <anchor x="292" y="490" name="top"/>
  <outline>
    <contour>
      <point x="514" y="-8" type="curve" smooth="yes"/>
      <point x="559" y="-8"/>
      <point x="594" y="0"/>
      <point x="628" y="13" type="curve"/>
      <point x="596" y="125" type="line"/>
      <point x="587" y="122"/>
      <point x="579" y="121"/>
      <point x="571" y="121" type="curve" smooth="yes"/>
      <point x="549" y="121"/>
      <point x="533" y="137"/>
      <point x="533" y="168" type="curve" smooth="yes"/>
      <point x="533" y="490" type="line"/>
      <point x="360" y="490" type="line"/>
      <point x="360" y="153" type="line" smooth="yes"/>
      <point x="360" y="45"/>
      <point x="428" y="-8"/>
    </contour>
    <contour>
      <point x="54" y="-217" type="line" smooth="yes"/>
      <point x="232" y="-217" type="line"/>
      <point x="210" y="25" type="line"/>
      <point x="227" y="25" type="line"/>
      <point x="227" y="490" type="line"/>
      <point x="54" y="490" type="line"/>
    </contour>
    <contour>
      <point x="269" y="-2" type="curve" smooth="yes"/>
      <point x="335" y="-2"/>
      <point x="382" y="42"/>
      <point x="410" y="105" type="curve"/>
      <point x="377" y="182" type="line"/>
      <point x="352" y="155"/>
      <point x="319" y="146"/>
      <point x="297" y="146" type="curve" smooth="yes"/>
      <point x="262" y="146"/>
      <point x="219" y="163"/>
      <point x="147" y="242" type="curve"/>
      <point x="104" y="94" type="line"/>
      <point x="193" y="17"/>
      <point x="218" y="-2"/>
    </contour>
  </outline>
</glyph>
<glyph name="nu" format="2">
  <advance width="543"/>
  <unicode hex="03BD"/>
  <anchor x="267" y="0" name="bottom"/>
  <anchor x="267" y="490" name="top"/>
  <outline>
    <contour>
      <point x="259" y="124" type="line"/>
      <point x="282" y="124" type="line"/>
      <point x="182" y="490" type="line"/>
      <point x="-8" y="490" type="line"/>
      <point x="181" y="0" type="line"/>
      <point x="342" y="0" type="line"/>
      <point x="406" y="116" type="line" smooth="yes"/>
      <point x="484" y="257"/>
      <point x="532" y="373"/>
      <point x="532" y="490" type="curve"/>
      <point x="359" y="490" type="line"/>
      <point x="359" y="380"/>
      <point x="328" y="272"/>
      <point x="272" y="152" type="curve" smooth="yes"/>
    </contour>
  </outline>
</glyph>
<glyph name="xi" format="2">
  <advance width="454"/>
  <unicode hex="03BE"/>
  <outline>
    <contour>
      <point x="32" y="739" type="line"/>
      <point x="32" y="604" type="line"/>
      <point x="309" y="604" type="line"/>
      <point x="288" y="621" type="line"/>
      <point x="240" y="610" type="line" smooth="yes"/>
      <point x="129" y="585"/>
      <point x="58" y="534"/>
      <point x="58" y="462" type="curve" smooth="yes"/>
      <point x="58" y="397"/>
      <point x="118" y="351"/>
      <point x="217" y="351" type="curve"/>
      <point x="220" y="357" type="line"/>
      <point x="104" y="357"/>
      <point x="18" y="283"/>
      <point x="18" y="189" type="curve" smooth="yes"/>
      <point x="18" y="95"/>
      <point x="82" y="37"/>
      <point x="198" y="8" type="curve" smooth="yes"/>
      <point x="276" y="-11"/>
      <point x="302" y="-38"/>
      <point x="302" y="-65" type="curve" smooth="yes"/>
      <point x="302" y="-92"/>
      <point x="281" y="-119"/>
      <point x="251" y="-155" type="curve"/>
      <point x="351" y="-232" type="line"/>
      <point x="406" y="-182"/>
      <point x="460" y="-105"/>
      <point x="460" y="-44" type="curve" smooth="yes"/>
      <point x="460" y="35"/>
      <point x="425" y="87"/>
      <point x="314" y="117" type="curve" smooth="yes"/>
      <point x="224" y="141"/>
      <point x="194" y="173"/>
      <point x="194" y="212" type="curve" smooth="yes"/>
      <point x="194" y="251"/>
      <point x="222" y="285"/>
      <point x="312" y="285" type="curve" smooth="yes"/>
      <point x="428" y="285" type="line"/>
      <point x="428" y="420" type="line"/>
      <point x="322" y="420" type="line" smooth="yes"/>
      <point x="253" y="420"/>
      <point x="226" y="442"/>
      <point x="226" y="474" type="curve" smooth="yes"/>
      <point x="226" y="514"/>
      <point x="282" y="548"/>
      <point x="361" y="582" type="curve" smooth="yes"/>
      <point x="480" y="633" type="line"/>
      <point x="480" y="739" type="line"/>
    </contour>
  </outline>
</glyph>
<glyph name="omicron" format="2">
  <advance width="559"/>
  <unicode hex="03BF"/>
  <anchor x="278" y="0" name="bottom"/>
  <anchor x="278" y="490" name="top"/>
  <outline>
    <contour>
      <point x="271" y="-10" type="curve" smooth="yes"/>
      <point x="434" y="-10"/>
      <point x="541" y="97"/>
      <point x="541" y="254" type="curve" smooth="yes"/>
      <point x="541" y="402"/>
      <point x="444" y="500"/>
      <point x="289" y="500" type="curve" smooth="yes"/>
      <point x="125" y="500"/>
      <point x="18" y="393"/>
      <point x="18" y="235" type="curve" smooth="yes"/>
      <point x="18" y="88"/>
      <point x="115" y="-10"/>
    </contour>
    <contour>
      <point x="282" y="134" type="curve" smooth="yes"/>
      <point x="224" y="134"/>
      <point x="194" y="177"/>
      <point x="194" y="246" type="curve" smooth="yes"/>
      <point x="194" y="314"/>
      <point x="222" y="356"/>
      <point x="277" y="356" type="curve" smooth="yes"/>
      <point x="335" y="356"/>
      <point x="365" y="312"/>
      <point x="365" y="240" type="curve" smooth="yes"/>
      <point x="365" y="174"/>
      <point x="337" y="134"/>
    </contour>
  </outline>
</glyph>
<glyph name="pi" format="2">
  <advance width="664"/>
  <unicode hex="03C0"/>
  <outline>
    <contour>
      <point x="536" y="-8" type="curve" smooth="yes"/>
      <point x="578" y="-8"/>
      <point x="607" y="-2"/>
      <point x="647" y="11" type="curve"/>
      <point x="616" y="127" type="line"/>
      <point x="606" y="124"/>
      <point x="598" y="123"/>
      <point x="587" y="123" type="curve" smooth="yes"/>
      <point x="558" y="123"/>
      <point x="538" y="141"/>
      <point x="538" y="186" type="curve" smooth="yes"/>
      <point x="538" y="425" type="line"/>
      <point x="365" y="425" type="line"/>
      <point x="365" y="173" type="line" smooth="yes"/>
      <point x="365" y="54"/>
      <point x="430" y="-8"/>
    </contour>
    <contour>
      <point x="94" y="0" type="line"/>
      <point x="267" y="0" type="line"/>
      <point x="267" y="425" type="line"/>
      <point x="94" y="425" type="line"/>
    </contour>
    <contour>
      <point x="5" y="355" type="line"/>
      <point x="640" y="355" type="line"/>
      <point x="640" y="490" type="line"/>
      <point x="5" y="490" type="line"/>
    </contour>
  </outline>
</glyph>
<glyph name="rho" format="2">
  <advance width="561"/>
  <unicode hex="03C1"/>
  <anchor x="273" y="0" name="bottom"/>
  <anchor x="273" y="490" name="top"/>
  <outline>
    <contour>
      <point x="34" y="241" type="curve" smooth="yes"/>
      <point x="34" y="-217" type="line"/>
      <point x="212" y="-217" type="line"/>
      <point x="195" y="51" type="line"/>
      <point x="207" y="51" type="line"/>
      <point x="207" y="239" type="line" smooth="yes"/>
      <point x="207" y="321"/>
      <point x="238" y="356"/>
      <point x="287" y="356" type="curve" smooth="yes"/>
      <point x="331" y="356"/>
      <point x="367" y="317"/>
      <point x="367" y="249" type="curve" smooth="yes"/>
      <point x="367" y="177"/>
      <point x="334" y="134"/>
      <point x="279" y="134" type="curve" smooth="yes"/>
      <point x="245" y="134"/>
      <point x="209" y="151"/>
      <point x="191" y="181" type="curve"/>
      <point x="152" y="87" type="line"/>
      <point x="185" y="25"/>
      <point x="243" y="-10"/>
      <point x="315" y="-10" type="curve" smooth="yes"/>
      <point x="444" y="-10"/>
      <point x="543" y="93"/>
      <point x="543" y="254" type="curve" smooth="yes"/>
      <point x="543" y="395"/>
      <point x="461" y="500"/>
      <point x="288" y="500" type="curve" smooth="yes"/>
      <point x="131" y="500"/>
      <point x="34" y="410"/>
    </contour>
  </outline>
</glyph>
<glyph name="sigmafinal" format="2">
  <advance width="457"/>
  <unicode hex="03C2"/>
  <outline>
    <contour>
      <point x="194" y="261" type="curve" smooth="yes"/>
      <point x="194" y="313"/>
      <point x="233" y="356"/>
      <point x="305" y="356" type="curve" smooth="yes"/>
      <point x="338" y="356"/>
      <point x="378" y="349"/>
      <point x="408" y="339" type="curve"/>
      <point x="443" y="473" type="line"/>
      <point x="403" y="490"/>
      <point x="348" y="500"/>
      <point x="296" y="500" type="curve" smooth="yes"/>
      <point x="126" y="500"/>
      <point x="18" y="407"/>
      <point x="18" y="252" type="curve" smooth="yes"/>
      <point x="18" y="113"/>
      <point x="97" y="52"/>
      <point x="201" y="14" type="curve" smooth="yes"/>
      <point x="272" y="-12"/>
      <point x="285" y="-41"/>
      <point x="285" y="-66" type="curve" smooth="yes"/>
      <point x="285" y="-93"/>
      <point x="264" y="-120"/>
      <point x="234" y="-155" type="curve"/>
      <point x="334" y="-232" type="line"/>
      <point x="389" y="-182"/>
      <point x="443" y="-104"/>
      <point x="443" y="-38" type="curve" smooth="yes"/>
      <point x="443" y="37"/>
      <point x="411" y="91"/>
      <point x="294" y="134" type="curve" smooth="yes"/>
      <point x="220" y="161"/>
      <point x="194" y="208"/>
    </contour>
  </outline>
</glyph>
<glyph name="sigma" format="2">
  <advance width="592"/>
  <unicode hex="03C3"/>
  <outline>
    <contour>
      <point x="278" y="431" type="line"/>
      <point x="338" y="365"/>
      <point x="364" y="302"/>
      <point x="364" y="235" type="curve" smooth="yes"/>
      <point x="364" y="173"/>
      <point x="332" y="134"/>
      <point x="279" y="134" type="curve" smooth="yes"/>
      <point x="223" y="134"/>
      <point x="194" y="176"/>
      <point x="194" y="244" type="curve" smooth="yes"/>
      <point x="194" y="310"/>
      <point x="229" y="355"/>
      <point x="303" y="355" type="curve" smooth="yes"/>
      <point x="592" y="355" type="line"/>
      <point x="592" y="490" type="line"/>
      <point x="297" y="490" type="line" smooth="yes"/>
      <point x="132" y="490"/>
      <point x="18" y="387"/>
      <point x="18" y="231" type="curve" smooth="yes"/>
      <point x="18" y="92"/>
      <point x="111" y="-10"/>
      <point x="268" y="-10" type="curve" smooth="yes"/>
      <point x="430" y="-10"/>
      <point x="535" y="88"/>
      <point x="535" y="205" type="curve" smooth="yes"/>
      <point x="535" y="302"/>
      <point x="470" y="411"/>
      <point x="375" y="481" type="curve"/>
    </contour>
  </outline>
</glyph>
<glyph name="tau" format="2">
  <advance width="487"/>
  <unicode hex="03C4"/>
  <outline>
    <contour>
      <point x="0" y="355" type="line"/>
      <point x="482" y="355" type="line"/>
      <point x="482" y="490" type="line"/>
      <point x="0" y="490" type="line"/>
    </contour>
    <contour>
      <point x="340" y="-8" type="curve" smooth="yes"/>
      <point x="385" y="-8"/>
      <point x="425" y="2"/>
      <point x="464" y="18" type="curve"/>
      <point x="431" y="135" type="line"/>
      <point x="416" y="129"/>
      <point x="397" y="123"/>
      <point x="378" y="123" type="curve" smooth="yes"/>
      <point x="341" y="123"/>
      <point x="317" y="145"/>
      <point x="317" y="181" type="curve" smooth="yes"/>
      <point x="317" y="490" type="line"/>
      <point x="147" y="490" type="line"/>
      <point x="147" y="176" type="line" smooth="yes"/>
      <point x="147" y="60"/>
      <point x="218" y="-8"/>
    </contour>
  </outline>
</glyph>
<glyph name="upsilon" format="2">
  <advance width="564"/>
  <unicode hex="03C5"/>
  <anchor x="275" y="0" name="bottom"/>
  <anchor x="263" y="490" name="top"/>
  <outline>
    <contour>
      <point x="278" y="-10" type="curve" smooth="yes"/>
      <point x="436" y="-10"/>
      <point x="541" y="84"/>
      <point x="541" y="241" type="curve" smooth="yes"/>
      <point x="541" y="333"/>
      <point x="518" y="415"/>
      <point x="492" y="490" type="curve"/>
      <point x="316" y="490" type="line"/>
      <point x="341" y="418"/>
      <point x="365" y="318"/>
      <point x="365" y="249" type="curve" smooth="yes"/>
      <point x="365" y="180"/>
      <point x="339" y="137"/>
      <point x="287" y="137" type="curve" smooth="yes"/>
      <point x="233" y="137"/>
      <point x="212" y="173"/>
      <point x="212" y="234" type="curve" smooth="yes"/>
      <point x="212" y="490" type="line"/>
      <point x="39" y="490" type="line"/>
      <point x="39" y="214" type="line" smooth="yes"/>
      <point x="39" y="70"/>
      <point x="133" y="-10"/>
    </contour>
  </outline>
</glyph>
<glyph name="phi" format="2">
  <advance width="746"/>
  <unicode hex="03C6"/>
  <outline>
    <contour>
      <point x="290" y="-8" type="curve"/>
      <point x="297" y="137" type="line"/>
      <point x="237" y="137"/>
      <point x="199" y="192"/>
      <point x="199" y="277" type="curve" smooth="yes"/>
      <point x="199" y="347"/>
      <point x="217" y="408"/>
      <point x="252" y="490" type="curve"/>
      <point x="76" y="490" type="line"/>
      <point x="41" y="406"/>
      <point x="23" y="351"/>
      <point x="23" y="258" type="curve" smooth="yes"/>
      <point x="23" y="114"/>
      <point x="109" y="-8"/>
    </contour>
    <contour>
      <point x="447" y="137" type="curve"/>
      <point x="440" y="-8" type="line"/>
      <point x="595" y="-8"/>
      <point x="726" y="104"/>
      <point x="726" y="264" type="curve" smooth="yes"/>
      <point x="726" y="427"/>
      <point x="645" y="500"/>
      <point x="506" y="500" type="curve" smooth="yes"/>
      <point x="355" y="500"/>
      <point x="282" y="412"/>
      <point x="282" y="245" type="curve" smooth="yes"/>
      <point x="282" y="-217" type="line"/>
      <point x="455" y="-217" type="line"/>
      <point x="455" y="268" type="line" smooth="yes"/>
      <point x="455" y="334"/>
      <point x="476" y="356"/>
      <point x="504" y="356" type="curve" smooth="yes"/>
      <point x="528" y="356"/>
      <point x="550" y="336"/>
      <point x="550" y="263" type="curve" smooth="yes"/>
      <point x="550" y="172"/>
      <point x="495" y="137"/>
    </contour>
  </outline>
</glyph>
<glyph name="chi" format="2">
  <advance width="565"/>
  <unicode hex="03C7"/>
  <outline>
    <contour>
      <point x="383" y="-217" type="line"/>
      <point x="578" y="-217" type="line"/>
      <point x="332" y="211" type="line"/>
      <point x="187" y="490" type="line"/>
      <point x="-9" y="490" type="line"/>
      <point x="237" y="64" type="line"/>
    </contour>
    <contour>
      <point x="-13" y="-217" type="line"/>
      <point x="167" y="-217" type="line"/>
      <point x="301" y="37" type="line"/>
      <point x="220" y="178" type="line"/>
    </contour>
    <contour>
      <point x="350" y="82" type="line"/>
      <point x="574" y="490" type="line"/>
      <point x="389" y="490" type="line"/>
      <point x="270" y="228" type="line"/>
    </contour>
  </outline>
</glyph>
<glyph name="psi" format="2">
  <advance width="784"/>
  <unicode hex="03C8"/>
  <outline>
    <contour>
      <point x="308" y="-217" type="line"/>
      <point x="481" y="-217" type="line"/>
      <point x="481" y="646" type="line"/>
      <point x="308" y="646" type="line"/>
    </contour>
    <contour>
      <point x="325" y="134" type="line"/>
      <point x="253" y="134"/>
      <point x="212" y="188"/>
      <point x="212" y="269" type="curve" smooth="yes"/>
      <point x="212" y="490" type="line"/>
      <point x="39" y="490" type="line"/>
      <point x="39" y="244" type="line" smooth="yes"/>
      <point x="39" y="90"/>
      <point x="164" y="-8"/>
      <point x="318" y="-8" type="curve"/>
    </contour>
    <contour>
      <point x="464" y="-8" type="line"/>
      <point x="639" y="-8"/>
      <point x="761" y="108"/>
      <point x="761" y="252" type="curve" smooth="yes"/>
      <point x="761" y="349"/>
      <point x="744" y="410"/>
      <point x="717" y="490" type="curve"/>
      <point x="541" y="490" type="line"/>
      <point x="567" y="410"/>
      <point x="585" y="338"/>
      <point x="585" y="267" type="curve" smooth="yes"/>
      <point x="585" y="179"/>
      <point x="537" y="134"/>
      <point x="471" y="134" type="curve"/>
    </contour>
  </outline>
</glyph>
